<?xml version="1.0" encoding="iso-8859-1"?>
<!-- Generator: Adobe Illustrator 19.0.0, SVG Export Plug-In . SVG Version: 6.00 Build 0)  -->
<svg version="1.1" id="Capa_1" xmlns="http://www.w3.org/2000/svg" xmlns:xlink="http://www.w3.org/1999/xlink" x="0px" y="0px"
	 viewBox="0 0 511.757 511.757" style="enable-background:new 0 0 511.757 511.757;" xml:space="preserve">
<g transform="matrix(1.25 0 0 -1.25 0 45)">
	<g>
		<g>
			<path style="fill:#FFCC4D;" d="M22.658-146.044c0-100.545,81.51-182.044,182.044-182.044
				c100.545,0,182.044,81.499,182.044,182.044C386.747-45.51,305.248,36,204.703,36C104.169,36,22.658-45.51,22.658-146.044"/>
			<g>
				<path style="fill:#664500;" d="M175.189-83.467c0-15.713-10.194-28.444-22.756-28.444s-22.756,12.732-22.756,28.444
					c0,15.701,10.194,28.444,22.756,28.444S175.189-67.765,175.189-83.467"/>
				<path style="fill:#664500;" d="M295.725-94.844c0-15.713-10.183-28.444-22.756-28.444c-12.561,0-22.756,12.732-22.756,28.444
					c0,15.701,10.194,28.444,22.756,28.444C285.542-66.4,295.725-79.143,295.725-94.844"/>
				<path style="fill:#664500;" d="M109.937-36.055c-1.866,0.99-3.447,2.537-4.449,4.528c-2.458,4.881-0.455,10.547,4.471,12.663
					c48.538,20.821,87.598,0.489,89.236-0.387c4.927-2.628,6.918-8.511,4.449-13.13c-2.458-4.608-8.42-6.212-13.346-3.618
					c-1.399,0.728-32.222,16.293-71.43-0.535C115.945-37.774,112.645-37.5,109.937-36.055"/>
				<path style="fill:#664500;" d="M167.645-186.686c-1.547,1.445-2.685,3.334-3.14,5.53c-1.126,5.336,2.253,10.308,7.566,11.082
					c52.247,7.714,84.787-21.948,86.164-23.211c4.096-3.8,4.494-9.978,0.933-13.824c-3.55-3.823-9.728-3.846-13.813-0.068
					c-1.183,1.047-26.988,23.984-69.2,17.761C173.004-189.883,169.887-188.779,167.645-186.686"/>
				<path style="fill:#664500;" d="M232.362-78.722c-1.775,1.115-3.254,2.765-4.119,4.824c-2.128,5.029,0.262,10.559,5.313,12.334
					c49.846,17.476,87.438-5.461,89.02-6.451c4.722-2.958,6.303-8.954,3.538-13.403c-2.753-4.437-8.829-5.632-13.551-2.708
					c-1.365,0.831-31.039,18.443-71.305,4.324C238.256-80.85,234.979-80.349,232.362-78.722"/>
			</g>
			<path style="fill:#F4900C;" d="M196.465-363.724c0,0,14.393,4.676,16.259,15.383c1.968,11.048-7.1,13.278-7.1,13.278
				s11.844,2.367,13.335,15.656c1.399,12.516-9.808,15.508-9.808,15.508s11.036,4.551,11.56,17.51
				c0.432,10.911-11.321,16.247-11.321,16.247s57.321,13.881,63.204,15.246c5.871,1.377,15.03,7.009,12.174,19.285
				c-2.833,12.288-13.699,12.72-19.319,11.412c-5.621-1.32-76.732-17.829-101.262-23.541c-2.617-0.603-14.882-3.436-16.373-3.8
				c-6.144-1.445-8.932,1.263-4.608,5.825c5.791,6.098,9.478,12.846,10.775,24.041c1.354,11.787-2.64,26.328-4.927,31.96
				c-4.255,10.479-11.435,18.762-19.729,21.606c-12.948,4.437-22.141-3.652-17.545-17.761c6.872-21.106,2.378-38.4-9.478-48.845
				c-27.864-24.542-40.835-42.041-32.199-79.337c9.409-40.676,49.801-66.856,90.476-57.435
				C162.73-371.006,196.465-363.724,196.465-363.724"/>
		</g>
	</g>
</g>
<g>
</g>
<g>
</g>
<g>
</g>
<g>
</g>
<g>
</g>
<g>
</g>
<g>
</g>
<g>
</g>
<g>
</g>
<g>
</g>
<g>
</g>
<g>
</g>
<g>
</g>
<g>
</g>
<g>
</g>
</svg>
