<?xml version="1.0" encoding="iso-8859-1"?>
<!-- Generator: Adobe Illustrator 19.0.0, SVG Export Plug-In . SVG Version: 6.00 Build 0)  -->
<svg version="1.1" id="Layer_1" xmlns="http://www.w3.org/2000/svg" xmlns:xlink="http://www.w3.org/1999/xlink" x="0px" y="0px"
	 viewBox="0 0 473.935 473.935" style="enable-background:new 0 0 473.935 473.935;" xml:space="preserve">
<circle style="fill:#FFC10E;" cx="236.967" cy="236.967" r="236.967"/>
<g>
	<circle style="fill:#333333;" cx="164.938" cy="192.665" r="37.216"/>
	<circle style="fill:#333333;" cx="305.667" cy="192.665" r="37.216"/>
	<path style="fill:#333333;" d="M318.258,101.309c-28.673,12.707-57.35,25.418-86.024,38.125c3.147,0,6.297,0,9.441,0
		c-28.673-12.707-57.343-25.418-86.016-38.125c-10.926-4.842-20.453,11.274-9.441,16.153c15.469,6.855,30.933,13.714,46.398,20.569
		c9.927,4.4,19.858,8.801,29.785,13.201c4.034,1.789,9.961,5.635,14.556,5.635c4.595,0,10.522-3.847,14.556-5.635
		c9.927-4.4,19.858-8.801,29.788-13.201c15.469-6.855,30.937-13.714,46.402-20.569C338.707,112.583,329.18,96.467,318.258,101.309
		L318.258,101.309z"/>
	<path style="fill:#333333;" d="M105.245,326.856c86.387,0,172.777,0,259.164,0c12.067,0,12.067-18.709,0-18.709
		c-86.387,0-172.777,0-259.164,0C93.178,308.147,93.178,326.856,105.245,326.856L105.245,326.856z"/>
</g>
<g>
</g>
<g>
</g>
<g>
</g>
<g>
</g>
<g>
</g>
<g>
</g>
<g>
</g>
<g>
</g>
<g>
</g>
<g>
</g>
<g>
</g>
<g>
</g>
<g>
</g>
<g>
</g>
<g>
</g>
</svg>
