<?xml version="1.0"?>
<svg xmlns="http://www.w3.org/2000/svg" height="512px" viewBox="0 1 511 511.99915" width="512px" class=""><g><path d="m176.511719 256c0 44.101562 35.882812 79.980469 79.984375 79.980469 44.101562 0 79.980468-35.878907 79.980468-79.980469s-35.878906-79.980469-79.980468-79.980469c-44.101563 0-79.984375 35.878907-79.984375 79.980469zm119.972656 0c0 22.050781-17.9375 39.992188-39.988281 39.992188-22.050782 0-39.992188-17.941407-39.992188-39.992188s17.941406-39.992188 39.992188-39.992188c22.050781 0 39.988281 17.941407 39.988281 39.992188zm155.964844-59.984375c-33.074219 0-59.984375 26.90625-59.984375 59.984375s26.910156 59.984375 59.984375 59.984375c33.078125 0 59.988281-26.90625 59.988281-59.984375s-26.910156-59.984375-59.988281-59.984375zm0 79.980469c-11.023438 0-19.996094-8.96875-19.996094-19.996094 0-11.023438 8.972656-19.996094 19.996094-19.996094 11.027343 0 19.996093 8.972656 19.996093 19.996094 0 11.027344-8.96875 19.996094-19.996093 19.996094zm-391.910157-79.980469c-33.074218 0-59.984374 26.90625-59.984374 59.984375s26.910156 59.984375 59.984374 59.984375c33.078126 0 59.988282-26.90625 59.988282-59.984375s-26.910156-59.984375-59.988282-59.984375zm0 79.980469c-11.023437 0-19.996093-8.96875-19.996093-19.996094 0-11.023438 8.972656-19.996094 19.996093-19.996094 11.027344 0 19.996094 8.972656 19.996094 19.996094 0 11.027344-8.96875 19.996094-19.996094 19.996094zm-53.253906-104.570313c-14.496094-59.007812-5.667968-107.933593 25.519532-139.117187 34.484374-34.484375 90.660156-41.640625 158.179687-20.136719 21.566406 6.867187 43.566406 16.433594 65.507813 28.371094 21.945312-11.9375 43.949218-21.503907 65.511718-28.371094 67.519532-21.5 123.695313-14.347656 158.179688 20.136719 31.1875 31.183594 40.015625 80.109375 25.519531 139.117187-11.277344-7.128906-24.070313-12.0625-37.777344-14.203125 4.042969-18.257812 5.40625-35.320312 3.921875-50.152344-1.957031-19.570312-8.664062-35.210937-19.941406-46.484374-11.273438-11.273438-26.914062-17.984376-46.484375-19.941407-3.90625-.390625-7.972656-.585937-12.171875-.585937-17.746094 0-37.921875 3.46875-59.113281 10.21875-12.371094 3.941406-24.933594 8.890625-37.566407 14.773437 28.449219 19.316407 56.28125 42.375 82.390626 68.484375 10.546874 10.542969 20.585937 21.375 30.089843 32.410156-12.195312 5.898438-23.019531 14.210938-31.851562 24.304688-8.394531-9.65625-17.234375-19.160156-26.515625-28.4375-29.800782-29.800781-61.835938-55.246094-94.191406-75.109375-32.351563 19.863281-64.386719 45.304687-94.1875 75.109375-9.277344 9.277344-18.125 18.777344-26.523438 28.429688-8.832031-10.089844-19.652344-18.402344-31.847656-24.300782 9.507812-11.035156 19.550781-21.863281 30.09375-32.410156 26.109375-26.105469 53.941406-49.164062 82.390625-68.480469-12.632813-5.882812-25.195313-10.835937-37.566407-14.773437-26.203124-8.347656-50.855468-11.675782-71.285156-9.632813-19.570312 1.957031-35.210937 8.667969-46.484375 19.941407-11.277343 11.277343-17.984375 26.917968-19.941406 46.484374-1.484375 14.832032-.121094 31.894532 3.921875 50.152344-13.707031 2.140625-26.5 7.078125-37.777344 14.203125zm498.421875 169.148438c14.492188 59.007812 5.664063 107.933593-25.519531 139.117187-21.433594 21.433594-51.25 32.304688-86.949219 32.308594-21.75 0-45.675781-4.03125-71.234375-12.171875-21.5625-6.867187-43.5625-16.433594-65.507812-28.375-21.945313 11.941406-43.945313 21.507813-65.507813 28.375-25.554687 8.136719-49.488281 12.171875-71.234375 12.171875-35.707031 0-65.515625-10.875-86.949218-32.308594-31.1875-31.183594-40.015626-80.109375-25.519532-139.117187 11.277344 7.128906 24.070313 12.066406 37.777344 14.203125-4.042969 18.261718-5.40625 35.320312-3.921875 50.152344 1.957031 19.570312 8.664063 35.210937 19.941406 46.484374 11.273438 11.277344 26.914063 17.984376 46.484375 19.941407 20.429688 2.039062 45.082032-1.289063 71.285156-9.632813 12.375-3.941406 24.933594-8.890625 37.566407-14.773437-28.449219-19.316407-56.28125-42.375-82.390625-68.484375-10.542969-10.542969-20.585938-21.371094-30.089844-32.40625 12.195312-5.902344 23.015625-14.207032 31.847656-24.300782 8.398438 9.652344 17.242188 19.152344 26.519532 28.429688 29.804687 29.800781 61.835937 55.246094 94.191406 75.109375 32.351562-19.863281 64.386718-45.304687 94.1875-75.109375 9.28125-9.277344 18.125-18.777344 26.519531-28.433594 8.832031 10.09375 19.652344 18.402344 31.847656 24.304688-9.503906 11.035156-19.542969 21.863281-30.089843 32.410156-26.105469 26.105469-53.941407 49.164062-82.386719 68.480469 12.632812 5.882812 25.191406 10.832031 37.566406 14.773437 26.203125 8.347656 50.855469 11.675782 71.285156 9.632813 19.566407-1.957031 35.207031-8.664063 46.484375-19.941407 11.273438-11.273437 17.984375-26.914062 19.941406-46.484374 1.480469-14.832032.117188-31.890626-3.921874-50.152344 13.707031-2.140625 26.496093-7.078125 37.777343-14.203125zm0 0" data-original="#000000" class="active-path" data-old_color="#6B00FF" fill="#A000FF"/></g> </svg>
