<?xml version="1.0" encoding="iso-8859-1"?>
<!-- Generator: Adobe Illustrator 19.0.0, SVG Export Plug-In . SVG Version: 6.00 Build 0)  -->
<svg version="1.1" id="Capa_1" xmlns="http://www.w3.org/2000/svg" xmlns:xlink="http://www.w3.org/1999/xlink" x="0px" y="0px"
	 viewBox="0 0 54 54" style="enable-background:new 0 0 54 54;" xml:space="preserve">
<g>
	<path d="M46.414,26l7.293-7.293c0.391-0.391,0.391-1.023,0-1.414s-1.023-0.391-1.414,0L45,24.586l-7.293-7.293
		c-0.391-0.391-1.023-0.391-1.414,0s-0.391,1.023,0,1.414L43.586,26l-7.293,7.293c-0.391,0.391-0.391,1.023,0,1.414
		C36.488,34.902,36.744,35,37,35s0.512-0.098,0.707-0.293L45,27.414l7.293,7.293C52.488,34.902,52.744,35,53,35
		s0.512-0.098,0.707-0.293c0.391-0.391,0.391-1.023,0-1.414L46.414,26z"/>
	<path d="M26.894,4c-0.551,0-1.097,0.153-1.579,0.444c-0.046,0.027-0.09,0.059-0.13,0.093L11.634,16H1c-0.553,0-1,0.447-1,1v19
		c0,0.553,0.447,1,1,1h10.61l13.543,12.436c0.05,0.046,0.104,0.086,0.161,0.12C25.797,49.847,26.343,50,26.894,50
		C28.606,50,30,48.584,30,46.844V7.156C30,5.416,28.606,4,26.894,4z M13,35c0,0.553-0.447,1-1,1s-1-0.447-1-1v-4
		c0-0.553,0.447-1,1-1s1,0.447,1,1V35z M13,22c0,0.553-0.447,1-1,1s-1-0.447-1-1v-4c0-0.553,0.447-1,1-1s1,0.447,1,1V22z"/>
</g>
<g>
</g>
<g>
</g>
<g>
</g>
<g>
</g>
<g>
</g>
<g>
</g>
<g>
</g>
<g>
</g>
<g>
</g>
<g>
</g>
<g>
</g>
<g>
</g>
<g>
</g>
<g>
</g>
<g>
</g>
</svg>
