<?xml version="1.0" encoding="iso-8859-1"?>
<!-- Generator: Adobe Illustrator 19.1.0, SVG Export Plug-In . SVG Version: 6.00 Build 0)  -->
<svg version="1.1" id="Capa_1" xmlns="http://www.w3.org/2000/svg" xmlns:xlink="http://www.w3.org/1999/xlink" x="0px" y="0px"
	 viewBox="0 0 41.712 41.712" style="enable-background:new 0 0 41.712 41.712;" xml:space="preserve">
<path style="fill:#1E201D;" d="M31.586,21.8c0.444-0.444,0.444-1.143,0-1.587c-0.429-0.444-1.143-0.444-1.571,0l-8.047,8.032V1.706
	c0-0.619-0.492-1.127-1.111-1.127c-0.619,0-1.127,0.508-1.127,1.127v26.539l-8.031-8.032c-0.444-0.444-1.159-0.444-1.587,0
	c-0.444,0.444-0.444,1.143,0,1.587l9.952,9.952c0.429,0.429,1.143,0.429,1.587,0L31.586,21.8z M39.474,29.086
	c0-0.619,0.492-1.111,1.111-1.111c0.619,0,1.127,0.492,1.127,1.111v10.92c0,0.619-0.508,1.127-1.127,1.127H1.111
	C0.492,41.133,0,40.625,0,40.006v-10.92c0-0.619,0.492-1.111,1.111-1.111s1.127,0.492,1.127,1.111v9.809h37.236V29.086z"/>
<g>
</g>
<g>
</g>
<g>
</g>
<g>
</g>
<g>
</g>
<g>
</g>
<g>
</g>
<g>
</g>
<g>
</g>
<g>
</g>
<g>
</g>
<g>
</g>
<g>
</g>
<g>
</g>
<g>
</g>
</svg>
