<?xml version="1.0" encoding="iso-8859-1"?>
<!-- Generator: Adobe Illustrator 19.1.0, SVG Export Plug-In . SVG Version: 6.00 Build 0)  -->
<svg version="1.1" id="Capa_1" xmlns="http://www.w3.org/2000/svg" xmlns:xlink="http://www.w3.org/1999/xlink" x="0px" y="0px"
	 viewBox="0 0 41.301 41.301" style="enable-background:new 0 0 41.301 41.301;" xml:space="preserve">
<path style="fill:#1E201D;" d="M20.642,0c5.698,0,10.857,2.317,14.602,6.047c3.73,3.746,6.047,8.905,6.047,14.603
	c0,5.698-2.317,10.857-6.047,14.603c-3.746,3.73-8.904,6.047-14.602,6.047S9.786,38.983,6.056,35.253
	C2.31,31.507,0.008,26.349,0.008,20.65c0-5.698,2.301-10.857,6.047-14.603C9.786,2.317,14.944,0,20.642,0L20.642,0z M31.166,19.523
	c0.619,0,1.111,0.508,1.111,1.127c0,0.619-0.492,1.127-1.111,1.127H20.674h-0.032c-0.413,0-0.778-0.238-0.968-0.571l-0.016-0.016
	l0,0l-0.016-0.032l0,0v-0.016l0,0l-0.016-0.032l0,0l-0.016-0.032l0,0v-0.016l0,0l-0.016-0.032l0,0l-0.016-0.016l0,0v-0.032l0,0
	l-0.016-0.032l0,0v-0.016l0,0l-0.016-0.032l0,0v-0.032l0,0v-0.016v-0.016l-0.016-0.016l0,0v-0.032l0,0v-0.032l0,0V20.73l0,0v-0.016
	l0,0v-0.032l0,0V20.65l0,0V7.206c0-0.619,0.492-1.111,1.111-1.111c0.619,0,1.127,0.492,1.127,1.111v12.317H31.166z M33.657,7.635
	c-3.333-3.333-7.936-5.381-13.015-5.381S10.96,4.301,7.627,7.635C4.31,10.968,2.246,15.571,2.246,20.65
	c0,5.079,2.063,9.682,5.381,13.016c3.333,3.333,7.936,5.381,13.015,5.381s9.682-2.048,13.015-5.381
	c3.333-3.333,5.397-7.936,5.397-13.016C39.054,15.571,36.991,10.968,33.657,7.635L33.657,7.635z"/>
<g>
</g>
<g>
</g>
<g>
</g>
<g>
</g>
<g>
</g>
<g>
</g>
<g>
</g>
<g>
</g>
<g>
</g>
<g>
</g>
<g>
</g>
<g>
</g>
<g>
</g>
<g>
</g>
<g>
</g>
</svg>
