<?xml version="1.0" encoding="iso-8859-1"?>
<!-- Generator: Adobe Illustrator 19.1.0, SVG Export Plug-In . SVG Version: 6.00 Build 0)  -->
<svg version="1.1" id="Capa_1" xmlns="http://www.w3.org/2000/svg" xmlns:xlink="http://www.w3.org/1999/xlink" x="0px" y="0px"
	 viewBox="0 0 48.2 48.2" style="enable-background:new 0 0 48.2 48.2;" xml:space="preserve">
<path style="fill:#1E201D;" d="M0.996,12.738l45.902-7.714l0,0h0.032c0.111-0.016,0.222-0.016,0.333,0l0,0h0.016
	c0.016,0,0.048,0,0.063,0.016l0,0h0.016h0.016l0,0l0.032,0.016l0,0h0.016l0,0l0,0c0.016,0.016,0.032,0.016,0.048,0.016h0.016
	l0.016,0.016l0,0c0.032,0,0.048,0.016,0.079,0.032l0,0c0.048,0.032,0.111,0.063,0.159,0.095h0.016V5.23l0.016,0.016l0,0h0.016
	l0.016,0.016l0,0l0.016,0.016l0,0l0.016,0.016l0.032,0.016v0.016l0.016,0.016l0.016,0.016l0,0l0,0l0.016,0.016h0.016v0.016
	l0.016,0.016v0.016h0.016v0.016l0.016,0.016l0,0l0.016,0.016v0.016h0.016V5.5l0.016,0.016l0,0l0.016,0.016v0.016l0.016,0.016l0,0
	l0.016,0.016v0.016v0.016h0.016v0.016l0.016,0.016v0.016v0.016h0.016v0.016v0.016l0.016,0.016l0,0v0.016v0.016l0.016,0.016v0.016
	v0.016l0,0h0.016v0.032v0.016v0.016l0.016,0.016v0.032l0,0v0.032l0,0L48.2,5.961l0,0l0,0v0.032v0.016v0.016c0,0.048,0,0.111,0,0.175
	l0,0c0,0.032,0,0.063,0,0.079l0,0L48.184,6.31l0,0c0,0.016,0,0.032,0,0.048l0,0v0.016l-0.016,0.016l0,0v0.016v0.016v0.016h-0.016
	v0.016c0,0.016-0.016,0.032-0.016,0.063l0,0v0.016c-0.048,0.095-0.095,0.19-0.175,0.286l-0.016,0.016l0,0L18.312,42.737
	c-0.175,0.238-0.46,0.413-0.794,0.444c-0.619,0.063-1.159-0.397-1.222-1l-1.555-17.38L0.472,14.77
	c-0.508-0.365-0.619-1.063-0.27-1.571C0.393,12.929,0.694,12.77,0.996,12.738L0.996,12.738z M47.422,5.056
	c0.016,0.016,0.032,0.016,0.048,0.016 M42.279,10.183L16.995,24.801l1.286,14.46L42.279,10.183z M41.168,8.246L3.98,14.5
	l11.888,8.349L41.168,8.246z"/>
<g>
</g>
<g>
</g>
<g>
</g>
<g>
</g>
<g>
</g>
<g>
</g>
<g>
</g>
<g>
</g>
<g>
</g>
<g>
</g>
<g>
</g>
<g>
</g>
<g>
</g>
<g>
</g>
<g>
</g>
</svg>
