<?xml version="1.0" encoding="iso-8859-1"?>
<!-- Generator: Adobe Illustrator 19.0.0, SVG Export Plug-In . SVG Version: 6.00 Build 0)  -->
<svg version="1.1" id="Capa_1" xmlns="http://www.w3.org/2000/svg" xmlns:xlink="http://www.w3.org/1999/xlink" x="0px" y="0px"
	 viewBox="0 0 512 512" style="enable-background:new 0 0 512 512;" xml:space="preserve">
<g>
	<g>
		<circle style="fill:#FFF9BB;" cx="256" cy="256" r="256"/>
	</g>
	<g>
		<path style="fill:#FFEA96;" d="M9.828,326.205C42.414,330.871,79,336,79,336l45-42.75c-42.939,0-89.253-25.338-123.809-29.685
			C0.822,285.231,4.136,306.212,9.828,326.205z"/>
	</g>
	<g>
		<path style="fill:#FFEA96;" d="M247.333,306.5c-55.5,0,193.167,23.15,193.167,23.15l62.346-5.817
			c4.568-16.658,7.503-33.983,8.605-51.814C440.667,272.02,332,306.5,247.333,306.5z"/>
	</g>
	<g>
		<path style="fill:#D6EB76;" d="M4.56,304C27.036,422.43,131.029,512,256,512s228.965-89.57,251.44-208H4.56z"/>
	</g>
	<g>
		<path style="fill:#D6EB76;" d="M334.729,278.132c0-11.048-8.818-54.132-14.395-54.132c-0.317,0-0.646,0.176-0.982,0.442
			c-0.116,0.092-0.236,0.234-0.354,0.356c-0.222,0.229-0.444,0.491-0.67,0.817c-0.147,0.208-0.292,0.431-0.439,0.676
			c-0.208,0.348-0.419,0.744-0.63,1.162c-0.154,0.302-0.305,0.58-0.459,0.916c-0.022,0.049-0.044,0.085-0.068,0.136
			c0.002,0.003,0.004,0.008,0.004,0.008c-5.122,11.315-10.797,40.755-10.797,49.619c0,9.75,5.023,15.199,11.667,16.348l-0.001,0.001
			c0.083,0.014,0.171,0.009,0.255,0.022v13.543c0,1.366,1.108,2.474,2.475,2.474s2.475-1.108,2.475-2.474v-13.544
			C329.576,293.446,334.729,288.001,334.729,278.132z"/>
	</g>
	<g>
		<path style="fill:#D6EB76;" d="M90.888,288.801c0-7.409-5.913-36.301-9.653-36.301c-0.213,0-0.433,0.118-0.659,0.297
			c-0.078,0.061-0.158,0.157-0.238,0.238c-0.149,0.153-0.298,0.329-0.45,0.548c-0.099,0.14-0.196,0.289-0.294,0.454
			c-0.14,0.234-0.281,0.499-0.422,0.779c-0.103,0.202-0.205,0.389-0.308,0.614c-0.015,0.033-0.029,0.057-0.046,0.091
			c0.001,0.002,0.003,0.006,0.003,0.006c-3.435,7.588-7.241,27.33-7.241,33.274c0,6.538,3.369,10.192,7.824,10.963l-0.001,0
			c0.056,0.01,0.115,0.006,0.171,0.015v9.082c0,0.916,0.743,1.659,1.66,1.659c0.917,0,1.66-0.743,1.66-1.659v-9.082
			C87.432,299.07,90.888,295.419,90.888,288.801z"/>
	</g>
	<g>
		<path style="fill:#CCE16B;" d="M8.157,319.849C36.534,430.319,136.676,512,256,512c116.85,0,215.344-78.314,246.025-185.301
			C398.391,322.678,122.582,316.706,8.157,319.849z"/>
	</g>
	<g>
		<path style="fill:#CCE16B;" d="M47.665,315.897c-0.605,0-1.178,0.119-1.726,0.292c-1.737-2.497-4.618-4.139-7.891-4.139
			c-3.272,0-6.154,1.642-7.891,4.139c-0.548-0.173-1.12-0.292-1.726-0.292c-3.187,0-5.77,2.583-5.77,5.77h30.773
			C53.435,318.48,50.852,315.897,47.665,315.897z"/>
	</g>
	<g>
		<path style="fill:#CCE16B;" d="M471.638,328c0-5.422-4.396-9.818-9.818-9.818c-0.818,0-1.601,0.129-2.361,0.318
			c-2.562-2.767-6.194-4.526-10.262-4.526c-7.746,0-14.025,6.279-14.025,14.025H471.638z"/>
	</g>
	<g>
		<polygon style="fill:#FFFCEC;" points="176,328 88,328 88,259.2 128.001,235.2 176,259.2 		"/>
	</g>
	<g style="opacity:0.25;">
		<polygon style="fill:#FF8562;" points="88,263.289 88,277.281 132.32,250.688 176,276.897 176,262.904 150.621,247.676 
			130.657,237.694 		"/>
	</g>
	<g>
		<g>
			<polygon style="fill:#FF8562;" points="177.234,269.145 132.32,242.195 87.406,269.145 81.234,258.855 132.32,228.203 
				183.406,258.855 			"/>
		</g>
	</g>
	<g>
		<polygon style="fill:#FFFCEC;" points="312,237.25 216,189 176,214.25 176,328 312,328 		"/>
	</g>
	<g style="opacity:0.25;">
		<polygon style="fill:#FF8562;" points="176,213.451 176,227.873 216.328,200.987 312,252.5 312,238.875 215.672,187.003 		"/>
	</g>
	<g>
		<path style="fill:#FFEB97;" d="M300.152,130.182c-2.289,0-4.453,0.451-6.526,1.104c-6.568-9.442-17.464-15.65-29.838-15.65
			c-12.373,0-23.269,6.208-29.838,15.65c-2.073-0.654-4.237-1.104-6.526-1.104c-12.05,0-21.818,9.768-21.818,21.818H321.97
			C321.97,139.95,312.202,130.182,300.152,130.182z"/>
	</g>
	<g>
		<path style="fill:#FFF1A9;" d="M444.306,142.909c-1.431,0-2.783,0.282-4.079,0.69c-4.105-5.901-10.915-9.781-18.648-9.781
			c-7.733,0-14.543,3.88-18.648,9.781c-1.296-0.409-2.648-0.69-4.079-0.69c-7.531,0-13.636,6.105-13.636,13.636h72.726
			C457.943,149.014,451.837,142.909,444.306,142.909z"/>
	</g>
	<g>
		<path style="fill:#FFF1A9;" d="M228,108c0-15.464-12.536-28-28-28c-2.334,0-4.565,0.369-6.733,0.907
			C185.961,73.017,175.602,68,164,68c-22.091,0-40,17.909-40,40H228z"/>
	</g>
	<g>
		<path style="fill:#FFF1A9;" d="M262.46,88c0-9.657-7.828-17.485-17.485-17.485c-1.457,0-2.851,0.231-4.204,0.567
			c-4.562-4.927-11.031-8.06-18.276-8.06c-13.795,0-24.978,11.183-24.978,24.978H262.46z"/>
	</g>
	<g>
		<path style="fill:#FFF1A9;" d="M359.366,75.511c0-8.045-6.521-14.566-14.566-14.566c-1.214,0-2.375,0.192-3.503,0.472
			c-3.801-4.105-9.19-6.715-15.225-6.715c-11.492,0-20.809,9.316-20.809,20.809H359.366z"/>
	</g>
	<g>
		<path style="fill:#FFF1A9;" d="M415.576,145.182c0-6.323-5.126-11.449-11.449-11.449c-0.954,0-1.867,0.151-2.753,0.371
			c-2.987-3.226-7.223-5.277-11.967-5.277c-9.033,0-16.355,7.322-16.355,16.355H415.576z"/>
	</g>
	<g>
		<path style="fill:#FFEB97;" d="M87.378,164.489c0-9.657,7.828-17.485,17.485-17.485c1.457,0,2.851,0.231,4.204,0.567
			c4.562-4.927,11.031-8.06,18.276-8.06c13.795,0,24.978,11.183,24.978,24.978H87.378z"/>
	</g>
	<g>
		<path style="fill:#FFEB97;" d="M281.828,134.708c0-8.779,7.117-15.895,15.895-15.895c1.325,0,2.592,0.21,3.822,0.515
			c4.148-4.479,10.029-7.327,16.615-7.327c12.541,0,22.708,10.167,22.708,22.708H281.828z"/>
	</g>
	<g>
		<g>
			<g>
				<polygon style="fill:#FF8562;" points="317.156,246.667 216.328,192.378 171.328,222.378 164.672,212.393 215.672,178.393 
					322.844,236.104 				"/>
			</g>
		</g>
	</g>
	<g>
		<rect x="202.025" y="278.007" style="fill:#BF9672;" width="31.315" height="49.993"/>
	</g>
	<g>
		<g>
			<rect x="197.682" y="239.25" style="fill:#63A0B5;" width="40" height="26.5"/>
		</g>
		<g>
			<path style="fill:#4185A6;" d="M239.68,267.75h-44v-30.5h44V267.75z M199.68,263.75h36v-22.5h-36V263.75z"/>
		</g>
		<g>
			<rect x="215.68" y="239.25" style="fill:#4185A6;" width="4" height="26.5"/>
		</g>
	</g>
	<g>
		<g>
			<rect x="250.017" y="239.25" style="fill:#63A0B5;" width="40" height="26.5"/>
		</g>
		<g>
			<path style="fill:#4185A6;" d="M292.016,267.75h-44v-30.5h44V267.75z M252.016,263.75h36v-22.5h-36V263.75z"/>
		</g>
		<g>
			<rect x="268.016" y="239.25" style="fill:#4185A6;" width="4" height="26.5"/>
		</g>
	</g>
	<g>
		<g>
			<rect x="250.017" y="280" style="fill:#63A0B5;" width="40" height="26.5"/>
		</g>
		<g>
			<path style="fill:#4185A6;" d="M292.016,308.5h-44V278h44V308.5z M252.016,304.5h36V282h-36V304.5z"/>
		</g>
		<g>
			<rect x="268.016" y="280" style="fill:#4185A6;" width="4" height="26.5"/>
		</g>
	</g>
	<g>
		<g>
			<rect x="112.322" y="280" style="fill:#63A0B5;" width="40" height="26.5"/>
		</g>
		<g>
			<path style="fill:#4185A6;" d="M154.32,308.5h-44V278h44V308.5z M114.32,304.5h36V282h-36V304.5z"/>
		</g>
		<g>
			<rect x="130.32" y="280" style="fill:#4185A6;" width="4" height="26.5"/>
		</g>
	</g>
	<g>
		<g>
			<g>
				<path style="fill:#828240;" d="M369.446,329.651c-2.321,0-4.2-1.879-4.2-4.197v-45.205c0-2.318,1.879-4.197,4.2-4.197
					s4.2,1.879,4.2,4.197v45.205C373.646,327.771,371.767,329.651,369.446,329.651z"/>
			</g>
		</g>
		<g>
			<path style="fill:#69BE5D;" d="M399.225,268.525c0,22.854-13.333,34.326-29.78,34.326s-29.78-11.472-29.78-34.326
				c0-22.854,18.242-111.98,29.78-111.98S399.225,245.671,399.225,268.525z"/>
		</g>
		<g>
			<path style="fill:#9DC85C;" d="M369.445,156.545c-2.285,0-4.834,3.534-7.452,9.318c9.412,14.255,21.589,84.684,21.589,104.247
				c0,19.112-8.499,29.872-19.783,32.236c1.831,0.317,3.711,0.506,5.645,0.506c16.447,0,29.78-11.472,29.78-34.326
				C399.225,245.671,380.982,156.545,369.445,156.545z"/>
		</g>
	</g>
	<g>
		<g>
			<g>
				<path style="fill:#828240;" d="M413.214,329.651c-2.321,0-4.2-1.879-4.2-4.197v-45.205c0-2.318,1.879-4.197,4.2-4.197
					s4.2,1.879,4.2,4.197v45.205C417.414,327.771,415.535,329.651,413.214,329.651z"/>
			</g>
		</g>
		<g>
			<path style="fill:#69BE5D;" d="M437.637,274.698c0,18.744-10.935,28.153-24.424,28.153c-13.489,0-24.424-9.409-24.424-28.153
				s14.962-91.843,24.424-91.843S437.637,255.954,437.637,274.698z"/>
		</g>
		<g>
			<path style="fill:#9DC85C;" d="M413.213,182.855c-1.874,0-3.965,2.898-6.112,7.642c7.72,11.691,17.707,69.455,17.707,85.5
				c0,15.675-6.97,24.5-16.225,26.439c1.502,0.26,3.044,0.415,4.63,0.415c13.489,0,24.425-9.409,24.425-28.153
				C437.637,255.954,422.675,182.855,413.213,182.855z"/>
		</g>
	</g>
	<g>
		<path style="fill:#D6EB76;" d="M490.375,283.841c0-9.101-7.264-44.591-11.858-44.591c-0.261,0-0.532,0.145-0.809,0.364
			c-0.096,0.075-0.194,0.193-0.292,0.293c-0.183,0.188-0.366,0.404-0.552,0.673c-0.121,0.172-0.24,0.355-0.362,0.557
			c-0.172,0.287-0.345,0.613-0.519,0.957c-0.127,0.249-0.251,0.478-0.378,0.754c-0.018,0.041-0.036,0.07-0.056,0.112l0.005,0.009
			c-4.221,9.318-8.896,33.57-8.896,40.871c0,8.031,4.138,12.52,9.611,13.467l-0.001,0c0.069,0.012,0.141,0.008,0.21,0.019v11.156
			c0,1.125,0.913,2.038,2.039,2.038c1.126,0,2.039-0.912,2.039-2.038v-11.157C486.13,296.455,490.375,291.97,490.375,283.841z"/>
	</g>
	<g>
		<path style="fill:#D6EB76;" d="M76.97,286.617c0-8.154-6.508-39.95-10.624-39.95c-0.234,0-0.477,0.13-0.725,0.326
			c-0.086,0.068-0.174,0.172-0.262,0.262c-0.164,0.169-0.328,0.362-0.495,0.603c-0.109,0.154-0.215,0.318-0.324,0.499
			c-0.154,0.257-0.309,0.549-0.465,0.858c-0.113,0.223-0.225,0.428-0.339,0.676c-0.016,0.036-0.032,0.063-0.05,0.1l0.005,0.008
			c-3.782,8.348-7.97,30.076-7.97,36.618c0,7.196,3.707,11.217,8.611,12.065c-0.001,0,0,0-0.001,0
			c0.062,0.011,0.126,0.007,0.188,0.017v9.995c0,1.008,0.818,1.826,1.827,1.826s1.827-0.818,1.827-1.826v-9.996
			C73.167,297.919,76.97,293.9,76.97,286.617z"/>
	</g>
	<g>
		<path style="fill:#D6EB76;" d="M42.028,291.86c0-6.365-5.08-31.187-8.293-31.187c-0.183,0-0.372,0.101-0.566,0.255
			c-0.067,0.053-0.136,0.135-0.204,0.205c-0.128,0.132-0.256,0.283-0.386,0.471c-0.085,0.12-0.168,0.248-0.253,0.39
			c-0.12,0.201-0.241,0.429-0.363,0.669c-0.089,0.174-0.176,0.334-0.264,0.528c-0.013,0.028-0.025,0.049-0.039,0.078
			c0.001,0.002,0.003,0.005,0.003,0.005c-2.951,6.519-6.221,23.48-6.221,28.587c0,5.617,2.894,8.757,6.722,9.419l-0.001,0
			c0.048,0.008,0.099,0.005,0.147,0.013v7.803c0,0.787,0.638,1.425,1.426,1.425s1.426-0.638,1.426-1.425v-7.803
			C39.06,300.683,42.028,297.546,42.028,291.86z"/>
	</g>
	<g>
		<path style="fill:#D6EB76;" d="M471.638,279.705c0-10.511-8.389-51.502-13.696-51.502c-0.302,0-0.615,0.167-0.934,0.421
			c-0.111,0.087-0.224,0.222-0.337,0.338c-0.211,0.218-0.423,0.467-0.638,0.777c-0.14,0.198-0.278,0.41-0.418,0.644
			c-0.198,0.331-0.399,0.708-0.599,1.106c-0.146,0.287-0.29,0.552-0.436,0.871c-0.021,0.047-0.042,0.081-0.065,0.129
			c0.002,0.003,0.004,0.008,0.004,0.008c-4.873,10.765-10.273,38.775-10.273,47.209c0,9.276,4.779,14.461,11.101,15.554
			l-0.001,0.001c0.079,0.014,0.163,0.009,0.242,0.021v12.885c0,1.3,1.054,2.354,2.355,2.354c1.301,0,2.355-1.054,2.355-2.354
			v-12.886C466.736,294.275,471.638,289.095,471.638,279.705z"/>
	</g>
	<g>
		<path style="fill:#D0D75B;" d="M25.441,367.033C66.779,452.789,154.422,512,256,512c104.79,0,194.779-63.004,234.375-153.168
			C373.232,349.462,120.794,353.553,25.441,367.033z"/>
	</g>
	<g>
		<path style="fill:#D8C34A;" d="M426.797,446.582c-83.437-21.76-254.704-52.148-377.695-40.267C95.599,470.296,170.844,512,256,512
			C321.668,512,381.513,487.246,426.797,446.582z"/>
	</g>
	<g>
		<path style="fill:#D0B459;" d="M110.597,466.46C151.861,495.13,201.914,512,256,512c55.782,0,107.324-17.911,149.348-48.213
			C324.254,458.471,191.982,455.139,110.597,466.46z"/>
	</g>
	<g>
		<rect x="81.234" y="321.667" style="fill:#AB8240;" width="237.531" height="6.333"/>
	</g>
	<g>
		<circle style="fill:#D0D75B;" cx="183.406" cy="426.21" r="6.667"/>
	</g>
	<g>
		<circle style="fill:#D8C34A;" cx="211.016" cy="482.833" r="6.667"/>
	</g>
	<g>
		<circle style="fill:#D8C34A;" cx="299.271" cy="489.5" r="6.667"/>
	</g>
	<g>
		<circle style="fill:#D0B459;" cx="329.51" cy="446.21" r="6.667"/>
	</g>
	<g>
		<circle style="fill:#D0D75B;" cx="263.788" cy="478.774" r="6.667"/>
	</g>
	<g>
		<circle style="fill:#D0D75B;" cx="285.938" cy="437.333" r="6.667"/>
	</g>
	<g>
		<circle style="fill:#D0B459;" cx="237.949" cy="439.543" r="6.667"/>
	</g>
	<g>
		<circle style="fill:#CCE16B;" cx="171.339" cy="386.667" r="4"/>
	</g>
	<g>
		<circle style="fill:#CCE16B;" cx="296.605" cy="400" r="4"/>
	</g>
	<g>
		<circle style="fill:#CCE16B;" cx="384.609" cy="417.333" r="4"/>
	</g>
	<g>
		<circle style="fill:#D8C34A;" cx="357.993" cy="378.667" r="4"/>
	</g>
	<g>
		<circle style="fill:#D8C34A;" cx="250.017" cy="370.667" r="4"/>
	</g>
	<g>
		<circle style="fill:#D0B459;" cx="132" cy="439.543" r="6.667"/>
	</g>
	<g>
		<path style="fill:#9DC85C;" d="M104.267,317.591c-1.582,0-3.077,0.311-4.509,0.763c-4.538-6.524-12.067-10.814-20.617-10.814
			s-16.078,4.289-20.617,10.814c-1.433-0.452-2.928-0.763-4.509-0.763c-8.326,0-15.076,6.75-15.076,15.076h80.403
			C119.343,324.341,112.593,317.591,104.267,317.591z"/>
	</g>
	<g>
		<path style="fill:#9DC85C;" d="M132.322,332.593c0-7.478,6.062-13.54,13.54-13.54c1.129,0,2.208,0.178,3.256,0.439
			c3.533-3.815,8.543-6.242,14.153-6.242c10.683,0,19.343,8.66,19.343,19.343H132.322z"/>
	</g>
	<g>
		<path style="fill:#69BE5D;" d="M94.601,317.591c-1.582,0-3.077,0.312-4.509,0.763c-3.652-5.25-9.284-8.926-15.783-10.21
			c-6.5,1.285-12.131,4.96-15.783,10.21c-1.433-0.452-2.928-0.763-4.509-0.763c-8.326,0-15.076,6.75-15.076,15.076h70.736
			C109.676,324.34,102.927,317.591,94.601,317.591z"/>
	</g>
	<g>
		<path style="fill:#69BE5D;" d="M159.887,313.613c-4.22,0.762-7.968,2.853-10.769,5.878c-1.048-0.26-2.127-0.438-3.256-0.438
			c-7.478,0-13.54,6.062-13.54,13.54h43.303C175.625,323.145,168.842,315.306,159.887,313.613z"/>
	</g>
	<g>
		<path style="fill:#9DC85C;" d="M390.051,332.593c0-8.674,7.031-15.705,15.705-15.705c1.309,0,2.561,0.207,3.776,0.509
			c4.098-4.426,9.909-7.24,16.416-7.24c12.391,0,22.436,10.045,22.436,22.436H390.051z"/>
	</g>
	<g>
		<path style="fill:#CCE16B;" d="M322.844,324.603c0-5.422,4.396-9.818,9.818-9.818c0.818,0,1.601,0.129,2.361,0.318
			c2.562-2.767,6.194-4.526,10.262-4.526c7.746,0,14.025,6.279,14.025,14.025H322.844z"/>
	</g>
	<g>
		<path style="fill:#69BE5D;" d="M422.023,310.578c-4.895,0.884-9.242,3.309-12.491,6.818c-1.216-0.301-2.468-0.509-3.776-0.509
			c-8.674,0-15.705,7.031-15.705,15.705h50.227C440.278,321.634,432.411,312.541,422.023,310.578z"/>
	</g>
</g>
<g>
</g>
<g>
</g>
<g>
</g>
<g>
</g>
<g>
</g>
<g>
</g>
<g>
</g>
<g>
</g>
<g>
</g>
<g>
</g>
<g>
</g>
<g>
</g>
<g>
</g>
<g>
</g>
<g>
</g>
</svg>
