<?xml version="1.0" encoding="iso-8859-1"?>
<!-- Generator: Adobe Illustrator 19.0.0, SVG Export Plug-In . SVG Version: 6.00 Build 0)  -->
<svg version="1.1" id="Capa_1" xmlns="http://www.w3.org/2000/svg" xmlns:xlink="http://www.w3.org/1999/xlink" x="0px" y="0px"
	 viewBox="0 0 512 512" style="enable-background:new 0 0 512 512;" xml:space="preserve">
<g>
	<g>
		<circle style="fill:#FFF9BB;" cx="256" cy="256" r="256"/>
	</g>
	<g>
		<path style="fill:#FFEA96;" d="M509.283,293.158C479.333,286.667,446.006,233.346,424,244c-22.721,11-42.618,28.727-53.182,28.727
			c-17.779,0-147.485-68.227-168.152-70.227c-16.222-1.57-98.788,57.5-114.558,57.5c-10.68,0-37.442-9.333-46.108-9.333
			c-9.081,0-23.333,14-41.723,16.286c1.248,29.621,7.549,57.919,18.031,84.103c47.493,9.399,129.339,24.636,150.378,23.929
			C198,374,330,401,410,384c25.69-5.459,52.399-11.432,76.807-17.128C497.82,343.988,505.494,319.203,509.283,293.158z"/>
	</g>
	<g>
		<path style="fill:#D6EB76;" d="M437.98,329.025c-0.732,0-1.423,0.144-2.086,0.353c-2.1-3.018-5.583-5.003-9.539-5.003
			c-1.842,0-3.564,0.466-5.109,1.231c-2.507-2.301-5.829-3.724-9.502-3.724c-4.804,0-9.034,2.41-11.584,6.076
			c-0.805-0.254-1.645-0.429-2.534-0.429c-0.179,0-0.346,0.042-0.523,0.053c-2.08-1.97-4.857-3.207-7.948-3.207
			c-3.956,0-7.439,1.984-9.539,5.003c-0.663-0.209-1.355-0.353-2.086-0.353c-3.852,0-6.975,3.123-6.975,6.975h18.6h18.6h26.578
			h10.622C444.956,332.148,441.833,329.025,437.98,329.025z"/>
	</g>
	<g>
		<rect x="65.292" y="301.5" style="fill:#D6C8A9;" width="122" height="34.5"/>
	</g>
	<g>
		<rect x="65.292" y="311.667" style="fill:#63A0B5;" width="64.36" height="15.476"/>
	</g>
	<g>
		<path style="fill:#FFFCE5;" d="M360,336c0,0-24-84.211-24-160h-88c0,75.789-24,160-24,160"/>
	</g>
	<g>
		<path style="fill:#E9DCB3;" d="M224,336h45.892C274.31,308.307,280,199.895,280,176h-32C248,251.79,224,336,224,336z"/>
	</g>
	<g>
		<g>
			<path style="fill:#FF8562;" d="M292,256c-6.617,0-12-5.383-12-12s5.383-12,12-12s12,5.383,12,12S298.617,256,292,256z"/>
		</g>
	</g>
	<g>
		<path style="fill:#FF8562;" d="M247.099,202.5h89.802c-0.257-3.999-0.472-8.002-0.622-12h-88.559
			C247.571,194.498,247.356,198.501,247.099,202.5z"/>
	</g>
	<g>
		<path style="fill:#D8C34A;" d="M12.82,336C46.422,438.191,142.563,512,256,512s209.578-73.809,243.18-176H12.82z"/>
	</g>
	<g>
		<path style="fill:#FFFFFF;" d="M248,336c0,0-24-84.211-24-160h-88c0,75.789-24,160-24,160"/>
	</g>
	<g>
		<path style="fill:#E9DCB3;" d="M112,336h45.892C162.31,308.307,168,199.895,168,176h-32C136,251.79,112,336,112,336z"/>
	</g>
	<g>
		<g>
			<path style="fill:#FF8562;" d="M180,256c-6.617,0-12-5.383-12-12s5.383-12,12-12s12,5.383,12,12S186.617,256,180,256z"/>
		</g>
	</g>
	<g>
		<path style="fill:#FF8562;" d="M135.099,202.5h89.802c-0.257-3.999-0.472-8.002-0.622-12h-88.559
			C135.571,194.498,135.356,198.501,135.099,202.5z"/>
	</g>
	<g>
		<rect x="262" y="301.5" style="fill:#D6C8A9;" width="122" height="34.5"/>
	</g>
	<g>
		<rect x="270.667" y="311.667" style="fill:#63A0B5;" width="113.333" height="15.476"/>
	</g>
	<g>
		<path style="fill:#69BE5D;" d="M399.224,325.371c-1.115,0-2.169,0.219-3.179,0.538c-3.2-4.6-8.508-7.624-14.535-7.624
			s-11.335,3.024-14.535,7.624c-1.01-0.319-2.064-0.538-3.179-0.538c-5.87,0-10.629,4.759-10.629,10.629h56.686
			C409.853,330.13,405.094,325.371,399.224,325.371z"/>
	</g>
	<g>
		<path style="fill:#D6EB76;" d="M484.343,329.655c-0.666,0-1.295,0.131-1.898,0.321c-1.91-2.746-5.079-4.551-8.677-4.551
			s-6.767,1.805-8.677,4.551c-0.603-0.19-1.232-0.321-1.898-0.321c-3.504,0-6.345,2.841-6.345,6.345h33.841
			C490.688,332.496,487.847,329.655,484.343,329.655z"/>
	</g>
	<g>
		<path style="fill:#D6EB76;" d="M55.446,328.696c-0.766,0-1.491,0.151-2.185,0.37c-2.199-3.161-5.846-5.239-9.989-5.239
			s-7.79,2.078-9.989,5.239c-0.694-0.219-1.418-0.37-2.185-0.37c-4.034,0-7.304,3.27-7.304,7.304H62.75
			C62.75,331.966,59.48,328.696,55.446,328.696z"/>
	</g>
	<g>
		<path style="fill:#69BE5D;" d="M158.057,325.371c-1.115,0-2.169,0.22-3.179,0.538c-3.2-4.6-8.507-7.624-14.535-7.624
			c-2.808,0-5.431,0.71-7.786,1.876c-3.821-3.507-8.883-5.675-14.479-5.675c-7.32,0-13.767,3.673-17.652,9.259
			c-1.227-0.387-2.507-0.653-3.861-0.653c-0.273,0-0.528,0.063-0.796,0.08c-3.169-3.002-7.401-4.886-12.111-4.886
			c-6.028,0-11.335,3.024-14.535,7.624c-1.01-0.318-2.064-0.538-3.179-0.538c-5.87,0-10.629,4.759-10.629,10.629h28.343H112h40.5
			h16.186C168.686,330.13,163.927,325.371,158.057,325.371z"/>
	</g>
	<g>
		<path style="fill:#D0B459;" d="M74.877,436.835C121.198,483.262,185.229,512,256,512c61.177,0,117.21-21.603,161.229-57.412
			C328.273,444.026,195.885,430.022,74.877,436.835z"/>
	</g>
	<g>
		<path style="fill:#D0D75B;" d="M463.47,405.852c15.258-21.101,27.407-44.6,35.71-69.852H12.82
			c9.398,28.582,23.834,54.823,42.027,77.97C277.333,379.333,372.094,390.454,463.47,405.852z"/>
	</g>
	<g>
		<path style="fill:#D6EB76;" d="M25.211,366.605C168,343,356,351.424,485.449,369.22c5.292-10.69,9.958-21.746,13.731-33.22H12.82
			C16.284,346.534,20.442,356.744,25.211,366.605z"/>
	</g>
	<g>
		<circle style="fill:#D8C34A;" cx="241.333" cy="486.852" r="6.667"/>
	</g>
	<g>
		<circle style="fill:#D8C34A;" cx="155.048" cy="463.95" r="6.667"/>
	</g>
	<g>
		<circle style="fill:#D0D75B;" cx="183.387" cy="417.333" r="6.667"/>
	</g>
	<g>
		<circle style="fill:#D6EB76;" cx="92.387" cy="384" r="4.279"/>
	</g>
	<g>
		<circle style="fill:#D8C34A;" cx="132.387" cy="373.499" r="4.279"/>
	</g>
	<g>
		<circle style="fill:#D6EB76;" cx="194.333" cy="384" r="4.279"/>
	</g>
	<g>
		<circle style="fill:#D8C34A;" cx="250.332" cy="367.333" r="4.279"/>
	</g>
	<g>
		<circle style="fill:#D8C34A;" cx="306.946" cy="379.721" r="4.279"/>
	</g>
	<g>
		<circle style="fill:#D6EB76;" cx="364.279" cy="371.613" r="4.279"/>
	</g>
	<g>
		<circle style="fill:#D8C34A;" cx="424" cy="384" r="4.279"/>
	</g>
	<g>
		<circle style="fill:#D0B459;" cx="241.333" cy="413.97" r="6.667"/>
	</g>
	<g>
		<circle style="fill:#D0D75B;" cx="374.843" cy="435.037" r="6.667"/>
	</g>
	<g>
		<circle style="fill:#D0D75B;" cx="296" cy="424" r="6.667"/>
	</g>
	<g>
		<circle style="fill:#D0B459;" cx="336.901" cy="417.333" r="6.667"/>
	</g>
	<g>
		<circle style="fill:#D0D75B;" cx="202.667" cy="460.185" r="6.667"/>
	</g>
	<g>
		<circle style="fill:#D0D75B;" cx="298.667" cy="473.519" r="6.667"/>
	</g>
	<g>
		<path style="fill:#FFEB97;" d="M402.787,132.048c-2.195,0-4.269,0.432-6.258,1.059c-6.298-9.053-16.745-15.006-28.61-15.006
			c-11.864,0-22.312,5.952-28.61,15.006c-1.988-0.627-4.063-1.059-6.258-1.059c-11.554,0-20.92,9.366-20.92,20.92h111.575
			C423.707,141.414,414.341,132.048,402.787,132.048z"/>
	</g>
	<g>
		<path style="fill:#FFF1A9;" d="M428.922,194.499c-1.2,0-2.335,0.236-3.422,0.579c-3.444-4.951-9.158-8.207-15.647-8.207
			s-12.202,3.255-15.647,8.207c-1.087-0.343-2.222-0.579-3.422-0.579c-6.319,0-11.441,5.122-11.441,11.441h61.021
			C440.363,199.621,435.241,194.499,428.922,194.499z"/>
	</g>
	<g>
		<path style="fill:#FFEB97;" d="M236.199,112.92c-1.458,0-2.837,0.287-4.158,0.704c-4.185-6.015-11.126-9.97-19.009-9.97
			s-14.824,3.955-19.009,9.97c-1.321-0.417-2.699-0.704-4.158-0.704c-7.677,0-13.9,6.223-13.9,13.9h74.133
			C250.099,119.144,243.876,112.92,236.199,112.92z"/>
	</g>
	<g>
		<path style="fill:#FFF1A9;" d="M323,87.386c0-9.085-7.365-16.45-16.45-16.45c-1.371,0-2.682,0.217-3.956,0.533
			c-4.292-4.635-10.379-7.583-17.194-7.583c-12.979,0-23.5,10.521-23.5,23.5H323z"/>
	</g>
	<g>
		<path style="fill:#FFF1A9;" d="M110.814,186.673c0-8.252-6.69-14.942-14.942-14.942c-1.246,0-2.436,0.197-3.593,0.484
			c-3.899-4.211-9.427-6.888-15.618-6.888c-11.789,0-21.346,9.557-21.346,21.346H110.814z"/>
	</g>
	<g>
		<path style="fill:#FFEB97;" d="M342.905,139.928c0-6.931-5.619-12.549-12.549-12.549c-1.046,0-2.046,0.165-3.018,0.407
			c-3.275-3.536-7.918-5.785-13.117-5.785c-9.901,0-17.928,8.027-17.928,17.928H342.905z"/>
	</g>
	<g>
		<path style="fill:#FFF1A9;" d="M277.75,73.386c0-9.085-7.365-16.45-16.45-16.45c-1.371,0-2.682,0.217-3.956,0.533
			c-4.292-4.635-10.379-7.583-17.194-7.583c-12.979,0-23.5,10.521-23.5,23.5H277.75z"/>
	</g>
	<g>
		<path style="fill:#FFEB97;" d="M190.054,117.671c0-10.838-8.786-19.625-19.625-19.625c-1.636,0-3.2,0.259-4.719,0.636
			c-5.121-5.53-12.381-9.046-20.513-9.046c-15.483,0-28.035,12.552-28.035,28.035H190.054z"/>
	</g>
</g>
<g>
</g>
<g>
</g>
<g>
</g>
<g>
</g>
<g>
</g>
<g>
</g>
<g>
</g>
<g>
</g>
<g>
</g>
<g>
</g>
<g>
</g>
<g>
</g>
<g>
</g>
<g>
</g>
<g>
</g>
</svg>
