<?xml version="1.0" encoding="iso-8859-1"?>
<!-- Generator: Adobe Illustrator 19.0.0, SVG Export Plug-In . SVG Version: 6.00 Build 0)  -->
<svg version="1.1" id="Capa_1" xmlns="http://www.w3.org/2000/svg" xmlns:xlink="http://www.w3.org/1999/xlink" x="0px" y="0px"
	 viewBox="0 0 512 512" style="enable-background:new 0 0 512 512;" xml:space="preserve">
<g>
	<g>
		<circle style="fill:#FFF9BB;" cx="256" cy="256" r="256"/>
	</g>
	<g>
		<path style="fill:#FFEA96;" d="M275,330.012c-18,0-110-74.012-147-74.012S12,308.219,12,308.219l165.555,76.871l103.779-12.118
			L275,330.012z"/>
	</g>
	<g>
		<g>
			<path style="fill:#B8AB90;" d="M288,224h-96v16h8v64c0,4.422,3.578,8,8,8s8-3.578,8-8v-64h16v64c0,4.422,3.578,8,8,8s8-3.578,8-8
				v-64h16v64c0,4.422,3.578,8,8,8s8-3.578,8-8v-64h8V224z"/>
		</g>
		<g>
			<path style="fill:#B8AB90;" d="M96.664,224v16H104v64c0,4.422,3.578,8,8,8s8-3.578,8-8v-64h16v64c0,4.422,3.578,8,8,8
				s8-3.578,8-8v-64h7.336v-16H96.664z"/>
		</g>
	</g>
	<g>
		<path style="fill:#B09B81;" d="M97.07,337.573h185.597v-31.328c0-0.552-0.448-1-1-1H98.07c-0.552,0-1,0.448-1,1V337.573z"/>
	</g>
	<g>
		<path style="fill:#FFEA96;" d="M499.18,336c5.836-17.749,9.808-36.337,11.63-55.562c-18.796,3.399-27.515,26.703-47.727,15.562
			c-12.523-6.903-53.339,40-87.083,40H499.18z"/>
	</g>
	<g>
		<path style="fill:#D0D75B;" d="M402.348,337.988c-31.656,3.329-61.806-0.265-93.348,1.262c-8.705,0.421-15.895-1.549-21.646-5.063
			H87V371h397.7c4.974-9.871,9.183-20.171,12.869-30.719C465.35,338.311,434.662,334.589,402.348,337.988z"/>
	</g>
	<g>
		<path style="fill:#D6EB76;" d="M499.723,334.381H275v9.783h221.151C497.35,340.907,498.655,337.701,499.723,334.381z"/>
	</g>
	<g>
		<path style="fill:#D0D75B;" d="M408.769,334.973c0-4.28-3.416-20.973-5.577-20.973c-0.194,0-0.4,0.175-0.611,0.423
			c-0.041,0.049-0.082,0.093-0.123,0.15c-0.21,0.287-0.425,0.662-0.644,1.142c-0.006,0.013-0.011,0.018-0.017,0.03
			c0.001,0.001,0.001,0.004,0.001,0.004c-1.985,4.384-4.183,15.79-4.183,19.224c0,3.841,2.047,5.868,4.686,6.264
			c-0.059,0.015-0.106,0.058-0.166,0.071c0.088,0.015,0.182,0.013,0.271,0.024v4.693h1.574v-4.768
			C406.669,340.902,408.769,338.866,408.769,334.973z"/>
	</g>
	<g>
		<path style="fill:#938C82;" d="M83.737,360.328H296V329c0-0.552-0.448-1-1-1H84.737c-0.552,0-1,0.448-1,1V360.328z"/>
	</g>
	<g>
		<g>
			<path style="fill:#828240;" d="M384.403,368.497v-29.106c0-1.493-1.211-2.705-2.707-2.705s-2.707,1.211-2.707,2.705v29.106
				H384.403z"/>
		</g>
		<g>
			<path style="fill:#69BE5D;" d="M400.886,330.47c0,14.728-8.592,22.121-19.192,22.121s-19.192-7.393-19.192-22.121
				c0-14.728,11.756-72.165,19.192-72.165C389.13,258.305,400.886,315.742,400.886,330.47z"/>
		</g>
		<g>
			<path style="fill:#9DC85C;" d="M381.695,258.305c-1.473,0-3.116,2.277-4.802,6.005c6.066,9.186,13.913,54.574,13.913,67.181
				c0,12.317-5.477,19.251-12.749,20.774c1.18,0.204,2.392,0.326,3.638,0.326c10.599,0,19.192-7.393,19.192-22.121
				S389.13,258.305,381.695,258.305z"/>
		</g>
	</g>
	<g>
		<path style="fill:#D0D75B;" d="M440.352,331.952c0-5.451-4.35-26.707-7.102-26.707c-0.247,0-0.51,0.222-0.778,0.538
			c-0.052,0.062-0.104,0.118-0.157,0.191c-0.268,0.366-0.541,0.843-0.82,1.454c-0.007,0.016-0.014,0.022-0.022,0.039
			c0.001,0.001,0.002,0.005,0.002,0.005c-2.527,5.583-5.327,20.107-5.327,24.48c0,4.891,2.607,7.472,5.967,7.976
			c-0.075,0.019-0.135,0.074-0.211,0.09c0.112,0.019,0.231,0.016,0.345,0.031v5.976h2.004v-6.072
			C437.678,339.501,440.352,336.908,440.352,331.952z"/>
	</g>
	<g>
		<path style="fill:#D0D75B;" d="M478.852,331.952c0-5.451-4.35-26.707-7.102-26.707c-0.247,0-0.51,0.222-0.778,0.538
			c-0.052,0.062-0.104,0.118-0.157,0.191c-0.268,0.366-0.541,0.843-0.82,1.454c-0.007,0.016-0.014,0.022-0.022,0.039
			c0.001,0.001,0.002,0.005,0.002,0.005c-2.527,5.583-5.327,20.107-5.327,24.48c0,4.891,2.607,7.472,5.967,7.976
			c-0.075,0.019-0.135,0.074-0.211,0.09c0.112,0.019,0.231,0.016,0.345,0.031v5.976h2.004v-6.072
			C476.178,339.501,478.852,336.908,478.852,331.952z"/>
	</g>
	<g>
		<path style="fill:#D0D75B;" d="M455.077,334.973c0-4.28-3.416-20.973-5.578-20.973c-0.194,0-0.4,0.175-0.611,0.423
			c-0.041,0.049-0.081,0.093-0.123,0.15c-0.21,0.287-0.425,0.662-0.644,1.142c-0.006,0.013-0.011,0.018-0.017,0.03l0.002,0.005
			c-1.986,4.383-4.184,15.789-4.184,19.223c0,3.841,2.047,5.868,4.686,6.264c-0.059,0.015-0.106,0.058-0.166,0.071
			c0.088,0.015,0.182,0.013,0.271,0.024v4.693h1.574v-4.768C452.978,340.902,455.077,338.866,455.077,334.973z"/>
	</g>
	<g>
		<path style="fill:#D0D75B;" d="M482.905,334.973c0-4.28-3.416-20.973-5.577-20.973c-0.194,0-0.4,0.175-0.611,0.423
			c-0.041,0.049-0.081,0.093-0.123,0.15c-0.21,0.287-0.425,0.662-0.644,1.142c-0.006,0.013-0.011,0.018-0.017,0.03
			c0.001,0.001,0.001,0.004,0.001,0.004c-1.985,4.384-4.183,15.79-4.183,19.224c0,3.841,2.047,5.868,4.686,6.264
			c-0.059,0.015-0.106,0.058-0.166,0.071c0.088,0.015,0.182,0.013,0.271,0.024v4.693h1.574v-4.768
			C480.805,340.902,482.905,338.866,482.905,334.973z"/>
	</g>
	<g>
		<path style="fill:#D0B459;" d="M256,512c101.216,0,188.691-58.753,230.238-144.004C445.315,367.829,108.8,362.061,3.52,298.18
			C23.64,419.485,128.99,512,256,512z"/>
	</g>
	<g>
		<path style="fill:#FFEB97;" d="M276.812,130.5c0-15.464,12.536-28,28-28c2.334,0,4.565,0.369,6.733,0.907
			c7.306-7.89,17.666-12.907,29.267-12.907c22.091,0,40,17.909,40,40H276.812z"/>
	</g>
	<g>
		<path style="fill:#FFEB97;" d="M335.45,143.46c0-10.021,8.124-18.144,18.144-18.144c1.512,0,2.958,0.239,4.363,0.588
			c4.734-5.113,11.447-8.364,18.965-8.364c14.315,0,25.92,11.605,25.92,25.92H335.45z"/>
	</g>
	<g>
		<path style="fill:#FFF1A9;" d="M351.195,188.5c0-8.803,7.136-15.938,15.938-15.938c1.329,0,2.599,0.21,3.833,0.516
			c4.159-4.491,10.056-7.347,16.66-7.347c12.575,0,22.769,10.194,22.769,22.769H351.195z"/>
	</g>
	<g>
		<path style="fill:#FFEB97;" d="M469,241.333c0-10.156-8.233-18.39-18.39-18.39c-1.533,0-2.998,0.242-4.422,0.596
			c-4.799-5.182-11.602-8.477-19.222-8.477c-14.509,0-26.271,11.762-26.271,26.271H469z"/>
	</g>
	<g>
		<path style="fill:#FFEB97;" d="M104.51,118.153c0-9.282,7.412-16.806,16.555-16.806c1.38,0,2.699,0.222,3.981,0.545
			c4.32-4.736,10.445-7.747,17.304-7.747c13.061,0,23.65,10.749,23.65,24.009H104.51z"/>
	</g>
	<g>
		<path style="fill:#FFEB97;" d="M232,161.731c-2.518,0-4.898,0.496-7.179,1.215c-7.225-10.386-19.21-17.215-32.821-17.215
			s-25.596,6.829-32.821,17.215c-2.281-0.719-4.661-1.215-7.179-1.215c-13.255,0-24,10.745-24,24h128
			C256,172.476,245.255,161.731,232,161.731z"/>
	</g>
	<g>
		<path style="fill:#FFF1A9;" d="M203.991,78.855h72.821c0-7.541-6.113-13.654-13.654-13.654c-1.433,0-2.786,0.282-4.084,0.691
			c-4.11-5.909-10.929-9.794-18.672-9.794c-1.171,0-2.27,0.251-3.393,0.423c-3.5-5.116-9.376-8.48-16.043-8.48
			c-5.637,0-10.671,2.438-14.221,6.271c-1.053-0.261-2.138-0.441-3.271-0.441c-7.514,0-13.605,6.091-13.605,13.605h20.246
			C206.427,69.922,203.991,74.101,203.991,78.855z"/>
	</g>
	<g>
		<g>
			<path style="fill:#828240;" d="M345.941,366.191v-40.975c0-2.103-1.705-3.808-3.811-3.808s-3.811,1.705-3.811,3.808v40.975
				H345.941z"/>
		</g>
		<g>
			<path style="fill:#69BE5D;" d="M369.146,312.658c0,20.735-12.096,31.142-27.018,31.142s-27.018-10.408-27.018-31.142
				c0-20.735,16.55-101.594,27.018-101.594C352.596,211.064,369.146,291.923,369.146,312.658z"/>
		</g>
		<g>
			<path style="fill:#9DC85C;" d="M342.129,211.063c-2.073,0-4.386,3.206-6.76,8.454c8.539,12.933,19.587,76.829,19.587,94.578
				c0,17.34-7.711,27.102-17.948,29.246c1.661,0.288,3.367,0.459,5.122,0.459c14.922,0,27.018-10.408,27.018-31.142
				S352.596,211.063,342.129,211.063z"/>
		</g>
	</g>
	<g>
		<path style="fill:#D8C34A;" d="M486.238,367.996C445.315,367.829,108.8,362.061,3.52,298.18c1.312,7.907,3.004,15.685,5.022,23.33
			c130.235,83.094,314.385,98.852,434.333,109.233C460.245,412.171,474.977,391.103,486.238,367.996z"/>
	</g>
	<g>
		<circle style="fill:#D8C34A;" cx="177.555" cy="427.333" r="6.667"/>
	</g>
	<g>
		<circle style="fill:#D8C34A;" cx="238.212" cy="479.333" r="6.667"/>
	</g>
	<g>
		<circle style="fill:#D8C34A;" cx="288" cy="453.333" r="6.667"/>
	</g>
	<g>
		<circle style="fill:#D0D75B;" cx="145.555" cy="450.667" r="6.667"/>
	</g>
	<g>
		<circle style="fill:#D0D75B;" cx="233.333" cy="437.409" r="6.667"/>
	</g>
	<g>
		<circle style="fill:#D0D75B;" cx="321.777" cy="475.333" r="6.667"/>
	</g>
	<g>
		<circle style="fill:#D0B459;" cx="281.333" cy="385.09" r="4.475"/>
	</g>
	<g>
		<circle style="fill:#D0D75B;" cx="319.586" cy="398.423" r="4.475"/>
	</g>
	<g>
		<circle style="fill:#D0D75B;" cx="362.503" cy="396.232" r="4.475"/>
	</g>
	<g>
		<circle style="fill:#D0B459;" cx="400.886" cy="409.565" r="4.475"/>
	</g>
	<g>
		<circle style="fill:#D0D75B;" cx="231.142" cy="389.565" r="4.475"/>
	</g>
	<g>
		<circle style="fill:#D0B459;" cx="159.336" cy="368.497" r="4.475"/>
	</g>
	<g>
		<circle style="fill:#D0D75B;" cx="96.664" cy="398.423" r="6.667"/>
	</g>
</g>
<g>
</g>
<g>
</g>
<g>
</g>
<g>
</g>
<g>
</g>
<g>
</g>
<g>
</g>
<g>
</g>
<g>
</g>
<g>
</g>
<g>
</g>
<g>
</g>
<g>
</g>
<g>
</g>
<g>
</g>
</svg>
