<?xml version="1.0" encoding="iso-8859-1"?>
<!-- Generator: Adobe Illustrator 19.0.0, SVG Export Plug-In . SVG Version: 6.00 Build 0)  -->
<svg version="1.1" id="Capa_1" xmlns="http://www.w3.org/2000/svg" xmlns:xlink="http://www.w3.org/1999/xlink" x="0px" y="0px"
	 viewBox="0 0 512 512" style="enable-background:new 0 0 512 512;" xml:space="preserve">
<g>
	<g>
		<circle style="fill:#FFF9BB;" cx="256" cy="256" r="256"/>
	</g>
	<g>
		<path style="fill:#FFEB97;" d="M381.989,68.886c-1.698,0-3.302,0.334-4.84,0.819c-4.871-7.003-12.952-11.607-22.129-11.607
			c-9.177,0-17.258,4.604-22.129,11.607c-1.538-0.485-3.142-0.819-4.84-0.819c-8.937,0-16.182,7.245-16.182,16.182h86.302
			C398.171,76.131,390.926,68.886,381.989,68.886z"/>
	</g>
	<g>
		<path style="fill:#FFF1A9;" d="M303.302,142.694c-1.368,0-2.661,0.269-3.901,0.66c-3.926-5.643-10.438-9.354-17.834-9.354
			c-7.396,0-13.908,3.71-17.834,9.354c-1.239-0.391-2.532-0.66-3.901-0.66c-7.202,0-13.041,5.838-13.041,13.041h69.549
			C316.343,148.532,310.504,142.694,303.302,142.694z"/>
	</g>
	<g>
		<path style="fill:#FFEB97;" d="M155.056,88.179c0-15.963,12.941-28.903,28.903-28.903c2.409,0,4.713,0.381,6.95,0.936
			c7.542-8.145,18.235-13.324,30.211-13.324c22.804,0,41.29,18.486,41.29,41.29H155.056z"/>
	</g>
	<g>
		<path style="fill:#FFEB97;" d="M215.443,102.726c0-12.152,9.675-22.004,21.61-22.004c1.801,0,3.523,0.29,5.196,0.713
			c5.639-6.201,13.634-10.143,22.588-10.143c17.049,0,30.871,14.074,30.871,31.434H215.443z"/>
	</g>
	<g>
		<path style="fill:#FFF1A9;" d="M200.985,139.05c0-6.076,4.838-11.002,10.805-11.002c0.901,0,1.762,0.145,2.598,0.356
			c2.819-3.1,6.817-5.072,11.294-5.072c8.525,0,15.435,7.037,15.435,15.717H200.985z"/>
	</g>
	<g>
		<path style="fill:#FFEA96;" d="M512,256c0-21.093-2.603-41.57-7.414-61.18l-2.912-1.781c-94.341,0-181.341,62.961-292.341,62.961
			c-90.437,0,155.709,10.33,302.385,11.149C511.877,263.449,512,259.739,512,256z"/>
	</g>
	<g>
		<path style="fill:#FFEB97;" d="M0.959,256c0-21.093,2.603-41.57,7.414-61.18l2.912-1.781c94.341,0,100.387,62.961,211.387,62.961
			c90.438,0-74.755,10.33-221.431,11.149C1.082,263.449,0.959,259.739,0.959,256z"/>
	</g>
	<g>
		<g>
			<g>
				<path style="fill:#828240;" d="M168.079,264.117c-1.887,0-3.416-1.528-3.416-3.413v-36.764c0-1.885,1.528-3.413,3.416-3.413
					s3.416,1.528,3.416,3.413v36.764C171.495,262.589,169.967,264.117,168.079,264.117z"/>
			</g>
		</g>
		<g>
			<path style="fill:#69BE5D;" d="M192.298,214.405c0,18.587-10.843,27.917-24.219,27.917s-24.219-9.33-24.219-27.917
				s14.836-91.072,24.219-91.072S192.298,195.818,192.298,214.405z"/>
		</g>
		<g>
			<path style="fill:#9DC85C;" d="M168.078,123.333c-1.858,0-3.932,2.874-6.06,7.578c7.655,11.593,17.558,68.872,17.558,84.782
				c0,15.544-6.912,24.295-16.089,26.217c1.489,0.258,3.018,0.411,4.591,0.411c13.376,0,24.22-9.33,24.22-27.917
				S177.461,123.333,168.078,123.333z"/>
		</g>
	</g>
	<g>
		<path style="fill:#D6EB76;" d="M256,512c141.385,0,256-114.615,256-256H0C0,397.385,114.615,512,256,512z"/>
	</g>
	<g>
		<path style="fill:#CCE16B;" d="M43.338,291.396c-65.347,9.264,134.11,46.806,134.11,46.806s292.612,27.512,301.219,27.512
			c1.422,0,4.378,0.463,8.17,1.091c12.413-25.813,20.608-54.031,23.73-83.761C385.333,308,246,262.667,43.338,291.396z"/>
	</g>
	<g>
		<path style="fill:#D0D75B;" d="M256,512c116.391,0,214.575-77.701,245.674-184.041c-199.883-0.868-316.766-55.612-498.662-32.622
			C21.938,418.046,127.993,512,256,512z"/>
	</g>
	<g>
		<path style="fill:#D8C34A;" d="M14.825,341.925c17.598,49.386,49.932,91.744,91.709,121.85l338.887-35.568
			c18.691-20.548,34.041-44.173,45.3-69.992C338.928,354.524,125.569,328.743,14.825,341.925z"/>
	</g>
	<g>
		<path style="fill:#D0B459;" d="M256,512c102.109,0,190.193-59.809,231.274-146.286c-153.878,0-304.532,0.122-436.266,43.632
			C97.699,471.667,172.135,512,256,512z"/>
	</g>
	<g>
		<g>
			<g>
				<path style="fill:#828240;" d="M360.002,277.5c-2.749,0-4.976-2.227-4.976-4.972v-53.555c0-2.746,2.227-4.972,4.976-4.972
					c2.75,0,4.976,2.227,4.976,4.972v53.555C364.978,275.273,362.751,277.5,360.002,277.5z"/>
			</g>
		</g>
		<g>
			<path style="fill:#69BE5D;" d="M395.281,205.083c0,27.076-15.796,40.667-35.281,40.667c-19.485,0-35.281-13.591-35.281-40.667
				S346.331,72.416,360,72.416C373.669,72.416,395.281,178.007,395.281,205.083z"/>
		</g>
		<g>
			<path style="fill:#9DC85C;" d="M360,72.416c-2.707,0-5.728,4.187-8.828,11.04c11.151,16.888,25.578,100.328,25.578,123.504
				c0,22.643-10.069,35.391-23.438,38.191c2.169,0.375,4.397,0.599,6.688,0.599c19.485,0,35.281-13.591,35.281-40.667
				S373.669,72.416,360,72.416z"/>
		</g>
	</g>
	<g>
		<g>
			<g>
				<path style="fill:#828240;" d="M112.003,267.45c-2.424,0-4.386-1.963-4.386-4.383v-47.21c0-2.42,1.963-4.383,4.386-4.383
					s4.386,1.963,4.386,4.383v47.21C116.39,265.488,114.427,267.45,112.003,267.45z"/>
			</g>
		</g>
		<g>
			<path style="fill:#69BE5D;" d="M143.102,203.614c0,23.868-13.924,35.849-31.101,35.849s-31.101-11.981-31.101-35.849
				S99.952,86.666,112.001,86.666S143.102,179.746,143.102,203.614z"/>
		</g>
		<g>
			<path style="fill:#9DC85C;" d="M112.002,86.666c-2.386,0-5.049,3.69-7.782,9.732c9.83,14.887,22.547,88.44,22.547,108.871
				c0,19.96-8.876,31.197-20.66,33.666c1.912,0.331,3.876,0.528,5.896,0.528c17.177,0,31.101-11.98,31.101-35.849
				S124.051,86.666,112.002,86.666z"/>
		</g>
	</g>
	<g>
		<path style="fill:#FFF1A9;" d="M460.203,101.637c-0.059,0-0.115-0.011-0.174-0.011c-10.06,0-18.919,5.047-24.259,12.724
			c-1.686-0.532-3.445-0.898-5.306-0.898c-9.797,0-17.739,7.942-17.739,17.739h66.776
			C473.732,120.882,467.294,111.002,460.203,101.637z"/>
	</g>
	<g>
		<circle style="fill:#D8C34A;" cx="177.158" cy="456.933" r="6.667"/>
	</g>
	<g>
		<circle style="fill:#D8C34A;" cx="197.504" cy="425.667" r="6.667"/>
	</g>
	<g>
		<circle style="fill:#D8C34A;" cx="294.667" cy="420.989" r="6.667"/>
	</g>
	<g>
		<circle style="fill:#D8C34A;" cx="324.719" cy="395.713" r="6.667"/>
	</g>
	<g>
		<circle style="fill:#D0D75B;" cx="266.106" cy="470.442" r="6.667"/>
	</g>
	<g>
		<circle style="fill:#D0D75B;" cx="232.667" cy="414.322" r="6.667"/>
	</g>
	<g>
		<circle style="fill:#D6EB76;" cx="100.503" cy="303.783" r="3.717"/>
	</g>
	<g>
		<circle style="fill:#CCE16B;" cx="51.008" cy="317.471" r="3.717"/>
	</g>
	<g>
		<circle style="fill:#CCE16B;" cx="146.819" cy="324.138" r="3.717"/>
	</g>
	<g>
		<circle style="fill:#CCE16B;" cx="80.901" cy="321.188" r="3.717"/>
	</g>
	<g>
		<circle style="fill:#D6EB76;" cx="197.504" cy="327.854" r="3.717"/>
	</g>
	<g>
		<circle style="fill:#D6EB76;" cx="177.158" cy="311.217" r="3.717"/>
	</g>
	<g>
		<circle style="fill:#D6EB76;" cx="263.156" cy="321.188" r="3.717"/>
	</g>
	<g>
		<circle style="fill:#CCE16B;" cx="239.333" cy="327.854" r="3.717"/>
	</g>
	<g>
		<circle style="fill:#CCE16B;" cx="291.717" cy="327.854" r="3.717"/>
	</g>
	<g>
		<circle style="fill:#D6EB76;" cx="355.026" cy="338.203" r="3.717"/>
	</g>
	<g>
		<circle style="fill:#CCE16B;" cx="404.742" cy="336.5" r="3.717"/>
	</g>
	<g>
		<circle style="fill:#D6EB76;" cx="435" cy="341.919" r="3.717"/>
	</g>
	<g>
		<circle style="fill:#D8C34A;" cx="338.667" cy="450.266" r="6.667"/>
	</g>
	<g>
		<circle style="fill:#D8C34A;" cx="401.026" cy="419" r="6.667"/>
	</g>
	<g>
		<circle style="fill:#D0D75B;" cx="373.227" cy="396.667" r="6.667"/>
	</g>
	<g>
		<circle style="fill:#D0D75B;" cx="421.026" cy="389.047" r="6.667"/>
	</g>
	<g>
		<circle style="fill:#D0D75B;" cx="131.374" cy="420.989" r="6.667"/>
	</g>
</g>
<g>
</g>
<g>
</g>
<g>
</g>
<g>
</g>
<g>
</g>
<g>
</g>
<g>
</g>
<g>
</g>
<g>
</g>
<g>
</g>
<g>
</g>
<g>
</g>
<g>
</g>
<g>
</g>
<g>
</g>
</svg>
