<?xml version="1.0" encoding="iso-8859-1"?>
<!-- Generator: Adobe Illustrator 19.0.0, SVG Export Plug-In . SVG Version: 6.00 Build 0)  -->
<svg version="1.1" id="Capa_1" xmlns="http://www.w3.org/2000/svg" xmlns:xlink="http://www.w3.org/1999/xlink" x="0px" y="0px"
	 viewBox="0 0 512 512" style="enable-background:new 0 0 512 512;" xml:space="preserve">
<g>
	<g>
		<circle style="fill:#9AF4EF;" cx="256" cy="256" r="256"/>
	</g>
	<g>
		<path style="fill:#4CD3CB;" d="M4.117,210.478C1.463,225.259,0,240.455,0,256s1.463,30.741,4.117,45.522
			c56.15,21.145,150.29,35.02,256.996,35.02c100.085,0,189.083-12.214,246.083-31.176C510.319,289.388,512,272.893,512,256
			s-1.681-33.388-4.803-49.366c-57-18.962-145.998-31.177-246.083-31.177C154.407,175.457,60.268,189.333,4.117,210.478z"/>
	</g>
	<g>
		<path style="fill:#FFFFFF;" d="M451.591,90.907c-11.88,2.939-22.068,10.155-28.861,19.92c-2.833-0.893-5.79-1.509-8.917-1.509
			c-16.465,0-29.813,13.347-29.813,29.813h99.743C474.84,121.817,464.045,105.647,451.591,90.907z"/>
	</g>
	<g>
		<path style="fill:#00BDB3;" d="M439.349,434.576c40.389-41.462,66.8-96.552,71.735-157.736l-9.579-14.369h10.332
			C511.89,260.313,512,258.17,512,256c0-6.144-0.293-12.216-0.719-18.251L484,196.828l-43.762,65.643h26.257l-35.01,52.515h26.257
			l-35.01,52.515h26.257l-35.01,52.515c0,0,26.987,0,26.257,0l-9.488,14.232C433.622,434.322,436.478,434.479,439.349,434.576z"/>
	</g>
	<g>
		<path style="fill:#00BDB3;" d="M59.01,367.5h26.257l-35.01-52.515h26.257l-35.01-52.515h26.257L24,196.828L1.234,230.976
			C0.435,239.212,0,247.555,0,256c0,2.17,0.11,4.313,0.164,6.471h6.332l-5.989,8.983c3.863,64.822,31.813,123.149,75.064,166.128
			c1.324,0.028,2.633,0.055,3.958,0.083l-11.767-17.65c-0.729,0,26.257,0,26.257,0L59.01,367.5z"/>
	</g>
	<g>
		<path style="fill:#00BDB3;" d="M162.171,389.211l-9.488,14.232c24.344,0.63,48.684,2.196,72.439,2.649
			c12.042,0.23,24.176,0.51,36.34,0.768l-11.767-17.65c-0.729,0,26.257,0,26.257,0l-35.01-52.515H267.2l-35.01-52.515h26.257
			l-35.01-52.515h26.257l-43.762-65.643l-43.762,65.643h26.257l-35.01,52.515h26.257l-35.01,52.515h26.257l-35.01,52.515
			C135.914,389.211,162.9,389.211,162.171,389.211z"/>
	</g>
	<g>
		<path style="fill:#00BDB3;" d="M259.504,389.211l-9.488,14.232c24.344,0.63,48.684,2.196,72.439,2.649
			c12.042,0.23,24.176,0.51,36.34,0.768l-11.767-17.65c-0.729,0,26.257,0,26.257,0l-35.01-52.515h26.257l-35.01-52.515h26.257
			l-35.01-52.515h26.257l-43.762-65.643l-43.762,65.643h26.257l-35.01,52.515h26.257l-35.01,52.515h26.257l-35.01,52.515
			C233.247,389.211,260.234,389.211,259.504,389.211z"/>
	</g>
	<g>
		<polygon style="fill:#00BDB3;" points="433.871,232 299.762,213.643 152,222.822 109.333,214.775 49.836,245.643 85.267,367.5 
			351.266,367.5 433.871,264 		"/>
	</g>
	<g>
		<path style="fill:#00BDB3;" d="M348.238,403.188l-9.488,14.232c24.344,0.63,48.684,2.196,72.439,2.649
			c12.042,0.23,24.176,0.51,36.34,0.768l-11.767-17.65c-0.729,0,26.257,0,26.257,0l-35.01-52.515h26.257l-35.01-52.515h26.257
			l-35.01-52.515h26.257L392,180l-43.762,65.643h26.257l-35.01,52.515h26.257l-35.01,52.515h26.257l-35.01,52.515
			C321.98,403.188,348.967,403.188,348.238,403.188z"/>
	</g>
	<g>
		<path style="fill:#00BDB3;" d="M65.571,403.188l-9.488,14.232c24.344,0.63,48.684,2.196,72.439,2.649
			c12.042,0.23,24.176,0.51,36.34,0.768l-11.767-17.65c-0.729,0,26.257,0,26.257,0l-35.01-52.515H170.6l-35.01-52.515h26.257
			l-35.01-52.515h26.257L109.333,180l-43.762,65.643h26.257l-35.01,52.515h26.257l-35.01,52.515h26.257l-35.01,52.515
			C39.314,403.188,66.301,403.188,65.571,403.188z"/>
	</g>
	<g>
		<path style="fill:#00A07D;" d="M488.29,363.593l-8.614-12.92h14.167c1.531-3.842,2.969-7.728,4.317-11.659l-27.237-40.856h26.257
			l-35.01-52.515h26.257L444.666,180l-43.762,65.643h26.257l-35.01,52.515h26.257l-35.01,52.515h26.257l-35.01,52.515
			c0,0,26.986,0,26.257,0l-35.01,52.515h26.257l-18.388,27.583C423.958,457.223,464.412,415.056,488.29,363.593z"/>
	</g>
	<g>
		<path style="fill:#00A07D;" d="M23.718,363.593l8.614-12.92H18.164c-1.531-3.842-2.969-7.728-4.317-11.659l27.237-40.856H14.826
			l35.01-52.515H23.579L67.341,180l43.762,65.643H84.846l35.01,52.515H93.598l35.01,52.515h-26.257l35.01,52.515
			c0,0-26.986,0-26.257,0l35.01,52.515h-26.257l18.388,27.583C88.049,457.223,47.596,415.056,23.718,363.593z"/>
	</g>
	<g>
		<path style="fill:#36B294;" d="M416.369,455.483l-11.855-17.782l26.257,0.001l-35.01-52.515c-0.729,0,26.257,0,26.257,0
			l-35.01-52.515h26.257l-35.01-52.515h26.257l-35.01-52.515h26.257L352,162l-43.762,65.643h26.257l-35.01,52.515h26.257
			l-35.01,52.515h26.257l-35.01,52.515c0,0,26.986,0,26.257,0l-35.01,52.515h26.257l-35.01,52.515h26.257l-13.913,20.869
			C329.439,506.846,377.551,486.73,416.369,455.483z"/>
	</g>
	<g>
		<path style="fill:#36B294;" d="M95.563,455.483l11.855-17.782l-26.257,0.001l35.01-52.515c0.729,0-26.257,0-26.257,0l35.01-52.515
			H98.666l35.01-52.515h-26.257l35.01-52.515h-26.257L159.933,162l43.762,65.643h-26.257l35.01,52.515H186.19l35.01,52.515h-26.257
			l35.01,52.515c0,0-26.986,0-26.257,0l35.01,52.515h-26.257l35.01,52.515H221.2l13.913,20.869
			C182.493,506.846,134.381,486.73,95.563,455.483z"/>
	</g>
	<g>
		<path style="fill:#FFFFFF;" d="M223.953,106.162c0-14.576,11.816-26.392,26.392-26.392c2.2,0,4.303,0.348,6.346,0.855
			c6.887-7.437,16.651-12.166,27.586-12.166c20.823,0,37.703,16.88,37.703,37.703H223.953z"/>
	</g>
	<g style="opacity:0.6;">
		<path style="fill:#FFFFFF;" d="M287.266,148.352c0-9.516,7.715-17.231,17.231-17.231c1.436,0,2.809,0.227,4.143,0.558
			c4.496-4.855,10.871-7.943,18.011-7.943c13.595,0,24.615,11.021,24.615,24.615H287.266z"/>
	</g>
	<g style="opacity:0.6;">
		<path style="fill:#FFFFFF;" d="M357.5,78.131c0-9.774-7.923-17.697-17.697-17.697c-1.475,0-2.886,0.233-4.256,0.573
			c-4.618-4.987-11.166-8.158-18.498-8.158c-13.963,0-25.282,11.319-25.282,25.282H357.5z"/>
	</g>
	<g>
		<path style="fill:#FFFFFF;" d="M237.113,99.737c-2.518,0-4.898,0.496-7.179,1.215c-7.225-10.386-19.21-17.215-32.821-17.215
			s-25.596,6.829-32.821,17.215c-2.281-0.719-4.661-1.215-7.179-1.215c-13.255,0-24,10.745-24,24h128
			C261.113,110.482,250.368,99.737,237.113,99.737z"/>
	</g>
	<g style="opacity:0.6;">
		<path style="fill:#FFFFFF;" d="M199.248,56.398c-1.388,0-2.699,0.273-3.956,0.67c-3.982-5.724-10.587-9.487-18.088-9.487
			s-14.106,3.763-18.088,9.487c-1.257-0.396-2.569-0.67-3.956-0.67c-7.305,0-13.227,5.922-13.227,13.227h70.542
			C212.475,62.32,206.553,56.398,199.248,56.398z"/>
	</g>
	<g>
		<path style="fill:#00A07D;" d="M308.514,423.701l26.257,0.001l-35.01-52.515c-0.729,0,26.257,0,26.257,0l-35.01-52.515h26.257
			l-35.01-52.515h26.257l-35.01-52.515h26.257L256,148l-43.762,65.643h26.257l-35.01,52.515h26.257l-35.01,52.515h26.257
			l-35.01,52.515c0,0,26.986,0,26.257,0l-35.01,52.515h26.257l-35.01,52.515h26.257l-15.939,23.908
			C203.159,507.824,229.089,512,256,512s52.841-4.176,77.206-11.875l-15.939-23.91h26.257L308.514,423.701z"/>
	</g>
	<g style="opacity:0.6;">
		<path style="fill:#FFFFFF;" d="M104,139.131c0-13.255-10.745-24-24-24c-2.518,0-4.898,0.496-7.179,1.215
			c-4.958-7.127-12.188-12.51-20.615-15.23c-9.054,11.895-17.06,24.617-23.949,38.015H104z"/>
	</g>
</g>
<g>
</g>
<g>
</g>
<g>
</g>
<g>
</g>
<g>
</g>
<g>
</g>
<g>
</g>
<g>
</g>
<g>
</g>
<g>
</g>
<g>
</g>
<g>
</g>
<g>
</g>
<g>
</g>
<g>
</g>
</svg>
