<?xml version="1.0" encoding="iso-8859-1"?>
<!-- Generator: Adobe Illustrator 19.0.0, SVG Export Plug-In . SVG Version: 6.00 Build 0)  -->
<svg version="1.1" id="Capa_1" xmlns="http://www.w3.org/2000/svg" xmlns:xlink="http://www.w3.org/1999/xlink" x="0px" y="0px"
	 viewBox="0 0 512 512" style="enable-background:new 0 0 512 512;" xml:space="preserve">
<g>
	<g>
		<circle style="fill:#9AF4EF;" cx="256" cy="256" r="256"/>
	</g>
	<g style="opacity:0.3;">
		<path style="fill:#FFFFF4;" d="M10.091,327.133c83.321-3.292,346.116-16.46,497.758-25.428C510.525,286.867,512,271.61,512,256
			c0-14.961-1.356-29.598-3.819-43.855c-134.612,4.671-383.169,28.46-507.985,51.585C0.848,285.673,4.252,306.913,10.091,327.133z"
			/>
	</g>
	<g style="opacity:0.4;">
		<path style="fill:#FFFFF4;" d="M8.511,321.567c100.612,0.929,372.499,2.264,494.628,1.233c5.63-20.875,8.705-42.791,8.826-65.416
			C362.447,258.927,87.08,268.27,1.06,278.73C2.352,293.398,4.851,307.714,8.511,321.567z"/>
	</g>
	<g style="opacity:0.6;">
		<path style="fill:#FFFFFF;" d="M150.794,149.097c0-11.225,9.1-20.324,20.324-20.324c1.694,0,3.314,0.268,4.887,0.659
			c5.303-5.727,12.823-9.369,21.244-9.369c16.035,0,29.034,12.999,29.034,29.034H150.794z"/>
	</g>
	<g style="opacity:0.6;">
		<path style="fill:#FFFFFF;" d="M128.994,78.097c0-9.442,7.654-17.096,17.096-17.096c1.425,0,2.788,0.225,4.111,0.554
			c4.461-4.818,10.786-7.881,17.87-7.881c13.488,0,24.423,10.935,24.423,24.423H128.994z"/>
	</g>
	<g style="opacity:0.6;">
		<path style="fill:#FFFFFF;" d="M428.51,196.503c0-7.021,5.692-12.713,12.713-12.713c1.06,0,2.073,0.168,3.057,0.412
			c3.317-3.582,8.021-5.86,13.289-5.86c10.03,0,18.162,8.131,18.162,18.162H428.51z"/>
	</g>
	<g style="opacity:0.6;">
		<path style="fill:#FFFFFF;" d="M369.995,145.339c0-9.442,7.654-17.096,17.096-17.096c1.425,0,2.788,0.225,4.111,0.554
			c4.461-4.818,10.786-7.881,17.87-7.881c13.488,0,24.423,10.935,24.423,24.423H369.995z"/>
	</g>
	<g>
		<path style="fill:#FFFFFF;" d="M165.244,125.802c-2.444,0-4.754,0.481-6.968,1.179c-7.013-10.081-18.646-16.709-31.857-16.709
			s-24.844,6.628-31.857,16.709c-2.214-0.698-4.524-1.179-6.968-1.179c-12.866,0-23.295,10.429-23.295,23.295h124.24
			C188.539,136.232,178.109,125.802,165.244,125.802z"/>
	</g>
	<g>
		<path style="fill:#FFFFFF;" d="M370.846,127.901c-1.83,0-3.559,0.36-5.216,0.883c-5.249-7.546-13.958-12.508-23.847-12.508
			s-18.597,4.961-23.847,12.508c-1.657-0.523-3.386-0.883-5.216-0.883c-9.63,0-17.437,7.807-17.437,17.437h93
			C388.284,135.708,380.477,127.901,370.846,127.901z"/>
	</g>
	<g>
		<path style="fill:#FFFFFF;" d="M430.858,184.27c-1.284,0-2.497,0.253-3.659,0.619c-3.683-5.294-9.792-8.775-16.73-8.775
			c-6.938,0-13.047,3.481-16.73,8.775c-1.163-0.367-2.376-0.619-3.659-0.619c-6.756,0-12.233,5.477-12.233,12.233h65.245
			C443.091,189.747,437.614,184.27,430.858,184.27z"/>
	</g>
	<g>
		<path style="fill:#FFFFFF;" d="M282.242,74.202c0-12.452,10.094-22.546,22.546-22.546c1.879,0,3.676,0.297,5.421,0.731
			c5.883-6.353,14.224-10.393,23.566-10.393c17.788,0,32.208,14.42,32.208,32.208H282.242z"/>
	</g>
	<g>
		<path style="fill:#B0EB81;" d="M1.833,286C16.693,413.237,124.773,512,256,512c131.228,0,239.307-98.763,254.167-226H1.833z"/>
	</g>
	<g>
		<path style="fill:#C4B478;" d="M307.196,129.982l-12.492-15.873c-3.416-4.34-9.993-4.34-13.409,0l-12.492,15.873l-16.487,129.283
			H288h35.684L307.196,129.982z"/>
	</g>
	<g>
		<path style="fill:#BCA077;" d="M283.187,114.109c-0.264-0.336-0.646-0.472-0.946-0.756c-0.299,0.284-0.682,0.42-0.946,0.756
			l-12.492,15.873l-16.487,129.283h24.166H288h24.167l-16.488-129.283L283.187,114.109z"/>
	</g>
	<g>
		<path style="fill:#8C665B;" d="M324.615,276.202h-73.23v-50.936c0-0.552,0.448-1,1-1h71.23c0.552,0,1,0.448,1,1V276.202z"/>
	</g>
	<g>
		<path style="fill:#674447;" d="M288.001,235.858c-7.94,0-14.377,6.437-14.377,14.377v25.968h28.753v-25.968
			C302.377,242.294,295.94,235.858,288.001,235.858z"/>
	</g>
	<g>
		<g>
			<path style="fill:#8C665B;" d="M212.536,191.878l19.891,19.891c4.397,4.397,11.78,3.363,14.8-2.073L288,136.305l-73.391,40.773
				C209.173,180.098,208.139,187.481,212.536,191.878z"/>
		</g>
		<g>
			<path style="fill:#8C665B;" d="M363.464,191.878l-19.891,19.891c-4.397,4.397-11.78,3.363-14.8-2.073L288,136.305l73.391,40.773
				C366.827,180.098,367.861,187.481,363.464,191.878z"/>
		</g>
		<g>
			<path style="fill:#8C665B;" d="M363.464,80.732l-19.891-19.891c-4.397-4.397-11.78-3.363-14.8,2.073L288,136.305l73.391-40.773
				C366.827,92.512,367.861,85.129,363.464,80.732z"/>
		</g>
		<g>
			<path style="fill:#8C665B;" d="M212.536,80.732l19.891-19.891c4.397-4.397,11.78-3.363,14.8,2.073L288,136.305l-73.391-40.773
				C209.173,92.512,208.139,85.129,212.536,80.732z"/>
		</g>
	</g>
	<g>
		<circle style="fill:#8C665B;" cx="288" cy="136.305" r="11.517"/>
	</g>
	<g>
		<g>
			<g>
				<path style="fill:#674447;" d="M436.008,349.097c-2.424,0-4.387-1.963-4.387-4.384v-47.219c0-2.421,1.963-4.384,4.387-4.384
					c2.424,0,4.387,1.963,4.387,4.384v47.219C440.395,347.134,438.432,349.097,436.008,349.097z"/>
			</g>
		</g>
		<g>
			<g>
				<path style="fill:#43AB5F;" d="M463.638,293.472c0,15.261-12.371,27.632-27.632,27.632s-27.632-12.371-27.632-27.632
					c0-15.261,12.371-62.171,27.632-62.171S463.638,278.212,463.638,293.472z"/>
			</g>
		</g>
		<g>
			<g>
				<path style="fill:#71BE63;" d="M436.007,231.301c-3.831,0-7.479,2.961-10.795,7.631h0.001c13.967,0,25.29,42.935,25.29,56.903
					c0,12.15-8.574,22.279-19.997,24.715c1.779,0.359,3.617,0.555,5.502,0.555c15.26,0,27.632-12.371,27.632-27.631
					C463.638,278.211,451.267,231.301,436.007,231.301z"/>
			</g>
		</g>
	</g>
	<g>
		<g>
			<g>
				<path style="fill:#674447;" d="M91.078,314.953c-2.442,0-4.42-1.503-4.42-3.356v-36.143c0-1.853,1.978-3.356,4.42-3.356
					s4.42,1.503,4.42,3.356v36.143C95.498,313.45,93.52,314.953,91.078,314.953z"/>
			</g>
		</g>
		<g>
			<path style="fill:#43AB5F;" d="M114.887,266.081c0,18.273-10.66,27.445-23.81,27.445s-23.81-9.172-23.81-27.445
				c0-18.273,14.585-89.534,23.81-89.534S114.887,247.808,114.887,266.081z"/>
		</g>
		<g>
			<path style="fill:#71BE63;" d="M91.077,176.547c-1.827,0-3.865,2.825-5.958,7.45c7.525,11.397,17.262,67.709,17.262,83.35
				c0,15.281-6.795,23.884-15.817,25.774c1.464,0.253,2.967,0.404,4.514,0.404c13.15,0,23.81-9.172,23.81-27.445
				S100.302,176.547,91.077,176.547z"/>
		</g>
	</g>
	<g>
		<g>
			<g>
				<path style="fill:#674447;" d="M155.008,293.75c-3.169,0-5.735-2.566-5.735-5.731v-61.73c0-3.165,2.566-5.731,5.735-5.731
					c3.169,0,5.735,2.566,5.735,5.731v61.73C160.744,291.184,158.177,293.75,155.008,293.75z"/>
			</g>
		</g>
		<g>
			<g>
				<path style="fill:#43AB5F;" d="M191.13,221.031c0,19.95-16.173,36.123-36.123,36.123s-36.123-16.173-36.123-36.123
					s16.173-81.278,36.123-81.278S191.13,201.08,191.13,221.031z"/>
			</g>
		</g>
		<g>
			<g>
				<path style="fill:#71BE63;" d="M155.007,139.753c-5.008,0-9.777,3.871-14.113,9.976h0.001c18.26,0,33.062,56.13,33.062,74.39
					c0,15.883-11.209,29.126-26.143,32.311c2.325,0.47,4.729,0.725,7.192,0.725c19.95,0,36.124-16.173,36.124-36.123
					C191.13,201.08,174.957,139.753,155.007,139.753z"/>
			</g>
		</g>
	</g>
	<g>
		<path style="fill:#71BE63;" d="M12.292,334.44C45.422,437.443,141.984,512,256,512c110.811,0,205.156-70.415,240.788-168.931
			C386.114,337.654,348.081,248,256,248C135.939,248,97.916,329.791,12.292,334.44z"/>
	</g>
	<g>
		<path style="fill:#94D75B;" d="M496.788,343.069C386.114,337.654,348.081,248,256,248c-5.686,0-11.132,0.238-16.464,0.588
			C341.46,255.8,388.162,374.415,463.244,406.014C477.15,386.833,488.588,365.743,496.788,343.069z"/>
	</g>
	<g>
		<path style="fill:#43AB5F;" d="M25.297,366.622C66.58,452.573,154.274,512,256,512c67.79,0,129.336-26.441,175.129-69.46
			C269.258,433.418,224.996,323.103,25.297,366.622z"/>
	</g>
	<g>
		<path style="fill:#BCA077;" d="M282.242,250.569"/>
	</g>
	<g>
		<path style="fill:#C4B478;" d="M251.623,388.736c13.133,5.622,26.126,11.497,39.388,17.238
			c56.17-47.218,120.604-83.88,82.567-109.724l-22.514-14.781C415.084,321.957,330.127,350.242,251.623,388.736z"/>
	</g>
	<g>
		<path style="fill:#BCA077;" d="M55.134,414.299c22.542,28.612,51.046,52.237,83.64,69.115
			c1.038-45.642,29.634-76.959,64.738-112.813c-17.43-5.436-35.911-9.71-56.255-12.061
			C113.845,366.548,77.499,387.779,55.134,414.299z"/>
	</g>
	<g>
		<path style="fill:#CCBE84;" d="M373.578,296.25l-22.514-14.781c24.776,15.668,27.178,29.507,16.338,42.82
			c2.965,3.083,5.906,6.176,8.836,9.268C387.518,319.31,389.201,306.866,373.578,296.25z"/>
	</g>
	<g>
		<path style="fill:#3C9B61;" d="M34.539,383.986C78.792,460.457,161.291,512,256,512c27.578,0,54.093-4.441,78.964-12.529
			C260.98,464.354,157.152,343.501,34.539,383.986z"/>
	</g>
	<g>
		<path style="fill:#AD9172;" d="M102.113,376.686c-17.986,10.068-34.607,22.961-46.939,37.57c1.327,1.685,2.7,3.33,4.067,4.98
			c3.216,3.878,6.54,7.657,9.976,11.336c1.35,1.447,2.658,2.933,4.041,4.349c2.191,2.24,4.474,4.39,6.745,6.548
			c1.273,1.212,2.531,2.441,3.829,3.626c2.442,2.227,4.943,4.388,7.47,6.519c1.126,0.952,2.257,1.898,3.4,2.832
			c2.765,2.252,5.566,4.462,8.425,6.6c0.758,0.568,1.533,1.116,2.297,1.676c10.542,7.699,21.67,14.646,33.349,20.693
			c0.755-33.188,16.115-58.801,37.918-84.093C152.977,387.843,128.082,379.341,102.113,376.686z"/>
	</g>
</g>
<g>
</g>
<g>
</g>
<g>
</g>
<g>
</g>
<g>
</g>
<g>
</g>
<g>
</g>
<g>
</g>
<g>
</g>
<g>
</g>
<g>
</g>
<g>
</g>
<g>
</g>
<g>
</g>
<g>
</g>
</svg>
