<?xml version="1.0" encoding="iso-8859-1"?>
<!-- Generator: Adobe Illustrator 19.0.0, SVG Export Plug-In . SVG Version: 6.00 Build 0)  -->
<svg version="1.1" id="Capa_1" xmlns="http://www.w3.org/2000/svg" xmlns:xlink="http://www.w3.org/1999/xlink" x="0px" y="0px"
	 viewBox="0 0 512 512" style="enable-background:new 0 0 512 512;" xml:space="preserve">
<g>
	<g>
		<circle style="fill:#8DD9FF;" cx="256" cy="256" r="256"/>
	</g>
	<g>
		<path style="fill:#FFFFFF;" d="M483.958,234.58c0,0-0.909-0.61-2.301-1.466c-1.384-0.873-3.274-1.948-5.156-3.039
			c-1.909-1.036-3.818-2.072-5.25-2.85c-0.218-0.017-0.657,0.429-0.779,0.26c-0.108-0.817-0.556-1.497-1.216-1.928
			c-0.006-0.007-0.02-0.013-0.021-0.02c-0.106-0.185,0.498-0.384,0.579-0.588c-0.067-1.628-0.157-3.798-0.247-5.969
			c-0.151-2.17-0.283-4.34-0.458-5.967c-0.156-1.627-0.303-2.711-0.303-2.711c-0.085-0.631-0.667-1.073-1.298-0.988
			c-0.531,0.072-0.928,0.497-0.989,1.005c0,0-0.13,1.086-0.261,2.716c-0.149,1.63-0.248,3.802-0.365,5.974
			c-0.056,2.172-0.112,4.343-0.154,5.972c0.082,0.198,0.641,0.383,0.576,0.565c-0.669,0.429-1.125,1.115-1.234,1.94
			c-0.123,0.169-0.561-0.276-0.779-0.26c-1.432,0.777-3.341,1.813-5.25,2.85c-1.882,1.091-3.772,2.166-5.156,3.039
			c-1.392,0.856-2.301,1.466-2.301,1.466c-0.425,0.286-0.623,0.832-0.446,1.338c0.21,0.601,0.868,0.917,1.469,0.708
			c0,0,1.033-0.361,2.554-0.961c1.529-0.583,3.522-1.451,5.524-2.302c1.975-0.906,3.949-1.812,5.43-2.491
			c0.13-0.149,0.088-0.626,0.231-0.72c0.052,0.032,0.096,0.073,0.15,0.102l-0.578,28.459h-0.977l-0.652,20.607h6.956l-0.652-20.607
			h-0.977l-0.578-28.459c0.054-0.029,0.099-0.07,0.15-0.102c0.142,0.094,0.101,0.571,0.231,0.72c1.481,0.679,3.456,1.585,5.43,2.491
			c2.002,0.851,3.996,1.718,5.524,2.302c1.521,0.6,2.554,0.961,2.554,0.961c0.601,0.21,1.259-0.106,1.469-0.708
			C484.581,235.412,484.383,234.865,483.958,234.58z"/>
	</g>
	<g>
		<path style="fill:#FFFFFF;" d="M414.34,254.426c0,0-0.73-0.49-1.849-1.177c-1.112-0.701-2.63-1.565-4.142-2.441
			c-1.534-0.832-3.067-1.665-4.218-2.289c-0.175-0.013-0.528,0.344-0.626,0.209c-0.087-0.657-0.447-1.203-0.977-1.549
			c0,0-0.016-0.011-0.017-0.016c-0.085-0.148,0.4-0.309,0.465-0.473c-0.054-1.308-0.126-3.051-0.198-4.795
			c-0.121-1.743-0.228-3.486-0.368-4.793c-0.125-1.307-0.244-2.178-0.244-2.178c-0.069-0.507-0.535-0.862-1.043-0.793
			c-0.427,0.058-0.746,0.399-0.795,0.808c0,0-0.105,0.873-0.21,2.182c-0.12,1.309-0.199,3.054-0.293,4.799
			c-0.045,1.745-0.09,3.489-0.124,4.797c0.066,0.159,0.515,0.308,0.463,0.454c-0.538,0.345-0.904,0.896-0.992,1.558
			c-0.098,0.136-0.451-0.222-0.626-0.209c-1.15,0.624-2.684,1.457-4.218,2.289c-1.512,0.876-3.03,1.74-4.142,2.441
			c-1.118,0.688-1.849,1.177-1.849,1.177c-0.342,0.229-0.5,0.668-0.358,1.075c0.169,0.483,0.697,0.737,1.18,0.568
			c0,0,0.83-0.29,2.051-0.772c1.228-0.469,2.83-1.165,4.438-1.849c1.586-0.728,3.172-1.455,4.362-2.001
			c0.105-0.12,0.071-0.503,0.186-0.578c0.042,0.026,0.077,0.059,0.121,0.082l-0.464,22.861h-0.785l-0.524,16.554h5.588
			l-0.524-16.554h-0.785l-0.464-22.861c0.044-0.023,0.079-0.056,0.121-0.082c0.114,0.075,0.081,0.459,0.186,0.578
			c1.19,0.546,2.776,1.273,4.362,2.001c1.608,0.684,3.21,1.38,4.438,1.849c1.221,0.482,2.051,0.772,2.051,0.772
			c0.483,0.169,1.011-0.086,1.18-0.568C414.841,255.095,414.682,254.656,414.34,254.426z"/>
	</g>
	<g>
		<path style="fill:#FFFFFF;" d="M346.529,270.347c0,0-0.521-0.35-1.32-0.84c-0.794-0.501-1.878-1.117-2.957-1.742
			c-1.095-0.594-2.189-1.188-3.011-1.634c-0.125-0.01-0.377,0.246-0.447,0.149c-0.062-0.469-0.319-0.858-0.697-1.105
			c-0.003-0.004-0.011-0.008-0.012-0.011c-0.061-0.106,0.285-0.22,0.332-0.337c-0.039-0.933-0.09-2.178-0.142-3.423
			c-0.087-1.244-0.162-2.488-0.263-3.421c-0.089-0.933-0.174-1.555-0.174-1.555c-0.049-0.362-0.382-0.615-0.744-0.566
			c-0.305,0.041-0.532,0.285-0.567,0.576c0,0-0.075,0.623-0.15,1.557c-0.086,0.935-0.142,2.18-0.209,3.425
			c-0.032,1.245-0.064,2.49-0.088,3.424c0.047,0.113,0.367,0.22,0.33,0.324c-0.384,0.246-0.645,0.639-0.708,1.112
			c-0.07,0.097-0.322-0.158-0.447-0.149c-0.821,0.446-1.916,1.04-3.011,1.634c-1.079,0.625-2.163,1.242-2.957,1.742
			c-0.798,0.491-1.32,0.84-1.32,0.84c-0.244,0.164-0.357,0.477-0.256,0.767c0.121,0.345,0.498,0.526,0.842,0.406
			c0,0,0.592-0.207,1.464-0.551c0.877-0.335,2.02-0.832,3.168-1.32c1.132-0.519,2.264-1.039,3.114-1.428
			c0.075-0.085,0.05-0.359,0.132-0.413c0.03,0.018,0.055,0.042,0.086,0.058l-0.331,16.318h-0.56L335.255,296h3.988l-0.374-11.816
			h-0.56l-0.331-16.318c0.031-0.017,0.057-0.04,0.086-0.058c0.081,0.054,0.058,0.327,0.132,0.413
			c0.849,0.389,1.981,0.909,3.114,1.428c1.148,0.488,2.291,0.985,3.168,1.32c0.872,0.344,1.464,0.551,1.464,0.551
			c0.345,0.12,0.722-0.061,0.842-0.406C346.886,270.824,346.773,270.511,346.529,270.347z"/>
	</g>
	<g>
		<path style="fill:#74FF9E;" d="M174.894,256.664c0,0-0.521-0.35-1.32-0.84c-0.794-0.501-1.878-1.117-2.957-1.742
			c-1.095-0.594-2.189-1.188-3.011-1.634c-0.125-0.01-0.377,0.246-0.447,0.149c-0.062-0.469-0.319-0.858-0.697-1.105
			c-0.003-0.004-0.011-0.008-0.011-0.008c-0.062-0.11,0.284-0.224,0.331-0.341c-0.039-0.933-0.09-2.178-0.142-3.423
			c-0.087-1.244-0.162-2.488-0.263-3.421c-0.089-0.933-0.174-1.555-0.174-1.555c-0.049-0.362-0.382-0.615-0.744-0.566
			c-0.305,0.041-0.532,0.285-0.567,0.576c0,0-0.075,0.623-0.15,1.557c-0.086,0.935-0.142,2.18-0.209,3.425
			c-0.032,1.245-0.064,2.49-0.088,3.424c0.047,0.113,0.367,0.22,0.33,0.324c-0.384,0.246-0.645,0.639-0.708,1.112
			c-0.07,0.097-0.322-0.158-0.447-0.149c-0.821,0.446-1.916,1.04-3.011,1.634c-1.079,0.625-2.163,1.242-2.957,1.742
			c-0.798,0.491-1.32,0.84-1.32,0.84c-0.244,0.164-0.357,0.477-0.256,0.767c0.121,0.345,0.498,0.526,0.842,0.406
			c0,0,0.592-0.207,1.464-0.551c0.877-0.335,2.02-0.832,3.168-1.32c1.132-0.519,2.264-1.039,3.114-1.428
			c0.075-0.085,0.05-0.359,0.132-0.413c0.03,0.018,0.055,0.042,0.086,0.058l-0.331,16.318h-0.56l-0.374,11.816h3.988l-0.374-11.816
			h-0.56l-0.331-16.318c0.031-0.017,0.057-0.04,0.086-0.058c0.081,0.054,0.058,0.327,0.132,0.413
			c0.849,0.389,1.981,0.909,3.114,1.428c1.148,0.488,2.291,0.985,3.168,1.32c0.872,0.344,1.464,0.551,1.464,0.551
			c0.345,0.12,0.722-0.061,0.842-0.406C175.251,257.141,175.137,256.828,174.894,256.664z"/>
	</g>
	<g>
		<path style="fill:#74FF9E;" d="M216.761,269.153c0,0-0.521-0.35-1.32-0.84c-0.794-0.501-1.877-1.117-2.957-1.742
			c-1.095-0.594-2.189-1.188-3.011-1.634c-0.125-0.01-0.377,0.246-0.447,0.149c-0.062-0.469-0.319-0.858-0.697-1.105
			c-0.003-0.004-0.011-0.008-0.012-0.011c-0.061-0.106,0.285-0.22,0.332-0.337c-0.039-0.933-0.09-2.178-0.142-3.423
			c-0.087-1.244-0.162-2.488-0.263-3.421c-0.089-0.933-0.174-1.555-0.174-1.555c-0.049-0.362-0.382-0.615-0.744-0.566
			c-0.305,0.041-0.532,0.285-0.567,0.576c0,0-0.075,0.623-0.15,1.557c-0.086,0.935-0.142,2.18-0.209,3.425
			c-0.032,1.245-0.064,2.49-0.088,3.424c0.047,0.113,0.367,0.22,0.33,0.324c-0.384,0.246-0.645,0.639-0.708,1.112
			c-0.07,0.097-0.322-0.158-0.447-0.149c-0.821,0.446-1.916,1.04-3.011,1.634c-1.079,0.625-2.163,1.242-2.957,1.742
			c-0.798,0.491-1.32,0.84-1.32,0.84c-0.244,0.164-0.357,0.477-0.256,0.767c0.121,0.345,0.498,0.526,0.842,0.406
			c0,0,0.592-0.207,1.464-0.551c0.877-0.335,2.02-0.832,3.168-1.32c1.132-0.519,2.264-1.039,3.114-1.428
			c0.075-0.085,0.05-0.359,0.132-0.413c0.03,0.018,0.055,0.042,0.086,0.058l-0.331,16.318h-0.56l-0.374,11.816h3.988l-0.374-11.816
			h-0.56l-0.331-16.318c0.031-0.017,0.057-0.04,0.086-0.058c0.081,0.054,0.058,0.327,0.132,0.413
			c0.849,0.389,1.981,0.909,3.114,1.428c1.148,0.488,2.291,0.985,3.168,1.32c0.872,0.344,1.464,0.551,1.464,0.551
			c0.345,0.12,0.722-0.061,0.842-0.406C217.118,269.63,217.005,269.317,216.761,269.153z"/>
	</g>
	<g>
		<path style="fill:#74FF9E;" d="M216.761,270.347c0,0-0.521-0.35-1.32-0.84c-0.794-0.501-1.878-1.117-2.957-1.742
			c-1.095-0.594-2.189-1.188-3.011-1.634c-0.125-0.01-0.377,0.246-0.447,0.149c-0.062-0.469-0.319-0.858-0.697-1.105
			c-0.003-0.004-0.011-0.008-0.012-0.011c-0.061-0.106,0.285-0.22,0.332-0.337c-0.039-0.933-0.09-2.178-0.142-3.423
			c-0.087-1.244-0.162-2.488-0.263-3.421c-0.089-0.933-0.174-1.555-0.174-1.555c-0.049-0.362-0.382-0.615-0.744-0.566
			c-0.305,0.041-0.532,0.285-0.567,0.576c0,0-0.075,0.623-0.15,1.557c-0.086,0.935-0.142,2.18-0.209,3.425
			c-0.032,1.245-0.064,2.49-0.088,3.424c0.047,0.113,0.367,0.22,0.33,0.324c-0.384,0.246-0.645,0.639-0.708,1.112
			c-0.07,0.097-0.322-0.158-0.447-0.149c-0.821,0.446-1.916,1.04-3.011,1.634c-1.079,0.625-2.163,1.242-2.957,1.742
			c-0.798,0.491-1.32,0.84-1.32,0.84c-0.244,0.164-0.357,0.477-0.256,0.767c0.121,0.345,0.498,0.526,0.842,0.406
			c0,0,0.592-0.207,1.464-0.551c0.877-0.335,2.02-0.832,3.168-1.32c1.132-0.519,2.264-1.039,3.114-1.428
			c0.075-0.085,0.05-0.359,0.132-0.413c0.03,0.018,0.055,0.042,0.086,0.058l-0.331,16.318h-0.56L205.487,296h3.988l-0.374-11.816
			h-0.56l-0.331-16.318c0.031-0.017,0.057-0.04,0.086-0.058c0.081,0.054,0.058,0.327,0.132,0.413
			c0.849,0.389,1.981,0.909,3.114,1.428c1.148,0.488,2.291,0.985,3.168,1.32c0.872,0.344,1.464,0.551,1.464,0.551
			c0.345,0.12,0.722-0.061,0.842-0.406C217.118,270.824,217.005,270.511,216.761,270.347z"/>
	</g>
	<g>
		<path style="fill:#74FF9E;" d="M70.897,227.255c0,0-0.687-0.461-1.739-1.107c-1.046-0.66-2.474-1.472-3.896-2.296
			c-1.442-0.783-2.885-1.566-3.967-2.153c-0.165-0.013-0.496,0.324-0.589,0.196c-0.082-0.618-0.42-1.131-0.919-1.456
			c-0.004-0.005-0.015-0.01-0.016-0.015c-0.08-0.139,0.376-0.29,0.438-0.445c-0.051-1.23-0.119-2.87-0.187-4.51
			c-0.114-1.639-0.214-3.279-0.346-4.508c-0.118-1.23-0.229-2.049-0.229-2.049c-0.065-0.477-0.504-0.811-0.981-0.746
			c-0.401,0.055-0.701,0.375-0.747,0.76c0,0-0.098,0.821-0.197,2.052c-0.113,1.231-0.187,2.872-0.276,4.513
			c-0.042,1.641-0.085,3.281-0.117,4.512c0.062,0.149,0.484,0.29,0.435,0.427c-0.506,0.324-0.85,0.843-0.933,1.466
			c-0.093,0.128-0.424-0.209-0.589-0.196c-1.082,0.587-2.524,1.37-3.967,2.153c-1.422,0.824-2.85,1.636-3.896,2.296
			c-1.052,0.647-1.739,1.107-1.739,1.107c-0.321,0.216-0.471,0.629-0.337,1.011c0.159,0.454,0.656,0.693,1.11,0.535
			c0,0,0.781-0.273,1.929-0.726c1.155-0.441,2.661-1.096,4.174-1.739c1.492-0.684,2.984-1.369,4.103-1.882
			c0.098-0.113,0.066-0.473,0.174-0.544c0.039,0.024,0.073,0.055,0.114,0.077l-0.436,21.501h-0.738l-0.493,15.569h5.255
			l-0.493-15.569h-0.738l-0.436-21.501c0.041-0.022,0.075-0.053,0.114-0.077c0.107,0.071,0.076,0.431,0.174,0.544
			c1.119,0.513,2.611,1.197,4.103,1.882c1.512,0.643,3.019,1.298,4.174,1.739c1.149,0.453,1.929,0.726,1.929,0.726
			c0.454,0.159,0.951-0.08,1.11-0.535C71.367,227.884,71.218,227.471,70.897,227.255z"/>
	</g>
	<g>
		<path style="fill:#74FF9E;" d="M125.933,245.623c0,0-0.567-0.381-1.436-0.915c-0.864-0.545-2.043-1.215-3.217-1.896
			c-1.191-0.646-2.382-1.293-3.276-1.778c-0.136-0.01-0.41,0.268-0.486,0.162c-0.068-0.51-0.347-0.934-0.759-1.203
			c-0.004-0.004-0.012-0.008-0.012-0.008c-0.067-0.119,0.31-0.244,0.36-0.371c-0.042-1.016-0.098-2.37-0.154-3.725
			c-0.094-1.354-0.177-2.708-0.286-3.723c-0.097-1.015-0.189-1.692-0.189-1.692c-0.053-0.394-0.416-0.67-0.81-0.616
			c-0.331,0.045-0.579,0.31-0.617,0.627c0,0-0.081,0.678-0.163,1.695c-0.093,1.017-0.155,2.372-0.228,3.727
			c-0.035,1.355-0.07,2.71-0.096,3.726c0.051,0.123,0.4,0.239,0.36,0.352c-0.418,0.268-0.702,0.696-0.77,1.21
			c-0.076,0.105-0.35-0.172-0.486-0.162c-0.894,0.485-2.085,1.132-3.276,1.778c-1.174,0.681-2.354,1.351-3.217,1.896
			c-0.869,0.534-1.436,0.915-1.436,0.915c-0.265,0.178-0.389,0.519-0.278,0.835c0.131,0.375,0.542,0.572,0.916,0.441
			c0,0,0.645-0.225,1.593-0.6c0.954-0.364,2.198-0.905,3.447-1.436c1.232-0.565,2.464-1.13,3.388-1.554
			c0.081-0.093,0.055-0.391,0.144-0.449c0.032,0.02,0.06,0.046,0.094,0.063l-0.36,17.757h-0.61l-0.407,12.858h4.34l-0.407-12.858
			h-0.61l-0.36-17.757c0.034-0.018,0.062-0.044,0.094-0.063c0.089,0.059,0.063,0.356,0.144,0.449
			c0.924,0.424,2.156,0.989,3.388,1.554c1.249,0.531,2.493,1.072,3.447,1.436c0.949,0.374,1.593,0.6,1.593,0.6
			c0.375,0.131,0.785-0.066,0.916-0.441C126.321,246.142,126.198,245.801,125.933,245.623z"/>
	</g>
	<g>
		<path style="fill:#53DC92;" d="M220.4,397.693L320,296c-107.196,0-168.703-46.676-319.799-47.94C0.12,250.703,0,253.337,0,256
			c0,49.319,13.98,95.358,38.145,134.434C90.972,392.797,220.4,397.693,220.4,397.693z"/>
	</g>
	<g>
		<path style="fill:#74FF9E;" d="M0.201,248.06c-0.005,0.155-0.007,0.311-0.012,0.466c136.875,9.013,169.893,52,231.811,60.839
			c0,0,44,5.635,72,2.971h0L320,296C212.804,296,151.297,249.324,0.201,248.06z"/>
	</g>
	<g>
		<path style="fill:#52C883;" d="M365.952,487.223c81.798-38.967,139.62-120.05,145.499-215.209
			c-139.652,0.151-330.258,58.971-471.33,58.971C40.122,330.985,309.747,462.923,365.952,487.223z"/>
	</g>
	<g>
		<path style="fill:#6BEE97;" d="M58,334.185c35.36,13.495,288.64-29.409,449.598-31.593c1.843-10.014,3.212-20.193,3.854-30.579
			c-132.449,0.144-310.653,52.967-449.041,58.426L58,334.185z"/>
	</g>
	<g>
		<g>
			<path style="fill:#FFFFFF;" d="M141.747,201.017c-0.19-4.59-0.444-10.71-0.698-16.83c-0.425-6.118-0.799-12.237-1.292-16.825
				c-0.439-4.588-0.855-7.645-0.855-7.645c-0.241-1.779-1.879-3.026-3.659-2.784c-1.498,0.203-2.618,1.399-2.79,2.834
				c0,0-0.368,3.064-0.736,7.658c-0.421,4.595-0.7,10.718-1.03,16.843c-0.159,6.123-0.317,12.246-0.436,16.838
				c0.239,0.572,1.95,1.109,1.658,1.634c-0.007,0.04-0.091,0.078-0.121,0.117c2.843-0.285,5.716-0.307,8.566,0.047
				c-0.095-0.076-0.227-0.151-0.242-0.228C139.815,202.155,141.517,201.592,141.747,201.017z"/>
		</g>
		<g>
			<polygon style="fill:#FFFCE5;" points="141.243,297.686 130.757,297.686 132.505,211.635 139.495,211.635 			"/>
		</g>
		<g>
			<polygon style="fill:#E9DCB8;" points="145.806,354.317 126.194,354.317 128.032,296.215 143.968,296.215 			"/>
		</g>
		<g>
			<g>
				<path style="fill:#FFFFFF;" d="M128.459,208.009c-0.022,0.044-0.018,0.137-0.05,0.161c-0.336,0.499-1.591-0.782-2.209-0.735
					c-4.037,2.191-9.421,5.113-14.804,8.035c-5.306,3.076-10.636,6.105-14.538,8.567c-3.926,2.414-6.488,4.133-6.488,4.133
					c-1.2,0.805-1.757,2.346-1.258,3.773c0.593,1.695,2.447,2.588,4.142,1.995c0,0,2.913-1.019,7.2-2.711
					c4.311-1.644,9.932-4.09,15.576-6.49c5.568-2.554,11.135-5.107,15.311-7.022c0.408-0.466,0.137-2.239,0.737-2.208
					c0.076-0.022,0.203,0.062,0.313,0.112C130.782,213.242,129.496,210.671,128.459,208.009z"/>
			</g>
			<g>
				<path style="fill:#FFFFFF;" d="M143.541,208.009c0.022,0.044,0.018,0.137,0.05,0.161c0.336,0.499,1.591-0.782,2.209-0.735
					c4.037,2.191,9.421,5.113,14.804,8.035c5.306,3.076,10.636,6.105,14.538,8.567c3.926,2.414,6.488,4.133,6.488,4.133
					c1.2,0.805,1.757,2.346,1.258,3.773c-0.593,1.695-2.447,2.588-4.142,1.995c0,0-2.913-1.019-7.2-2.711
					c-4.311-1.644-9.932-4.09-15.576-6.49c-5.568-2.554-11.135-5.107-15.311-7.022c-0.408-0.466-0.137-2.239-0.737-2.208
					c-0.076-0.022-0.203,0.062-0.313,0.112C141.218,213.242,142.504,210.671,143.541,208.009z"/>
			</g>
		</g>
		<g>
			<circle style="fill:#E9DCB8;" cx="136" cy="209.154" r="7.801"/>
		</g>
	</g>
	<g>
		<path style="fill:#43AB5F;" d="M256,512c68.661,0,130.958-27.083,176.932-71.083c-130.747-3.993-314.506-116.498-425.064-121.77
			C35.991,429.99,136.41,512,256,512z"/>
	</g>
	<g>
		<path style="fill:#34BE69;" d="M432.932,440.917c-130.747-3.993-314.506-116.498-425.064-121.77
			c107.959,8.741,244.774,129.851,358.007,168.05C390.679,475.37,413.303,459.702,432.932,440.917z"/>
	</g>
	<g>
		<g>
			<path style="fill:#FFFFFF;" d="M263.814,166.563c-0.259-6.241-0.604-14.562-0.948-22.883c-0.578-8.319-1.086-16.638-1.756-22.876
				c-0.597-6.238-1.162-10.395-1.162-10.395c-0.328-2.419-2.555-4.114-4.975-3.785c-2.037,0.276-3.559,1.903-3.794,3.853
				c0,0-0.5,4.166-1,10.412c-0.573,6.247-0.952,14.573-1.4,22.9c-0.216,8.325-0.431,16.651-0.592,22.894
				c0.324,0.778,2.651,1.508,2.254,2.222c-0.01,0.054-0.124,0.106-0.164,0.16c3.866-0.387,7.772-0.417,11.647,0.064
				c-0.129-0.103-0.309-0.205-0.33-0.31C261.187,168.112,263.501,167.346,263.814,166.563z"/>
		</g>
		<g>
			<polygon style="fill:#FFFCE5;" points="263.129,298 248.871,298 251.248,181 260.752,181 			"/>
		</g>
		<g>
			<polygon style="fill:#E9DCB8;" points="269.333,375 242.667,375 245.167,296 266.833,296 			"/>
		</g>
		<g>
			<g>
				<path style="fill:#FFFFFF;" d="M245.746,176.071c-0.029,0.06-0.024,0.186-0.067,0.219c-0.457,0.678-2.163-1.063-3.004-0.999
					c-5.489,2.98-12.809,6.952-20.128,10.925c-7.215,4.182-14.461,8.301-19.767,11.648c-5.338,3.283-8.822,5.62-8.822,5.62
					c-1.631,1.095-2.389,3.19-1.71,5.13c0.806,2.305,3.327,3.519,5.632,2.713c0,0,3.96-1.385,9.789-3.686
					c5.861-2.236,13.504-5.561,21.178-8.824c7.57-3.472,15.14-6.943,20.817-9.547c0.555-0.634,0.186-3.044,1.002-3.003
					c0.103-0.029,0.276,0.085,0.426,0.153C248.905,183.185,247.157,179.69,245.746,176.071z"/>
			</g>
			<g>
				<path style="fill:#FFFFFF;" d="M266.254,176.071c0.029,0.06,0.024,0.186,0.067,0.219c0.457,0.678,2.163-1.063,3.004-0.999
					c5.489,2.98,12.809,6.952,20.128,10.925c7.215,4.182,14.461,8.301,19.767,11.648c5.338,3.283,8.822,5.62,8.822,5.62
					c1.631,1.095,2.389,3.19,1.71,5.13c-0.806,2.305-3.327,3.519-5.632,2.713c0,0-3.96-1.385-9.789-3.686
					c-5.861-2.236-13.504-5.561-21.178-8.824c-7.57-3.472-15.14-6.943-20.817-9.547c-0.555-0.634-0.186-3.044-1.002-3.003
					c-0.103-0.029-0.276,0.085-0.426,0.153C263.095,183.185,264.843,179.69,266.254,176.071z"/>
			</g>
		</g>
		<g>
			<circle style="fill:#E9DCB8;" cx="256" cy="177.627" r="10.607"/>
		</g>
	</g>
	<g>
		<g>
			<path style="fill:#FFFFFF;" d="M381.747,201.017c-0.19-4.59-0.444-10.71-0.698-16.83c-0.425-6.118-0.799-12.237-1.292-16.825
				c-0.439-4.588-0.855-7.645-0.855-7.645c-0.241-1.779-1.879-3.026-3.659-2.784c-1.498,0.203-2.618,1.399-2.79,2.834
				c0,0-0.368,3.064-0.736,7.658c-0.421,4.595-0.7,10.718-1.03,16.843c-0.159,6.123-0.317,12.246-0.436,16.838
				c0.239,0.572,1.95,1.109,1.658,1.634c-0.007,0.04-0.091,0.078-0.121,0.117c2.843-0.285,5.716-0.307,8.566,0.047
				c-0.095-0.076-0.227-0.151-0.242-0.228C379.815,202.155,381.517,201.592,381.747,201.017z"/>
		</g>
		<g>
			<polygon style="fill:#FFFCE5;" points="381.243,297.686 370.757,297.686 372.505,211.635 379.495,211.635 			"/>
		</g>
		<g>
			<polygon style="fill:#E9DCB8;" points="385.806,354.317 366.194,354.317 368.032,296.215 383.968,296.215 			"/>
		</g>
		<g>
			<g>
				<path style="fill:#FFFFFF;" d="M368.459,208.009c-0.022,0.044-0.018,0.137-0.05,0.161c-0.336,0.499-1.591-0.782-2.209-0.735
					c-4.037,2.191-9.421,5.113-14.804,8.035c-5.306,3.076-10.636,6.105-14.538,8.567c-3.926,2.414-6.488,4.133-6.488,4.133
					c-1.2,0.805-1.757,2.346-1.258,3.773c0.593,1.695,2.447,2.588,4.142,1.995c0,0,2.913-1.019,7.2-2.711
					c4.311-1.644,9.932-4.09,15.576-6.49c5.568-2.554,11.135-5.107,15.311-7.022c0.408-0.466,0.137-2.239,0.737-2.208
					c0.076-0.022,0.203,0.062,0.313,0.112C370.782,213.242,369.496,210.671,368.459,208.009z"/>
			</g>
			<g>
				<path style="fill:#FFFFFF;" d="M383.541,208.009c0.022,0.044,0.018,0.137,0.05,0.161c0.336,0.499,1.591-0.782,2.209-0.735
					c4.037,2.191,9.421,5.113,14.804,8.035c5.306,3.076,10.636,6.105,14.538,8.567c3.926,2.414,6.488,4.133,6.488,4.133
					c1.2,0.805,1.757,2.346,1.258,3.773c-0.593,1.695-2.447,2.588-4.142,1.995c0,0-2.913-1.019-7.2-2.711
					c-4.311-1.644-9.932-4.09-15.576-6.49c-5.568-2.554-11.135-5.107-15.311-7.022c-0.408-0.466-0.137-2.239-0.737-2.208
					c-0.076-0.022-0.203,0.062-0.313,0.112C381.218,213.242,382.504,210.671,383.541,208.009z"/>
			</g>
		</g>
		<g>
			<circle style="fill:#E9DCB8;" cx="376" cy="209.154" r="7.801"/>
		</g>
	</g>
	<g>
		<circle style="fill:#34BE69;" cx="66.667" cy="369.435" r="6.667"/>
	</g>
	<g>
		<circle style="fill:#34BE69;" cx="156.042" cy="456.052" r="6.667"/>
	</g>
	<g>
		<circle style="fill:#34BE69;" cx="256" cy="476.667" r="6.667"/>
	</g>
	<g>
		<circle style="fill:#34BE69;" cx="145.806" cy="407.986" r="6.667"/>
	</g>
	<g>
		<circle style="fill:#52C883;" cx="98.752" cy="397.693" r="6.667"/>
	</g>
	<g>
		<circle style="fill:#52C883;" cx="118.752" cy="442" r="6.667"/>
	</g>
	<g>
		<circle style="fill:#52C883;" cx="194.148" cy="435.333" r="6.667"/>
	</g>
	<g>
		<circle style="fill:#52C883;" cx="357.327" cy="451.667" r="6.667"/>
	</g>
	<g>
		<circle style="fill:#52C883;" cx="282.453" cy="427.986" r="6.667"/>
	</g>
	<g>
		<circle style="fill:#43AB5F;" cx="315.333" cy="445" r="6.667"/>
	</g>
	<g>
		<circle style="fill:#52C883;" cx="207.482" cy="473.863" r="6.667"/>
	</g>
	<g style="opacity:0.6;">
		<path style="fill:#FFFFFF;" d="M289.193,67.987c-2.09,0-4.064,0.411-5.957,1.008C277.24,60.376,267.295,54.71,256,54.71
			c-11.295,0-21.24,5.667-27.236,14.285c-1.893-0.597-3.868-1.008-5.957-1.008c-10.999,0-19.916,8.917-19.916,19.916h106.218
			C309.109,76.903,300.192,67.987,289.193,67.987z"/>
	</g>
	<g style="opacity:0.6;">
		<path style="fill:#FFFFFF;" d="M123.661,150.792c-1.295,0-2.518,0.255-3.691,0.625c-3.715-5.34-9.876-8.85-16.874-8.85
			c-6.997,0-13.159,3.511-16.874,8.85c-1.173-0.37-2.396-0.625-3.691-0.625c-6.814,0-12.339,5.524-12.339,12.339H136
			C136,156.316,130.476,150.792,123.661,150.792z"/>
	</g>
	<g>
		<path style="fill:#FFFFFF;" d="M337.356,152.718c-1.093,0-2.125,0.215-3.115,0.527c-3.135-4.506-8.335-7.469-14.241-7.469
			s-11.106,2.963-14.241,7.469c-0.99-0.312-2.022-0.527-3.115-0.527c-5.751,0-10.413,4.662-10.413,10.413h55.538
			C347.769,157.38,343.107,152.718,337.356,152.718z"/>
	</g>
	<g>
		<path style="fill:#FFFFFF;" d="M121.509,108.548c0-15.963,12.941-28.903,28.903-28.903c2.409,0,4.713,0.381,6.95,0.936
			c7.542-8.145,18.235-13.324,30.211-13.324c22.804,0,41.29,18.486,41.29,41.29H121.509z"/>
	</g>
	<g style="opacity:0.6;">
		<path style="fill:#FFFFFF;" d="M165.614,177.164c0-6.212,5.036-11.248,11.248-11.248c0.938,0,1.834,0.148,2.705,0.364
			c2.935-3.17,7.096-5.185,11.757-5.185c8.874,0,16.068,7.194,16.068,16.068H165.614z"/>
	</g>
	<g style="opacity:0.6;">
		<path style="fill:#FFFFFF;" d="M392.372,121.275c-9.158,0-16.582,7.424-16.582,16.582h61.591
			c0-13.083-10.606-23.689-23.689-23.689c-2.869,0-5.562,0.621-8.095,1.564c-1.587-3.392-4.977-5.777-8.97-5.777
			c-1.044,0-2.032,0.206-2.979,0.504c-2.998-4.31-7.971-7.143-13.618-7.143c-5.647,0-10.621,2.833-13.618,7.143
			c-0.946-0.298-1.934-0.504-2.979-0.504c-5.5,0-9.958,4.458-9.958,9.958H398.5c-0.727,0.62-1.492,1.198-2.141,1.899
			C395.076,121.493,393.755,121.275,392.372,121.275z"/>
	</g>
</g>
<g>
</g>
<g>
</g>
<g>
</g>
<g>
</g>
<g>
</g>
<g>
</g>
<g>
</g>
<g>
</g>
<g>
</g>
<g>
</g>
<g>
</g>
<g>
</g>
<g>
</g>
<g>
</g>
<g>
</g>
</svg>
