<?xml version="1.0" encoding="iso-8859-1"?>
<!-- Generator: Adobe Illustrator 19.0.0, SVG Export Plug-In . SVG Version: 6.00 Build 0)  -->
<svg version="1.1" id="Capa_1" xmlns="http://www.w3.org/2000/svg" xmlns:xlink="http://www.w3.org/1999/xlink" x="0px" y="0px"
	 viewBox="0 0 512 512" style="enable-background:new 0 0 512 512;" xml:space="preserve">
<g>
	<g>
		<circle style="fill:#9AF4EF;" cx="256" cy="256" r="256"/>
	</g>
	<g>
		<path style="fill:#C5F8F1;" d="M0.167,249.395C0.111,251.596,0,253.785,0,256c0,19.865,2.337,39.172,6.619,57.737
			c47.759,29.827,155.737,50.65,281.381,50.65c80.844,0,154.36-8.629,209.262-22.719C506.776,314.878,512,286.054,512,256
			c0-12.069-0.897-23.923-2.513-35.547c-62.52-30.517-134.472-42.904-221.487-42.904C156.347,177.548,44.065,217.266,0.167,249.395z
			"/>
	</g>
	<g>
		<path style="fill:#DEFBF2;" d="M1.556,275.545c-0.056,2.064-0.155,4.118-0.168,6.193c1.108,10.872,2.825,21.564,5.231,31.999
			c47.759,29.827,155.737,50.65,281.381,50.65c80.844,0,154.36-8.629,209.262-22.719C506.776,314.878,512,286.054,512,256
			c0-6.074-0.23-12.092-0.662-18.055c-59.88-21.171-104.628-28.856-181.015-22.735C189.213,226.516,48.758,243.417,1.556,275.545z"
			/>
	</g>
	<g>
		<path style="fill:#B0EB81;" d="M44.383,239.484c-11.437,2.984-29.082,8.838-44.322,14.11C0.053,254.399,0,255.193,0,256
			c0,36.706,7.782,71.577,21.696,103.138c25.596,2.29,59.672,5.249,64.842,5.249c8.43,0,72.014-79.248,72.014-79.248
			C111.648,280.762,68.121,233.29,44.383,239.484z"/>
	</g>
	<g>
		<path style="fill:#B0EB81;" d="M511.76,265.499c-35.273-16.771-64.154-36.725-84.503-34.274
			c-25.709,3.097-109.322,39.752-109.322,39.752l111.484,72.318h67.293C505.568,318.881,510.765,292.728,511.76,265.499z"/>
	</g>
	<g>
		<path style="fill:#94D75B;" d="M497.083,293.026c0-13.903-11.097-68.119-18.115-68.119s-18.115,54.216-18.115,68.119
			c0,12.42,6.487,19.273,15.001,20.602v17.043c0,1.719,1.394,3.113,3.115,3.113c1.721,0,3.115-1.394,3.115-3.113v-17.043
			C490.597,312.298,497.083,305.445,497.083,293.026z"/>
	</g>
	<g>
		<path style="fill:#94D75B;" d="M466.503,299.46c0-9.713-7.752-47.589-12.656-47.589s-12.656,37.876-12.656,47.589
			c0,8.677,4.532,13.464,10.48,14.393v11.906c0,1.201,0.974,2.175,2.176,2.175s2.176-0.974,2.176-2.175v-11.907
			C461.972,312.923,466.503,308.136,466.503,299.46z"/>
	</g>
	<g>
		<path style="fill:#94D75B;" d="M99.194,309.094c0-9.713-7.752-47.589-12.656-47.589c-4.903,0-12.656,37.876-12.656,47.589
			c0,8.677,4.532,13.464,10.48,14.393v11.906c0,1.201,0.974,2.175,2.176,2.175c1.203,0,2.176-0.974,2.176-2.175v-11.907
			C94.662,322.558,99.194,317.771,99.194,309.094z"/>
	</g>
	<g>
		<path style="fill:#94D75B;" d="M68.233,306.714c0-7.294-5.822-35.736-9.504-35.736c-3.682,0-9.504,28.443-9.504,35.736
			c0,6.516,3.403,10.111,7.87,10.808v8.941c0,0.902,0.731,1.633,1.634,1.633s1.634-0.731,1.634-1.633v-8.941
			C64.83,316.824,68.233,313.229,68.233,306.714z"/>
	</g>
	<g>
		<path style="fill:#94D75B;" d="M44.383,306.929c0-9.271-7.4-45.424-12.08-45.424s-12.08,36.153-12.08,45.424
			c0,8.282,4.326,12.852,10.003,13.738v11.365c0,1.146,0.929,2.076,2.077,2.076s2.077-0.93,2.077-2.076v-11.365
			C40.058,319.78,44.383,315.211,44.383,306.929z"/>
	</g>
	<g>
		<g>
			<path style="fill:#674447;" d="M140.903,352.343c-4.565,0-8.258-3.698-8.258-8.258V214.71c0-4.56,3.694-8.258,8.258-8.258
				s8.258,3.698,8.258,8.258v129.375C149.161,348.645,145.468,352.343,140.903,352.343z"/>
		</g>
		<g>
			<path style="fill:#43AB5F;" d="M218.613,244.07c3.781-5.444,6.028-12.032,6.028-19.162c0-15.051-9.941-27.645-23.565-31.958
				c-0.121-0.099-0.219-0.224-0.341-0.323c1.216-3.443,2.004-7.09,2.004-10.949c0-18.243-14.789-33.032-33.032-33.032
				c-2.642,0-5.177,0.39-7.64,0.976c-7.48-10.554-19.731-17.492-33.651-17.492c-22.804,0-41.29,18.486-41.29,41.29
				c0,4.792,0.976,9.322,2.478,13.602c-16.152,8.164-27.252,24.869-27.252,44.205c0,27.279,22.048,49.398,49.295,49.536
				c6.972,6.359,16.159,10.335,26.339,10.335c7.569,0,14.572-2.244,20.565-5.958c3.075,0.575,6.232,0.914,9.475,0.914
				c6.262,0,12.235-1.173,17.786-3.22c16.145,2.242,32.419,4.122,33.443,2.758c0.821-1.094-1.017-15.148-3.527-31.671
				C217.006,250.779,217.968,247.48,218.613,244.07z"/>
		</g>
		<g>
			<path style="fill:#71BE63;" d="M218.613,244.07c3.781-5.444,6.028-12.032,6.028-19.162c0-15.051-9.941-27.645-23.565-31.958
				c-0.121-0.099-0.219-0.224-0.341-0.323c1.216-3.443,2.004-7.09,2.004-10.949c0-18.243-14.789-33.032-33.032-33.032
				c-2.642,0-5.177,0.39-7.64,0.976c-7.48-10.554-19.731-17.492-33.651-17.492c-10.703,0-20.361,4.177-27.697,10.856
				c3.422-0.919,6.953-1.566,10.665-1.566c13.92,0,26.171,6.938,33.651,17.492c2.463-0.586,4.998-0.976,7.64-0.976
				c18.243,0,33.032,14.789,33.032,33.032c0,3.859-0.787,7.507-2.004,10.949c0.122,0.098,0.22,0.223,0.341,0.323
				c13.624,4.313,23.565,16.907,23.565,31.958c0,7.131-2.246,13.718-6.028,19.162c-0.646,3.411-1.608,6.71-2.885,9.85
				c1.258,8.284,2.346,15.943,3.017,21.664c9.522,1.095,16.867,1.617,17.542,0.717c0.821-1.094-1.017-15.148-3.527-31.671
				C217.006,250.779,217.968,247.48,218.613,244.07z"/>
		</g>
	</g>
	<g>
		<path style="fill:#94D75B;" d="M10.997,330.323C42.849,435.454,140.469,512,256,512s213.151-76.546,245.003-181.677H10.997z"/>
	</g>
	<g>
		<polygon style="fill:#DE7E68;" points="198.194,222.968 272.516,148.645 421.161,297.29 421.161,355.097 198.194,355.097 		"/>
	</g>
	<g>
		<rect x="252.301" y="352.344" style="fill:#99645F;" width="176.774" height="8.341"/>
	</g>
	<g>
		<polygon style="fill:#B66E6E;" points="247.742,355.097 148.645,355.097 148.645,289.032 198.194,264.258 247.742,289.032 		"/>
	</g>
	<g style="opacity:0.6;">
		<path style="fill:#FFFFFF;" d="M318.377,94.587c-2.112,0-4.108,0.416-6.021,1.019c-6.06-8.711-16.112-14.438-27.528-14.438
			c-11.416,0-21.468,5.727-27.528,14.438c-1.913-0.603-3.909-1.019-6.021-1.019c-11.117,0-20.129,9.012-20.129,20.129h107.355
			C338.506,103.599,329.494,94.587,318.377,94.587z"/>
	</g>
	<g style="opacity:0.6;">
		<path style="fill:#FFFFFF;" d="M371.699,130.538c-1.002,0-1.949,0.197-2.856,0.483c-2.874-4.132-7.643-6.849-13.058-6.849
			s-10.183,2.717-13.058,6.849c-0.907-0.286-1.854-0.483-2.856-0.483c-5.273,0-9.548,4.275-9.548,9.548h50.925
			C381.247,134.813,376.972,130.538,371.699,130.538z"/>
	</g>
	<g style="opacity:0.6;">
		<path style="fill:#FFFFFF;" d="M269.501,41.376c-1.002,0-1.949,0.197-2.856,0.483c-2.875-4.132-7.643-6.849-13.058-6.849
			c-5.415,0-10.183,2.717-13.058,6.849c-0.907-0.286-1.854-0.483-2.856-0.483c-5.273,0-9.548,4.275-9.548,9.548h50.925
			C279.05,45.651,274.775,41.376,269.501,41.376z"/>
	</g>
	<g>
		<path style="fill:#FFFFFF;" d="M440.043,146.172c-1.557,0-3.028,0.306-4.438,0.751c-4.467-6.422-11.877-10.644-20.293-10.644
			s-15.826,4.222-20.293,10.644c-1.41-0.445-2.882-0.751-4.438-0.751c-8.195,0-14.839,6.643-14.839,14.839h79.14
			C454.882,152.816,448.238,146.172,440.043,146.172z"/>
	</g>
	<g>
		<path style="fill:#FFFFFF;" d="M188.29,88.579c-1.877,0-3.651,0.369-5.351,0.905c-5.385-7.741-14.318-12.831-24.463-12.831
			s-19.078,5.09-24.463,12.831c-1.7-0.536-3.474-0.905-5.351-0.905c-9.879,0-17.888,8.009-17.888,17.888h95.403
			C206.178,96.588,198.17,88.579,188.29,88.579z"/>
	</g>
	<g>
		<g>
			<polygon style="fill:#99645F;" points="425.04,309.927 272.516,157.403 194.315,235.605 185.556,226.847 272.516,139.887 
				433.798,301.169 			"/>
		</g>
	</g>
	<g>
		<g>
			<polygon style="fill:#99645F;" points="251.685,297.927 198.194,271.181 144.702,297.927 139.169,286.847 198.194,257.335 
				257.218,286.847 			"/>
		</g>
	</g>
	<g>
		<g>
			<rect x="222.968" y="231.226" style="fill:#63A0B5;" width="24.774" height="33.032"/>
		</g>
		<g>
			<path style="fill:#556483;" d="M249.806,266.323h-28.903v-37.161h28.903V266.323z M225.032,262.194h20.645V233.29h-20.645
				V262.194z"/>
		</g>
		<g>
			<rect x="222.968" y="237.419" style="fill:#556483;" width="24.774" height="4.129"/>
		</g>
	</g>
	<g>
		<g>
			<rect x="264.258" y="231.226" style="fill:#63A0B5;" width="24.774" height="33.032"/>
		</g>
		<g>
			<path style="fill:#556483;" d="M291.097,266.323h-28.903v-37.161h28.903V266.323z M266.323,262.194h20.645V233.29h-20.645
				V262.194z"/>
		</g>
		<g>
			<rect x="264.258" y="237.419" style="fill:#556483;" width="24.774" height="4.129"/>
		</g>
	</g>
	<g>
		<g>
			<rect x="305.548" y="231.226" style="fill:#63A0B5;" width="24.774" height="33.032"/>
		</g>
		<g>
			<path style="fill:#556483;" d="M332.387,266.323h-28.903v-37.161h28.903V266.323z M307.613,262.194h20.645V233.29h-20.645
				V262.194z"/>
		</g>
		<g>
			<rect x="305.548" y="237.419" style="fill:#556483;" width="24.774" height="4.129"/>
		</g>
	</g>
	<g>
		<g>
			<rect x="280.774" y="297.29" style="fill:#63A0B5;" width="24.774" height="33.032"/>
		</g>
		<g>
			<path style="fill:#556483;" d="M307.613,332.387H278.71v-37.161h28.903V332.387z M282.839,328.258h20.645v-28.903h-20.645
				V328.258z"/>
		</g>
		<g>
			<rect x="280.774" y="303.484" style="fill:#556483;" width="24.774" height="4.129"/>
		</g>
	</g>
	<g>
		<g>
			<rect x="322.065" y="297.29" style="fill:#63A0B5;" width="24.774" height="33.032"/>
		</g>
		<g>
			<path style="fill:#556483;" d="M348.903,332.387H320v-37.161h28.903V332.387z M324.129,328.258h20.645v-28.903h-20.645V328.258z"
				/>
		</g>
		<g>
			<rect x="322.065" y="303.484" style="fill:#556483;" width="24.774" height="4.129"/>
		</g>
	</g>
	<g>
		<g>
			<rect x="363.355" y="297.29" style="fill:#63A0B5;" width="24.774" height="33.032"/>
		</g>
		<g>
			<path style="fill:#556483;" d="M390.194,332.387H361.29v-37.161h28.903V332.387z M365.419,328.258h20.645v-28.903h-20.645
				V328.258z"/>
		</g>
		<g>
			<rect x="363.355" y="303.484" style="fill:#556483;" width="24.774" height="4.129"/>
		</g>
	</g>
	<g>
		<g>
			<rect x="165.161" y="297.29" style="fill:#63A0B5;" width="24.774" height="33.032"/>
		</g>
		<g>
			<path style="fill:#556483;" d="M192,332.387h-28.903v-37.161H192V332.387z M167.226,328.258h20.645v-28.903h-20.645V328.258z"/>
		</g>
		<g>
			<rect x="165.161" y="303.484" style="fill:#556483;" width="24.774" height="4.129"/>
		</g>
	</g>
	<g>
		<g>
			<rect x="206.452" y="297.29" style="fill:#63A0B5;" width="24.774" height="33.032"/>
		</g>
		<g>
			<path style="fill:#556483;" d="M233.29,332.387h-28.903v-37.161h28.903V332.387z M208.516,328.258h20.645v-28.903h-20.645
				V328.258z"/>
		</g>
		<g>
			<rect x="206.452" y="303.484" style="fill:#556483;" width="24.774" height="4.129"/>
		</g>
	</g>
	<g>
		<g>
			<path style="fill:#71BE63;" d="M198.472,338.296c-3.193,0-6.212,0.629-9.104,1.541c-9.163-13.172-24.362-21.832-41.623-21.832
				s-32.461,8.66-41.623,21.832c-2.892-0.912-5.911-1.541-9.104-1.541c-16.81,0-30.436,13.627-30.436,30.436h162.327
				C228.908,351.923,215.281,338.296,198.472,338.296z"/>
		</g>
		<g>
			<path style="fill:#43AB5F;" d="M178.955,338.295c-3.193,0-6.212,0.629-9.104,1.541c-7.374-10.6-18.743-18.02-31.865-20.614
				c-13.122,2.594-24.491,10.014-31.865,20.614c-2.893-0.912-5.911-1.541-9.104-1.541c-16.81,0-30.437,13.627-30.437,30.437h142.811
				C209.392,351.922,195.765,338.295,178.955,338.295z"/>
		</g>
	</g>
	<g>
		<g>
			<path style="fill:#71BE63;" d="M196.975,368.583c0-9.776,7.925-17.702,17.702-17.702c1.476,0,2.886,0.233,4.257,0.574
				c4.619-4.988,11.168-8.16,18.503-8.16c13.966,0,25.288,11.322,25.288,25.288H196.975z"/>
		</g>
		<g>
			<path style="fill:#43AB5F;" d="M233.012,343.77c-5.517,0.996-10.417,3.73-14.079,7.685c-1.371-0.34-2.781-0.573-4.257-0.573
				c-9.777,0-17.702,7.925-17.702,17.702h56.612C253.587,356.231,244.72,345.982,233.012,343.77z"/>
		</g>
	</g>
	<g>
		<path style="fill:#71BE63;" d="M256,512c92.136,0,172.761-48.767,217.84-121.806H38.16C83.239,463.233,163.864,512,256,512z"/>
	</g>
	<g>
		<path style="fill:#43AB5F;" d="M427.257,445.935H84.743C130.083,486.924,190.051,512,256,512S381.917,486.924,427.257,445.935z"/>
	</g>
	<g>
		<path style="fill:#94D75B;" d="M67.479,325.04c-0.989,0-1.923,0.195-2.819,0.477c-2.837-4.078-7.544-6.76-12.888-6.76
			s-10.051,2.681-12.888,6.76c-0.896-0.282-1.83-0.477-2.819-0.477c-5.205,0-9.424,4.219-9.424,9.424h50.263
			C76.904,329.26,72.684,325.04,67.479,325.04z"/>
	</g>
	<g>
		<path style="fill:#94D75B;" d="M429.075,334.709c0-6.656,5.396-12.052,12.052-12.052c1.005,0,1.965,0.159,2.898,0.391
			c3.145-3.396,7.604-5.556,12.597-5.556c9.509,0,17.217,7.708,17.217,17.217H429.075z"/>
	</g>
	<g>
		<path style="fill:#FFFFFF;" d="M179.792,117.927c0-11.59,9.395-20.985,20.985-20.985c1.749,0,3.422,0.277,5.046,0.68
			c5.476-5.913,13.24-9.674,21.935-9.674c16.557,0,29.979,13.422,29.979,29.979H179.792z"/>
	</g>
	<g>
		<path style="fill:#FFFFFF;" d="M349.157,91.643c0-7.125,5.776-12.901,12.901-12.901c1.075,0,2.104,0.17,3.102,0.418
			c3.366-3.635,8.139-5.947,13.485-5.947c10.179,0,18.43,8.252,18.43,18.43H349.157z"/>
	</g>
	<g>
		<circle style="fill:#94D75B;" cx="245.419" cy="492.043" r="6.882"/>
	</g>
	<g>
		<circle style="fill:#94D75B;" cx="323.441" cy="472.086" r="6.882"/>
	</g>
	<g>
		<circle style="fill:#B0EB81;" cx="140.903" cy="425.921" r="4.76"/>
	</g>
	<g>
		<circle style="fill:#94D75B;" cx="192.561" cy="408.946" r="4.76"/>
	</g>
	<g>
		<circle style="fill:#94D75B;" cx="108.661" cy="413.706" r="4.76"/>
	</g>
	<g>
		<circle style="fill:#B0EB81;" cx="218.839" cy="421.161" r="4.76"/>
	</g>
	<g>
		<circle style="fill:#B0EB81;" cx="318.681" cy="408.946" r="4.76"/>
	</g>
	<g>
		<circle style="fill:#B0EB81;" cx="414.848" cy="413.706" r="4.76"/>
	</g>
	<g>
		<circle style="fill:#94D75B;" cx="279.398" cy="424.774" r="4.76"/>
	</g>
	<g>
		<circle style="fill:#94D75B;" cx="380.502" cy="424.774" r="4.76"/>
	</g>
	<g>
		<circle style="fill:#71BE63;" cx="192.561" cy="478.28" r="6.882"/>
	</g>
	<g>
		<circle style="fill:#71BE63;" cx="269.606" cy="469.161" r="6.882"/>
	</g>
</g>
<g>
</g>
<g>
</g>
<g>
</g>
<g>
</g>
<g>
</g>
<g>
</g>
<g>
</g>
<g>
</g>
<g>
</g>
<g>
</g>
<g>
</g>
<g>
</g>
<g>
</g>
<g>
</g>
<g>
</g>
</svg>
