<?xml version="1.0" encoding="iso-8859-1"?>
<!-- Generator: Adobe Illustrator 19.0.0, SVG Export Plug-In . SVG Version: 6.00 Build 0)  -->
<svg version="1.1" id="Capa_1" xmlns="http://www.w3.org/2000/svg" xmlns:xlink="http://www.w3.org/1999/xlink" x="0px" y="0px"
	 viewBox="0 0 512 512" style="enable-background:new 0 0 512 512;" xml:space="preserve">
<g>
	<g>
		<circle style="fill:#95C4F8;" cx="256" cy="256" r="256"/>
	</g>
	<g>
		<path style="fill:#926E79;" d="M230.667,220c-14,0-34.667-4.532-48-16.266C169.333,192,148,178.667,143.333,178.667
			c-4.667,0-18.167,10.667-28.417,13.333s-17.583,4.667-28.25,7.333C76,202,55.333,210.667,55.333,210.667s0.49,10.03,0,13.667
			c-0.49,3.636,59.333,10.333,87.667,7C171.333,228,230.667,220,230.667,220z"/>
	</g>
	<g>
		<path style="fill:#926E79;" d="M476.333,196.333c-17-5.5-25-9-41.5-3s-39,15.653-53.5,16.077
			c-14.5,0.423-68.167,14.923-68.167,14.923l173.667-2.5L476.333,196.333z"/>
	</g>
	<g>
		<rect x="60.058" y="220" style="fill:#DDF9FF;" width="405.942" height="92"/>
	</g>
	<g>
		<path style="fill:#FFFFFF;" d="M466,220H65.2c-2.119,1.258-3.956,2.457-5.142,3.43v2.327c3.276,0.767,11.787-0.11,11.787-0.11
			c6.905,0,7.455,11.103,13.655,11.103c4.75,0,5.755-5.25,11.75-5.25c4.798,0,2,18.5,8.75,18.5c3.409,0,8.583-11.46,11.333-4.126
			S118.514,264,123,264c5.75,0,8.333-28.667,12-22c3.667,6.667,7.892,7.886,9.5,0.25c2-9.5,5.5-17.25,8.834-7.917
			c3.333,9.333,3.76,21.667,8.167,21.667c3.312,0,7.167-23.333,10.5-18c3.333,5.333,6.333,30.333,8.667,22.667
			c2.333-7.667,8.667-35.333,12-28.667c3.333,6.667,6,4.667,10,1c4-3.667,6.333,19.667,9.333,16.667s8-22,11-17s9,31,11.667,27.333
			c2.667-3.667,5-30.667,9-26.333S247,245,253.333,245c2.667,0,10.333-21,12.667-14.333s5.159,27.01,9.667,27.01
			c3.604,0,2-28.01,9.667-28.01c5,0,5.245,15.333,10.333,15.333c3.667,0,9.667-23.667,11.667-16c2,7.667,1.333,47,6.333,47
			c4.638,0,5.667-48,9-44.333c3.333,3.667,7.667,4.333,11.333-1s3,21.062,7,18.031c4-3.031,4.667-23.031,9.667-17.698
			c5,5.333,7.986,18.545,11.554,18.545c6.546,0,4.195-15.628,9.71-15.628c7.403,0,5.736,38.536,10.917,38.536
			c5.819,0,7.818-46.453,13.818-40.12c6,6.333,6.001,15.667,10.334,15.667s7.666-23.333,10-11.667c2.334,11.667,4,30,10.666,15.667
			c6.668-14.333,5.875-13.199,8.438-8.766c1.699,2.938,18.643-10.807,29.896-20.425V220z"/>
	</g>
	<g>
		<path style="fill:#86646A;" d="M0.116,260.571c0.31,17.638,2.397,34.833,6.103,51.429H120c0-20-33.556-36.667-43.532-64
			c-7.138-19.557-2.32-33.705-10.883-40c-16.225-11.927-31.423-21.483-55.375-23.555c-6.116,21.042-9.591,43.192-10.073,66.091
			L0.116,260.571z"/>
	</g>
	<g>
		<path style="fill:#B3F4EF;" d="M6.218,312C31.768,426.438,133.86,512,256,512s224.232-85.563,249.781-200H6.218z"/>
	</g>
	<g style="opacity:0.5;">
		<path style="fill:#FFFFFF;" d="M282.193,133.039c-1.909,0-3.714,0.376-5.443,0.921c-5.478-7.875-14.566-13.053-24.887-13.053
			s-19.408,5.178-24.887,13.053c-1.729-0.545-3.534-0.921-5.443-0.921c-10.051,0-18.198,8.148-18.198,18.198h97.056
			C300.391,141.187,292.244,133.039,282.193,133.039z"/>
	</g>
	<g>
		<path style="fill:#FFFFFF;" d="M348.276,144.154c-2.334,0-4.541,0.459-6.655,1.126c-6.698-9.628-17.809-15.959-30.427-15.959
			s-23.729,6.33-30.427,15.959c-2.114-0.667-4.321-1.126-6.655-1.126c-12.288,0-22.249,9.961-22.249,22.249h118.661
			C370.525,154.115,360.563,144.154,348.276,144.154z"/>
	</g>
	<g>
		<path style="fill:#FFFFFF;" d="M408.824,117.474c-1.311,0-2.55,0.258-3.737,0.632c-3.761-5.407-10.001-8.962-17.087-8.962
			s-13.325,3.555-17.087,8.962c-1.187-0.374-2.426-0.632-3.737-0.632c-6.9,0-12.494,5.594-12.494,12.494h66.637
			C421.318,123.067,415.724,117.474,408.824,117.474z"/>
	</g>
	<g>
		<path style="fill:#FFFFFF;" d="M88.511,120.907c0-9.095,7.373-16.469,16.469-16.469c1.373,0,2.685,0.217,3.96,0.534
			c4.297-4.641,10.39-7.592,17.214-7.592c12.993,0,23.527,10.533,23.527,23.527H88.511z"/>
	</g>
	<g>
		<path style="fill:#FFFFFF;" d="M128.159,110.238c0-10.308,8.357-18.665,18.665-18.665c1.556,0,3.043,0.246,4.488,0.605
			c4.87-5.26,11.776-8.604,19.51-8.604c14.726,0,26.664,11.938,26.664,26.664H128.159z"/>
	</g>
	<g style="opacity:0.5;">
		<path style="fill:#FFFFFF;" d="M208.071,75.648h78.858c0-8.166-6.62-14.786-14.786-14.786c-1.551,0-3.017,0.306-4.422,0.749
			c-4.451-6.399-11.835-10.606-20.221-10.606c-4.091,0-7.928,1.031-11.318,2.799c-3.458-6.636-10.321-11.217-18.322-11.217
			c-6.015,0-11.386,2.601-15.174,6.692c-1.124-0.279-2.281-0.471-3.491-0.471c-8.018,0-14.518,6.5-14.518,14.518h30.025
			C210.711,65.974,208.071,70.499,208.071,75.648z"/>
	</g>
	<g>
		<path style="fill:#FFFFFF;" d="M361.304,85.604c0-13.085-10.607-23.692-23.692-23.692c-1.975,0-3.863,0.312-5.697,0.768
			c-6.182-6.676-14.948-10.922-24.764-10.922c-18.693,0-33.846,15.154-33.846,33.846H361.304z"/>
	</g>
	<g>
		<path style="fill:#52C883;" d="M35.867,386.667H176c0-10.31-8.357-18.667-18.667-18.667c-2.223,0-4.326,0.455-6.303,1.167
			c-5.133-6.355-12.892-10.501-21.697-10.501c-6.352,0-12.141,2.195-16.838,5.758c-6.807-9.111-17.58-15.092-29.829-15.092
			c-10.536,0-20.012,4.401-26.8,11.421c-3.255-1.325-6.802-2.087-10.533-2.087c-3.732,0-7.278,0.762-10.534,2.087
			c-4.474-4.627-10.187-7.953-16.53-9.794C23.231,363.368,29.108,375.305,35.867,386.667z"/>
	</g>
	<g>
		<path style="fill:#86646A;" d="M512,256c0-24.517-3.519-48.199-9.953-70.648c-19.074,3.035-32.774,11.227-45.354,22.648
			c-18.174,16.5-37.645,96-72.693,96l-10.485,8l69.243,18l63.024-18C509.808,293.968,512,275.245,512,256z"/>
	</g>
	<g>
		<path style="fill:#745154;" d="M512,256c0-13.56-1.074-26.866-3.105-39.855c-18.386,0.949-27.257-7.338-31.895,3.855
			c-9.667,23.333-20.181,8.667-25,36c-2.645,15-38,49.295-47,54.647S406,335,424,330c11.373-3.159,51.872-7.913,80.163-10.987
			C509.267,298.853,512,277.747,512,256z"/>
	</g>
	<g>
		<path style="fill:#745154;" d="M68.667,272.453c-9.333-8.213-8-29.787-8.608-35.216c-0.609-5.43-7.696-10.97-10.725-17.237
			C44.5,210,34,203.734,5.506,203.734c-3.146,15.163-5.031,30.785-5.368,46.803l-0.022,10.035
			c0.31,17.638,2.397,34.833,6.103,51.429h111.115C117.333,303.333,78,280.667,68.667,272.453z"/>
	</g>
	<g>
		<path style="fill:#FFFFFF;" d="M373.515,302.667c-2.14,0-4.017,0.843-5.591,2.054c-1.574-1.21-3.451-2.054-5.59-2.054
			c-2.631,0-4.985,1.104-6.682,2.855c-1.696-1.75-4.051-2.855-6.681-2.855c-5.155,0-9.333,4.179-9.333,9.333
			c0,5.154,4.179,9.333,9.333,9.333c2.63,0,4.985-1.104,6.681-2.855c1.696,1.75,4.051,2.855,6.682,2.855
			c2.139,0,4.016-0.844,5.59-2.054c1.574,1.21,3.451,2.054,5.591,2.054c5.155,0,9.333-4.179,9.333-9.333
			C382.848,306.845,378.67,302.667,373.515,302.667z"/>
	</g>
	<g>
		<path style="fill:#FFFFFF;" d="M317.169,312.667c0.017-0.232,0.135-0.43,0.135-0.667c0-5.155-4.179-9.333-9.333-9.333
			c-2.765,0-5.181,1.255-6.89,3.165c-1.818-2.234-4.476-3.748-7.581-3.748c-3.436,0-6.316,1.856-8.095,4.512
			c-1.698-2.321-4.309-3.928-7.405-3.928c-2.231,0-4.197,0.891-5.803,2.197c-2.135-2.738-5.427-4.53-9.168-4.53
			c-3.365,0-6.374,1.446-8.503,3.725c-1.38-0.805-2.896-1.392-4.609-1.392c-1.642,0-3.105,0.537-4.446,1.282
			c-1.589-1.083-3.402-1.865-5.471-1.865c-2.873,0-5.41,1.262-7.221,3.214c-1.678-1.613-3.936-2.63-6.446-2.63
			c-3.192,0-5.871,1.705-7.554,4.149c-1.598-2.111-4.012-3.565-6.863-3.565c-2.79,0-5.166,1.39-6.768,3.424
			c-1.771-2.701-4.678-4.591-8.149-4.591c-1.942,0-3.649,0.704-5.179,1.668c-1.265-0.641-2.64-1.085-4.155-1.085
			c-2.467,0-4.676,0.999-6.345,2.563c-1.488-1.17-3.281-1.979-5.321-1.979c-2.503,0-4.727,1.078-6.321,2.762
			c-1.712-2.005-4.169-3.346-7.012-3.346c-2.743,0-5.15,1.232-6.857,3.117c-1.581-1.561-3.746-2.533-6.143-2.533
			c-1.912,0-3.587,0.74-5.027,1.781c-2.128-2.836-5.487-4.698-9.306-4.698c-3.297,0-6.262,1.38-8.384,3.58
			c-1.016-0.413-2.119-0.663-3.283-0.663c-4.833,0-8.75,3.917-8.75,8.75c0,0.236,0.116,0.435,0.135,0.667H317.169z"/>
	</g>
	<g>
		<path style="fill:#52C883;" d="M507.029,306.301c-7.602-7.133-17.781-11.551-29.029-11.551c-15.752,0-29.346,8.669-36.687,21.401
			c-4.081-2.774-9.006-4.401-14.313-4.401c-3.398,0-6.628,0.694-9.593,1.901c-6.183-6.393-14.812-10.401-24.407-10.401
			c-9.595,0-18.225,4.008-24.406,10.401c-2.965-1.207-6.195-1.901-9.594-1.901s-6.628,0.694-9.593,1.901
			c-6.182-6.393-14.812-10.401-24.407-10.401c-11.154,0-20.965,5.446-27.165,13.744c-4.278-3.245-9.551-5.244-15.335-5.244
			c-8.019,0-15.085,3.776-19.76,9.563c-1.801-0.649-3.716-1.063-5.74-1.063c-9.389,0-17,7.611-17,17h258.757
			C502.123,327.19,504.922,316.874,507.029,306.301z"/>
	</g>
	<g>
		<path style="fill:#86646A;" d="M65.925,302.417c-10.502,0-19.015,6.082-19.015,13.583H84.94
			C84.94,308.498,76.427,302.417,65.925,302.417z"/>
	</g>
	<g>
		<path style="fill:#745154;" d="M429.706,323.964c-11.029,0-32.667,23.351-49.132,23.351h81.489
			C446.595,335.348,452.209,323.964,429.706,323.964z"/>
	</g>
	<g>
		<path style="fill:#86646A;" d="M41.043,307.625c-10.502,0-19.015,6.082-19.015,13.583h38.031
			C60.058,313.706,51.545,307.625,41.043,307.625z"/>
	</g>
	<g>
		<path style="fill:#86646A;" d="M388.348,330c-12.272,0-36.348,25.981-54.668,25.981h90.669
			C407.139,342.667,413.386,330,388.348,330z"/>
	</g>
	<g>
		<path style="fill:#43AB5F;" d="M134.119,389.146c-2.518,0-4.9,0.515-7.14,1.323c-5.815-7.199-14.604-11.896-24.579-11.896
			c-7.195,0-13.753,2.486-19.075,6.523C75.614,374.774,63.41,368,49.535,368c-7.62,0-14.74,2.048-20.901,5.587
			c6.692,12.92,14.46,25.188,23.17,36.705h103.461C155.265,398.613,145.798,389.146,134.119,389.146z"/>
	</g>
</g>
<g>
</g>
<g>
</g>
<g>
</g>
<g>
</g>
<g>
</g>
<g>
</g>
<g>
</g>
<g>
</g>
<g>
</g>
<g>
</g>
<g>
</g>
<g>
</g>
<g>
</g>
<g>
</g>
<g>
</g>
</svg>
