<svg height="512pt" viewBox="-30 0 511 512" width="512pt" xmlns="http://www.w3.org/2000/svg"><path d="m225.703125 208.789062c-26.035156 0-47.222656 21.1875-47.222656 47.222657 0 26.039062 21.1875 47.222656 47.222656 47.222656 26.039063 0 47.222656-21.183594 47.222656-47.222656 0-26.035157-21.179687-47.222657-47.222656-47.222657zm0 0" fill="#e0f4ff"/><path d="m225.691406 512c-20.664062 0-50.152344-13.996094-73.277344-80.671875-16.316406-47.058594-25.304687-109.324219-25.304687-175.328125s8.984375-128.269531 25.304687-175.324219c23.125-66.679687 52.613282-80.675781 73.277344-80.675781 20.660156 0 50.148438 13.996094 73.273438 80.671875 16.320312 47.058594 25.308594 109.324219 25.308594 175.328125 0 66-8.988282 128.265625-25.308594 175.324219-23.125 66.679687-52.613282 80.675781-73.273438 80.675781zm0-481.996094c-11.578125 0-29.457031 15.894532-44.925781 60.5-15.253906 43.980469-23.652344 102.753906-23.652344 165.496094s8.398438 121.515625 23.652344 165.496094c15.46875 44.605468 33.347656 60.5 44.925781 60.5 11.574219 0 29.453125-15.894532 44.925782-60.5 15.25-43.980469 23.648437-102.753906 23.648437-165.496094s-8.398437-121.515625-23.648437-165.496094c-15.472657-44.605468-33.351563-60.5-44.925782-60.5zm0 0" fill="#ffcb00"/><path d="m298.964844 80.671875c-23.121094-66.660156-52.597656-80.6640625-73.261719-80.671875v30.003906c11.578125.015625 29.449219 15.914063 44.910156 60.5 15.253907 43.976563 23.652344 102.75 23.652344 165.496094 0 62.742188-8.398437 121.515625-23.652344 165.496094-15.460937 44.585937-33.332031 60.484375-44.910156 60.496094v30.007812c20.664063-.007812 50.140625-14.011719 73.261719-80.675781 16.316406-47.058594 25.304687-109.324219 25.304687-175.324219 0-66.003906-8.984375-128.269531-25.304687-175.328125zm0 0" fill="#ecbd00"/><path d="m64.1875 432.960938c-17.550781 0-41.273438-3.914063-54.605469-22.574219-12.375-17.324219-18.265625-50.484375 23.96875-110.0625 29.910157-42.199219 77.109375-87.390625 132.898438-127.246094 81.199219-58.007813 165.78125-94.042969 220.742187-94.042969 17.554688 0 41.277344 3.917969 54.605469 22.578125 12.375 17.324219 18.265625 50.484375-23.96875 110.0625-29.910156 42.199219-77.109375 87.386719-132.898437 127.246094-81.199219 58.003906-165.78125 94.039063-220.742188 94.039063zm323.003906-323.917969c-48.285156 0-128.085937 34.71875-203.300781 88.449219-53.136719 37.960937-97.835937 80.644531-125.863281 120.183593-23.902344 33.71875-33.109375 62.5625-24.03125 75.269531 5.914062 8.273438 19.683594 10.011719 30.191406 10.011719 48.285156 0 128.085938-34.71875 203.300781-88.453125 53.136719-37.960937 97.835938-80.640625 125.863281-120.179687 23.902344-33.71875 33.109376-62.5625 24.03125-75.269531-5.914062-8.277344-19.683593-10.011719-30.191406-10.011719zm0 0" fill="#8ee16a"/><path d="m441.796875 101.613281c-13.328125-18.660156-37.050781-22.578125-54.605469-22.578125-41.621094 0-100.226562 20.679688-161.488281 55.898438v34.902344c61.734375-37.683594 122.097656-60.792969 161.488281-60.792969 10.507813 0 24.277344 1.738281 30.191406 10.011719 9.078126 12.707031-.128906 41.550781-24.03125 75.269531-28.027343 39.539062-72.726562 82.222656-125.863281 120.183593-13.847656 9.890626-27.851562 19.132813-41.78125 27.636719v34.902344c19.625-11.285156 39.523438-24.050781 59.222657-38.125 55.789062-39.855469 102.988281-85.046875 132.902343-127.246094 42.230469-59.578125 36.339844-92.738281 23.964844-110.0625zm0 0" fill="#00ca76"/><path d="m387.195312 432.960938c-.003906 0-.003906 0-.003906 0-54.964844 0-139.546875-36.035157-220.742187-94.039063-55.789063-39.859375-102.988281-85.046875-132.898438-127.246094-42.234375-59.578125-36.34375-92.738281-23.96875-110.0625 13.332031-18.660156 37.050781-22.578125 54.605469-22.578125 54.960938 0 139.542969 36.035156 220.742188 94.042969 55.789062 39.855469 102.988281 85.046875 132.898437 127.246094 42.234375 59.578125 36.34375 92.738281 23.96875 110.0625-13.328125 18.65625-37.050781 22.574219-54.601563 22.574219zm-323.007812-323.917969c-10.507812 0-24.277344 1.734375-30.191406 10.011719-9.078125 12.707031.128906 41.550781 24.03125 75.269531 28.027344 39.539062 72.726562 82.21875 125.863281 120.179687 75.210937 53.734375 155.011719 88.453125 203.300781 88.453125h.003906c10.507813 0 24.273438-1.734375 30.1875-10.011719 9.078126-12.707031-.128906-41.550781-24.03125-75.269531-28.027343-39.539062-72.726562-82.222656-125.863281-120.183593-75.214843-53.730469-155.011719-88.449219-203.300781-88.449219zm0 0" fill="#ff415b"/><path d="m417.828125 300.324219c-29.910156-42.199219-77.109375-87.390625-132.898437-127.246094-19.703126-14.074219-39.597657-26.839844-59.226563-38.125v34.902344c13.933594 8.503906 27.9375 17.746093 41.78125 27.636719 53.140625 37.960937 97.835937 80.644531 125.867187 120.183593 23.898438 33.71875 33.109376 62.5625 24.03125 75.269531-5.914062 8.277344-19.679687 10.011719-30.1875 10.011719h-.003906c-39.394531 0-99.753906-23.113281-161.488281-60.792969v34.902344c61.257813 35.21875 119.863281 55.894532 161.484375 55.894532h.007812c17.550782 0 41.273438-3.917969 54.601563-22.574219 12.375-17.324219 18.265625-50.484375-23.96875-110.0625zm0 0" fill="#cd0000"/><path d="m413.234375 161.523438c-16.625 0-30.148437 13.523437-30.148437 30.148437 0 16.621094 13.523437 30.148437 30.148437 30.148437s30.144531-13.527343 30.144531-30.148437c0-16.625-13.523437-30.148437-30.144531-30.148437zm0 0" fill="#bbdcff"/><path d="m46.050781 278.5c-16.625 0-30.148437 13.523438-30.148437 30.148438 0 16.621093 13.523437 30.148437 30.148437 30.148437s30.148438-13.527344 30.148438-30.148437c0-16.625-13.523438-30.148438-30.148438-30.148438zm0 0" fill="#bbdcff"/><path d="m413.234375 161.523438c-16.625 0-30.148437 13.523437-30.148437 30.148437 0 16.621094 13.523437 30.148437 30.148437 30.148437s30.144531-13.527343 30.144531-30.148437c0-16.625-13.523437-30.148437-30.144531-30.148437zm0 0" fill="#9abadb"/><path d="m225.703125 208.789062v94.445313c26.039063 0 47.222656-21.183594 47.222656-47.222656 0-26.035157-21.179687-47.222657-47.222656-47.222657zm0 0" fill="#bbdcff"/></svg>