<?xml version="1.0" encoding="iso-8859-1"?>
<!-- Generator: Adobe Illustrator 19.0.0, SVG Export Plug-In . SVG Version: 6.00 Build 0)  -->
<svg version="1.1" id="Capa_1" xmlns="http://www.w3.org/2000/svg" xmlns:xlink="http://www.w3.org/1999/xlink" x="0px" y="0px"
	 viewBox="0 0 468.389 468.389" style="enable-background:new 0 0 468.389 468.389;" xml:space="preserve">
<g>
	<path style="fill:#FCD462;" d="M21.277,146.204v68.059h426.459v-62.439c0-3.122-2.498-6.244-6.244-6.244H21.277V146.204z"/>
	<path style="fill:#FCD462;" d="M437.746,53.169l-8.741-48.078c-0.624-3.122-3.746-5.62-6.868-4.995l-9.366,1.873l-21.854,3.746
		l-26.849,4.995l-21.854,3.746l-26.849,4.371l-21.854,3.746l-26.849,4.995l-21.854,3.746l-26.849,4.995l-21.229,3.746l-26.849,4.995
		l-21.854,3.746l-26.849,4.371l-21.854,3.746l-26.849,4.995l-21.854,3.746l-26.849,4.995l-2.498,0.624v74.927l13.737-2.498
		l21.854-3.746l26.849-4.995l21.854-3.746l26.849-4.995l21.854-3.746l26.849-4.995l21.854-3.746l26.849-4.995l21.854-3.746
		l26.849-4.995l21.854-3.746l26.849-4.995l21.854-3.746l26.849-4.995l21.854-3.746l26.849-4.995l10.615-1.873
		c3.122-0.624,5.62-3.746,4.995-6.868L437.746,53.169z"/>
</g>
<path style="fill:#44C4A1;" d="M429.004,468.389H39.385c-10.615,0-18.732-8.117-18.732-18.732V214.262h426.459v235.395
	C447.736,460.272,438.994,468.389,429.004,468.389z"/>
<g>
	<polygon style="fill:#3A556A;" points="23.775,70.652 21.277,70.652 21.277,114.36 35.014,143.706 56.868,139.96 	"/>
	<polygon style="fill:#3A556A;" points="105.57,131.218 83.716,134.965 50.624,65.657 72.477,61.911 	"/>
	<polygon style="fill:#3A556A;" points="154.273,122.477 132.419,126.223 99.326,56.916 121.18,53.169 	"/>
	<polygon style="fill:#3A556A;" points="202.975,113.735 181.121,117.482 148.029,48.799 169.882,44.428 	"/>
	<polygon style="fill:#3A556A;" points="251.677,105.618 229.824,109.365 196.731,40.057 218.585,36.311 	"/>
	<polygon style="fill:#3A556A;" points="300.38,96.877 278.526,100.623 245.434,31.316 267.287,27.569 	"/>
	<polygon style="fill:#3A556A;" points="349.082,88.135 327.229,91.882 293.512,22.574 315.365,18.828 	"/>
	<polygon style="fill:#3A556A;" points="397.785,79.394 375.307,83.765 342.214,14.457 364.068,10.087 	"/>
	<path style="fill:#3A556A;" d="M435.248,73.15l-10.615,1.873L390.916,5.716l21.854-3.746l24.976,51.824l2.498,12.488
		C440.243,69.404,438.37,72.526,435.248,73.15z"/>
	<polygon style="fill:#3A556A;" points="447.736,156.818 447.736,189.911 430.253,214.262 406.526,214.262 	"/>
	<polygon style="fill:#3A556A;" points="426.507,146.204 377.804,214.262 354.702,214.262 402.78,146.204 	"/>
	<polygon style="fill:#3A556A;" points="374.682,146.204 325.98,214.262 302.253,214.262 350.955,146.204 	"/>
	<polygon style="fill:#3A556A;" points="322.233,146.204 273.531,214.262 250.429,214.262 299.131,146.204 	"/>
	<polygon style="fill:#3A556A;" points="270.409,146.204 221.707,214.262 197.98,214.262 246.682,146.204 	"/>
	<polygon style="fill:#3A556A;" points="217.96,146.204 169.258,214.262 146.155,214.262 194.858,146.204 	"/>
	<polygon style="fill:#3A556A;" points="166.136,146.204 117.434,214.262 93.707,214.262 142.409,146.204 	"/>
	<polygon style="fill:#3A556A;" points="113.687,146.204 64.985,214.262 41.882,214.262 90.585,146.204 	"/>
	<polygon style="fill:#3A556A;" points="61.863,146.204 21.277,203.648 21.277,170.555 38.76,146.204 	"/>
</g>
<path style="fill:#2F4859;" d="M70.604,194.282H21.277V87.511h49.327c6.868,0,12.488,5.62,12.488,12.488v81.795
	C83.092,188.662,77.473,194.282,70.604,194.282z"/>
<g>
	<circle style="fill:#E1E6E9;" cx="51.873" cy="140.584" r="8.741"/>
	<circle style="fill:#E1E6E9;" cx="51.873" cy="169.306" r="8.741"/>
	<circle style="fill:#E1E6E9;" cx="51.873" cy="112.487" r="8.741"/>
</g>
<path style="fill:#E56353;" d="M310.994,341.638c0,3.746-1.873,8.117-6.244,10.615l-97.405,58.693
	c-8.117,4.995-18.732-1.249-18.732-10.615V282.945c0-9.366,10.615-15.61,18.732-10.615l97.405,58.693
	C309.121,332.896,310.994,337.267,310.994,341.638z"/>
<g>
</g>
<g>
</g>
<g>
</g>
<g>
</g>
<g>
</g>
<g>
</g>
<g>
</g>
<g>
</g>
<g>
</g>
<g>
</g>
<g>
</g>
<g>
</g>
<g>
</g>
<g>
</g>
<g>
</g>
</svg>
