<?xml version="1.0" encoding="iso-8859-1"?>
<!-- Generator: Adobe Illustrator 19.0.0, SVG Export Plug-In . SVG Version: 6.00 Build 0)  -->
<svg version="1.1" id="Capa_1" xmlns="http://www.w3.org/2000/svg" xmlns:xlink="http://www.w3.org/1999/xlink" x="0px" y="0px"
	 viewBox="0 0 468.302 468.302" style="enable-background:new 0 0 468.302 468.302;" xml:space="preserve">
<path style="fill:#3A556A;" d="M433.814,201.164c-0.839,0.839-1.678,1.678-2.59,2.444c-1.679,1.679-3.466,3.247-5.328,4.744
	c-6.02,5.072-12.478,9.414-19.192,13.062c-3.138,1.751-6.386,3.32-9.705,4.67c-7.918,3.466-16.164,5.947-24.519,7.516
	c-3.247,0.62-6.495,1.095-9.742,1.423c-8.173,0.876-16.382,0.839-24.519,0c-3.247-0.328-6.495-0.803-9.742-1.423
	c-8.356-1.569-16.601-4.05-24.519-7.516c-3.32-1.35-6.568-2.919-9.742-4.707c-6.75-3.612-13.135-7.954-19.155-13.026
	c-1.861-1.496-3.649-3.065-5.364-4.78c-0.912-0.766-1.715-1.569-2.554-2.408c-0.839-0.839-1.642-1.642-2.408-2.554
	c-1.715-1.715-3.284-3.503-4.779-5.364c-5.071-6.02-9.414-12.405-13.026-19.155c-1.788-3.175-3.357-6.422-4.707-9.742
	c-3.466-7.918-5.948-16.163-7.516-24.519c-0.62-3.247-1.095-6.495-1.423-9.742c-0.839-8.136-0.876-16.346,0-24.519
	c0.328-3.247,0.803-6.495,1.423-9.742c1.569-8.355,4.05-16.601,7.516-24.519c1.35-3.32,2.955-6.604,4.707-9.742
	c3.612-6.75,7.954-13.135,13.025-19.155c1.496-1.861,3.065-3.649,4.744-5.328c0.766-0.912,1.605-1.751,2.445-2.59
	c0.839-0.839,1.678-1.678,2.554-2.408c1.715-1.715,3.54-3.32,5.364-4.78c6.02-5.071,12.442-9.377,19.155-13.025
	c3.138-1.751,6.422-3.357,9.742-4.707c7.918-3.466,16.164-5.947,24.519-7.516c3.247-0.62,6.495-1.095,9.742-1.423
	c8.136-0.839,16.382-0.839,24.519,0c3.247,0.328,6.495,0.803,9.742,1.423c8.356,1.569,16.601,4.05,24.519,7.516
	c3.32,1.35,6.531,2.956,9.706,4.67c6.714,3.648,13.172,7.991,19.192,13.062c1.861,1.496,3.649,3.065,5.327,4.743
	c0.912,0.767,1.751,1.606,2.59,2.445c0.839,0.839,1.678,1.678,2.445,2.59c1.678,1.678,3.247,3.466,4.743,5.327
	c5.072,6.02,9.414,12.405,13.026,19.155c1.788,3.175,3.357,6.422,4.707,9.742c3.466,7.918,5.948,16.163,7.516,24.519
	c0.62,3.247,1.095,6.495,1.423,9.742c0.839,8.136,0.839,16.382,0,24.519c-0.328,3.247-0.803,6.495-1.423,9.742
	c-1.569,8.355-4.05,16.601-7.516,24.519c-1.35,3.32-2.955,6.604-4.707,9.742c-3.648,6.713-7.954,13.135-13.025,19.155
	c-1.46,1.825-3.065,3.649-4.78,5.364C435.492,199.486,434.653,200.325,433.814,201.164z"/>
<path style="fill:#2F4859;" d="M441.001,105.606l26.671-0.037c-0.328-3.247-0.803-6.495-1.423-9.742l-25.248,0.001V71.308h17.732
	c-1.35-3.32-2.919-6.567-4.707-9.742l-13.026,0.037V42.411c-1.496-1.861-3.065-3.648-4.743-5.326
	c-0.766-0.912-1.606-1.752-2.445-2.591c-0.839-0.839-1.678-1.678-2.59-2.445c-1.679-1.678-3.466-3.247-5.327-4.743h-19.192l0-13.062
	c-3.175-1.714-6.386-3.32-9.706-4.669v17.732h-24.519l0-25.248c-3.247-0.62-6.495-1.095-9.742-1.423l-0.036,26.671h-24.519
	l0.037-26.671c-3.247,0.329-6.495,0.803-9.742,1.423l0,25.248h-24.519h0V9.574c-3.32,1.349-6.604,2.954-9.742,4.706v13.063
	l-19.155-0.037c-1.825,1.46-3.649,3.065-5.364,4.78c-0.875,0.729-1.715,1.569-2.553,2.407c-0.839,0.84-1.678,1.678-2.445,2.591
	c-1.679,1.679-3.247,3.466-4.744,5.328v19.191l-13.026-0.037c-1.752,3.138-3.357,6.422-4.707,9.742h17.732v24.518h-25.248
	c-0.62,3.248-1.095,6.495-1.423,9.742l26.671,0.037v24.519l-26.671-0.037c0.328,3.248,0.803,6.495,1.423,9.742h25.248v24.519
	l-17.732-0.001c1.35,3.321,2.919,6.569,4.707,9.742l13.026,0.037v34.224h15.106l19.155,0.037v12.989
	c3.175,1.788,6.422,3.357,9.742,4.707v-17.732l0,0h24.519l0,25.248c3.247,0.62,6.495,1.095,9.742,1.424l-0.037-26.671l24.519-0.001
	l0.036,26.672c3.247-0.329,6.495-0.803,9.742-1.424l0-25.248h24.519h0v17.733c3.32-1.351,6.567-2.919,9.705-4.671v-13.063h19.191
	c1.861-1.495,3.649-3.064,5.328-4.743c0.912-0.766,1.751-1.605,2.59-2.444c0.839-0.839,1.678-1.678,2.408-2.553
	c1.715-1.716,3.321-3.54,4.78-5.364v-19.119l13.026-0.037c1.752-3.137,3.357-6.421,4.707-9.741l-17.732-0.001V139.83h25.248
	c0.62-3.247,1.095-6.494,1.423-9.742l-26.671,0.037V105.606z M431.223,95.827l-24.519,0.001l0-24.519h24.519h0V95.827z
	 M328.477,71.308l0,24.518h-24.519h0V71.308h0H328.477z M372.48,71.308h24.519v24.518l0,0H372.48V71.308L372.48,71.308z
	 M362.701,95.828l-24.519-0.001h0V71.308h24.519L362.701,95.828z M338.182,105.606L338.182,105.606h24.519l0,0v24.518l0,0
	l-24.482-0.037L338.182,105.606z M303.958,105.606h24.519l0,0v24.518l-24.519,0.001V105.606L303.958,105.606z M303.958,139.83
	h24.519v24.519h-24.519l0,0V139.83L303.958,139.83z M338.182,139.83h24.519v24.518v0.001h-24.519L338.182,139.83z M372.48,139.83
	h24.519v24.519H372.48V139.83z M372.479,130.124v-24.518l0,0h24.519l0,24.518H372.479z M431.223,37.084v24.518h0l-24.519,0.001
	l0-24.519H431.223z M396.998,61.603h-24.519l0-24.518h24.519V61.603z M362.701,37.084v24.518h-24.519V37.084H362.701z
	 M328.477,37.084l0,24.518h-24.519h0V37.084H328.477z M294.216,37.048l0,24.518h-24.519l-0.037-24.482L294.216,37.048z
	 M269.661,71.308l24.555,0.037l0.001,24.518l-24.556-0.036L269.661,71.308z M269.697,105.569h24.519v24.519l-24.519-0.001V105.569z
	 M269.66,139.83l24.556,0.037l0,24.519l-24.555-0.037L269.66,139.83z M269.697,198.61v-24.52h24.519l0,24.519L269.697,198.61z
	 M303.958,198.645L303.958,198.645v-24.518h24.519l0,24.519L303.958,198.645z M338.219,198.61V174.09h24.519v24.519H338.219z
	 M372.479,198.647l0-24.52h24.519h0v24.52H372.479z M406.704,198.646L406.704,198.646l0-24.519l24.556-0.037l-0.037,24.556H406.704z
	 M406.704,164.349L406.704,164.349V139.83h24.519v24.519H406.704z M431.223,130.124h-24.519v-24.518l0,0h24.519l0,0V130.124
	L431.223,130.124z"/>
<path style="fill:#1C75A1;" d="M309.504,241.773l-12.88,12.88L88.761,437.705l-0.511,0.438l-13.5,7.443l-38.931,21.417
	c-4.05,2.226-9.048,1.532-12.296-1.715L3.017,444.783c-3.247-3.247-3.941-8.245-1.752-12.259l21.381-39.041l7.406-13.536
	l0.438-0.511l183.162-207.754l12.88-12.88L309.504,241.773z"/>
<path style="fill:#E1E6E9;" d="M291.916,249.947l-73.556-73.556c-4.877-4.877-4.877-12.784,0-17.66l16.915-16.915l91.216,91.216
	l-16.915,16.915C304.699,254.824,296.793,254.824,291.916,249.947z"/>
<path style="fill:#3A556A;" d="M152.671,315.636L152.671,315.636c-6.045-6.045-6.045-15.847,0-21.892l33.419-33.419
	c6.045-6.045,15.847-6.045,21.892,0l0,0c6.045,6.045,6.045,15.847,0,21.892l-33.419,33.419
	C168.517,321.682,158.716,321.682,152.671,315.636z"/>
<g>
	<path style="fill:#D5D6DB;" d="M169.088,299.219c-3.018-3.018-3.018-7.928,0-10.946l11.527-11.527
		c3.018-3.018,7.928-3.018,10.946,0c3.018,3.018,3.018,7.928,0,10.946l-11.527,11.527
		C177.016,302.237,172.106,302.237,169.088,299.219z"/>
	<polygon style="fill:#D5D6DB;" points="88.761,437.705 88.249,438.143 74.75,445.586 22.647,393.483 30.053,379.947 
		30.491,379.436 	"/>
</g>
<g>
</g>
<g>
</g>
<g>
</g>
<g>
</g>
<g>
</g>
<g>
</g>
<g>
</g>
<g>
</g>
<g>
</g>
<g>
</g>
<g>
</g>
<g>
</g>
<g>
</g>
<g>
</g>
<g>
</g>
</svg>
