<?xml version="1.0" encoding="iso-8859-1"?>
<!-- Generator: Adobe Illustrator 19.0.0, SVG Export Plug-In . SVG Version: 6.00 Build 0)  -->
<svg version="1.1" id="Capa_1" xmlns="http://www.w3.org/2000/svg" xmlns:xlink="http://www.w3.org/1999/xlink" x="0px" y="0px"
	 viewBox="0 0 468.293 468.293" style="enable-background:new 0 0 468.293 468.293;" xml:space="preserve">
<polygon style="fill:#64798A;" points="308.58,31.677 234.147,106.11 159.714,31.677 148.678,42.713 234.147,128.183 
	319.617,42.713 "/>
<path style="fill:#3A556A;" d="M443.317,449.023H24.976C11.182,449.023,0,437.841,0,424.048V149.316
	c0-13.794,11.182-24.976,24.976-24.976h418.341c13.794,0,24.976,11.182,24.976,24.976v274.732
	C468.293,437.841,457.111,449.023,443.317,449.023z"/>
<path style="fill:#E1E6E9;" d="M31.22,380.341V193.024c0-20.69,16.773-37.463,37.463-37.463h239.295
	c20.69,0,37.463,16.773,37.463,37.463v187.317c0,20.69-16.773,37.463-37.463,37.463H68.684
	C47.993,417.805,31.22,401.032,31.22,380.341z"/>
<g>
	<path style="fill:#64798A;" d="M388.135,175.901h37.463c5.174,0,9.366-4.195,9.366-9.366s-4.192-9.366-9.366-9.366h-37.463
		c-5.174,0-9.366,4.195-9.366,9.366S382.961,175.901,388.135,175.901z"/>
	<path style="fill:#64798A;" d="M425.599,194.633h-37.463c-5.174,0-9.366,4.195-9.366,9.366s4.192,9.366,9.366,9.366h37.463
		c5.174,0,9.366-4.195,9.366-9.366S430.772,194.633,425.599,194.633z"/>
	<path style="fill:#64798A;" d="M425.599,232.097h-37.463c-5.174,0-9.366,4.195-9.366,9.366c0,5.171,4.192,9.366,9.366,9.366h37.463
		c5.174,0,9.366-4.195,9.366-9.366C434.964,236.292,430.772,232.097,425.599,232.097z"/>
</g>
<circle style="fill:#F6C358;" cx="406.853" cy="317.94" r="31.22"/>
<circle style="fill:#FCD462;" cx="406.853" cy="317.94" r="21.854"/>
<circle style="fill:#3EA69B;" cx="406.853" cy="391.244" r="24.976"/>
<circle style="fill:#44C4A1;" cx="406.853" cy="391.244" r="17.483"/>
<g>
	<path style="fill:#2F4859;" d="M278.064,124.34h-87.835v-6.382c0-6.897,5.591-12.488,12.488-12.488h62.86
		c6.897,0,12.488,5.591,12.488,12.488V124.34z"/>
	<circle style="fill:#2F4859;" cx="154.037" cy="36.827" r="17.558"/>
	<circle style="fill:#2F4859;" cx="314.256" cy="36.827" r="17.558"/>
</g>
<g>
</g>
<g>
</g>
<g>
</g>
<g>
</g>
<g>
</g>
<g>
</g>
<g>
</g>
<g>
</g>
<g>
</g>
<g>
</g>
<g>
</g>
<g>
</g>
<g>
</g>
<g>
</g>
<g>
</g>
</svg>
