<?xml version="1.0" encoding="iso-8859-1"?>
<!-- Generator: Adobe Illustrator 19.0.0, SVG Export Plug-In . SVG Version: 6.00 Build 0)  -->
<svg version="1.1" id="Capa_1" xmlns="http://www.w3.org/2000/svg" xmlns:xlink="http://www.w3.org/1999/xlink" x="0px" y="0px"
	 viewBox="0 0 468.293 468.293" style="enable-background:new 0 0 468.293 468.293;" xml:space="preserve">
<g>
	<path style="fill:#FCD462;" d="M253.824,115.238c-4.331-8.956-10.904-16.855-19.008-22.836c-0.924-0.681-1.814-1.408-2.663-2.171
		L166.2,30.904V20.816C166.2,9.319,156.881,0,145.384,0s-20.816,9.319-20.816,20.816v240.439
		c-9.515-3.492-20.125-5.505-31.372-5.505c-40.319,0-73.003,25.126-73.003,56.122s32.685,56.123,73.003,56.123
		c40.318,0,73.003-25.127,73.003-56.123l0,0l0,0V66.812l48.107,43.273l1.116,0.91c2.351,1.917,4.514,4.055,6.458,6.384
		c5.965,7.148,9.786,15.879,10.726,25.142c2.143,21.145,0.223,59.913-33.783,92.27c-5.135,4.887-5.999,13.108-1.464,18.557
		c2.669,3.208,6.469,4.828,10.277,4.828c3.285,0,6.58-1.207,9.157-3.642C281.501,193.451,264.247,136.771,253.824,115.238z"/>
	<path style="fill:#FCD462;" d="M433.494,106.722c-13.729,6.031-35.386,13.64-57.24,13.64c-23.063,0-46.345-7.976-60.764-14.065
		c-6.859-2.898-14.431,2.191-14.431,9.636v5.038v56.813v129.283c-9.398-3.664-19.586-5.749-30.281-5.749
		c-46.109,0-83.488,37.379-83.488,83.488c0,46.11,37.379,83.488,83.488,83.488s83.488-37.378,83.488-83.488l0,0l0,0V208.658
		c0-6.068,5.157-10.901,11.202-10.386c2.913,0.248,5.846,0.383,8.781,0.383c28.067,0,56.199-12.096,68.031-17.871
		c3.578-1.748,5.818-5.38,5.818-9.362v-55.14C448.099,108.75,440.391,103.693,433.494,106.722z"/>
</g>
<g>
	<circle style="fill:#F6C358;" cx="270.779" cy="384.812" r="52.18"/>
	<ellipse style="fill:#F6C358;" cx="93.196" cy="311.883" rx="50.139" ry="33.243"/>
</g>
<g>
</g>
<g>
</g>
<g>
</g>
<g>
</g>
<g>
</g>
<g>
</g>
<g>
</g>
<g>
</g>
<g>
</g>
<g>
</g>
<g>
</g>
<g>
</g>
<g>
</g>
<g>
</g>
<g>
</g>
</svg>
