<?xml version="1.0" encoding="iso-8859-1"?>
<!-- Generator: Adobe Illustrator 19.0.0, SVG Export Plug-In . SVG Version: 6.00 Build 0)  -->
<svg version="1.1" id="Capa_1" xmlns="http://www.w3.org/2000/svg" xmlns:xlink="http://www.w3.org/1999/xlink" x="0px" y="0px"
	 viewBox="0 0 468.293 468.293" style="enable-background:new 0 0 468.293 468.293;" xml:space="preserve">
<path style="fill:#1C75A1;" d="M234.14,15.944c-115.409,0-209.301,93.892-209.301,209.301v82.117h23.711v-82.117
	c0-102.335,83.255-185.59,185.59-185.59s185.59,83.255,185.59,185.59v82.117h23.711v-82.117
	C443.441,109.836,349.549,15.944,234.14,15.944z"/>
<path style="fill:#E56353;" d="M75.974,464.221L75.974,464.221c-21.693,0-39.278-17.585-39.278-39.278V294.202
	c0-21.693,17.585-39.278,39.278-39.278h0c21.693,0,39.278,17.585,39.278,39.278v130.741
	C115.252,446.636,97.667,464.221,75.974,464.221z"/>
<path style="fill:#3A556A;" d="M36.696,426.197L36.696,426.197C16.429,426.197,0,409.768,0,389.501v-59.856
	c0-20.267,16.429-36.696,36.696-36.696h0V426.197z"/>
<path style="fill:#E56353;" d="M392.319,464.221L392.319,464.221c21.693,0,39.278-17.585,39.278-39.278V294.202
	c0-21.693-17.585-39.278-39.278-39.278h0c-21.693,0-39.278,17.585-39.278,39.278v130.741
	C353.041,446.636,370.626,464.221,392.319,464.221z"/>
<path style="fill:#3A556A;" d="M431.596,426.197L431.596,426.197c20.267,0,36.696-16.429,36.696-36.696v-59.856
	c0-20.267-16.429-36.696-36.696-36.696h0V426.197z"/>
<path style="fill:#27A2DB;" d="M395.619,95.325L395.619,95.325c-6.611,15.323-26.649,19.295-38.407,7.452
	c-31.427-31.654-75.007-51.284-123.048-51.284c-42.911,0-82.264,15.647-112.576,41.544c-12.102,10.339-30.767,5.881-37.05-8.743
	l-0.008-0.018c-4.049-9.425-1.694-20.517,6.102-27.184C129.274,24.048,179.45,4.071,234.165,4.071
	c61.167,0,116.639,24.956,156.687,65.275C397.624,76.164,399.426,86.502,395.619,95.325z"/>
<g>
</g>
<g>
</g>
<g>
</g>
<g>
</g>
<g>
</g>
<g>
</g>
<g>
</g>
<g>
</g>
<g>
</g>
<g>
</g>
<g>
</g>
<g>
</g>
<g>
</g>
<g>
</g>
<g>
</g>
</svg>
