<?xml version="1.0" encoding="iso-8859-1"?>
<!-- Generator: Adobe Illustrator 19.0.0, SVG Export Plug-In . SVG Version: 6.00 Build 0)  -->
<svg version="1.1" id="Capa_1" xmlns="http://www.w3.org/2000/svg" xmlns:xlink="http://www.w3.org/1999/xlink" x="0px" y="0px"
	 viewBox="0 0 468.324 468.324" style="enable-background:new 0 0 468.324 468.324;" xml:space="preserve">
<rect y="386.02" style="fill:#27A2DB;" width="88.944" height="52.492"/>
<rect y="314.789" style="fill:#E1E6E9;" width="88.944" height="52.492"/>
<rect y="243.547" style="fill:#44C4A1;" width="88.944" height="52.492"/>
<rect y="172.291" style="fill:#FCD462;" width="88.944" height="52.492"/>
<rect y="101.054" style="fill:#27A2DB;" width="88.944" height="52.492"/>
<rect y="29.812" style="fill:#FCD462;" width="88.944" height="52.492"/>
<rect x="126.452" y="386.02" style="fill:#E1E6E9;" width="88.944" height="52.492"/>
<rect x="126.452" y="314.789" style="fill:#44C4A1;" width="88.944" height="52.492"/>
<rect x="126.452" y="243.547" style="fill:#E1E6E9;" width="88.944" height="52.492"/>
<rect x="252.878" y="386.02" style="fill:#FCD462;" width="88.944" height="52.492"/>
<rect x="252.878" y="314.789" style="fill:#27A2DB;" width="88.944" height="52.492"/>
<rect x="252.878" y="243.547" style="fill:#44C4A1;" width="88.944" height="52.492"/>
<rect x="252.878" y="172.291" style="fill:#27A2DB;" width="88.944" height="52.492"/>
<rect x="252.878" y="101.054" style="fill:#FCD462;" width="88.944" height="52.492"/>
<rect x="379.38" y="386.02" style="fill:#27A2DB;" width="88.944" height="52.492"/>
<rect x="379.38" y="314.789" style="fill:#44C4A1;" width="88.944" height="52.492"/>
<rect x="379.38" y="243.547" style="fill:#27A2DB;" width="88.944" height="52.492"/>
<rect x="379.38" y="172.291" style="fill:#E1E6E9;" width="88.944" height="52.492"/>
<g>
</g>
<g>
</g>
<g>
</g>
<g>
</g>
<g>
</g>
<g>
</g>
<g>
</g>
<g>
</g>
<g>
</g>
<g>
</g>
<g>
</g>
<g>
</g>
<g>
</g>
<g>
</g>
<g>
</g>
</svg>
