<svg viewBox="0 -19 512.00028 512" xmlns="http://www.w3.org/2000/svg"><path d="m402.238281 333.300781c-5.328125-1.429687-10.800781 1.726563-12.230469 7.0625-1.429687 5.324219 1.730469 10.808594 7.0625 12.238281 5.328126 1.429688 10.8125-1.738281 12.242188-7.0625 1.425781-5.335937-1.738281-10.808593-7.074219-12.238281zm0 0"/><path d="m114.925781 352.601562c5.335938-1.429687 8.492188-6.914062 7.0625-12.238281-1.429687-5.335937-6.902343-8.492187-12.226562-7.0625-5.335938 1.425781-8.503907 6.902344-7.074219 12.238281 1.425781 5.324219 6.914062 8.492188 12.238281 7.0625zm0 0"/><path d="m500.554688 320.765625c7.53125-24.785156 11.214843-48.089844 11.214843-70.988281 0-66.429688-27.085937-129.195313-76.273437-176.738282-47.9375-46.335937-112.214844-73.039062-179.496094-73.039062-137.828125 0-255.769531 111.523438-255.769531 249.777344 0 22.902344 3.683593 46.210937 11.21875 71.003906-9.148438 7.222656-13.59375 19.480469-10.441407 31.3125l25.867188 96.496094c4.25 15.914062 20.605469 25.507812 36.707031 21.207031l30.613281-8.207031c7.015626 10.195312 19.914063 15.347656 32.460938 11.996094l38.605469-10.351563c15.960937-4.277344 25.46875-20.746094 21.191406-36.703125l-36.199219-135.109375c-4.28125-15.964844-20.757812-25.472656-36.714844-21.191406l-38.59375 10.339843c-4.066406 1.089844-7.710937 2.972657-10.816406 5.433594-1.992187-9.300781-3.234375-18.527344-3.714844-27.632812 11.089844-3.488282 19.371094-13.167969 20.546876-25.207032 8.242187-84.492187 86.765624-153.234374 175.039062-153.234374s166.796875 68.742187 175.039062 153.234374c1.171876 12.039063 9.457032 21.71875 20.546876 25.207032-.480469 9.105468-1.722657 18.332031-3.714844 27.632812-3.109375-2.460937-6.75-4.34375-10.816406-5.433594l-38.59375-10.339843c-15.96875-4.277344-32.4375 5.226562-36.714844 21.191406l-36.199219 135.109375c-4.277344 15.960938 5.230469 32.425781 21.191406 36.703125l38.613281 10.351563c12.496094 3.339843 25.410157-1.761719 32.453126-11.996094l30.621093 8.210937c16.15625 4.3125 32.46875-5.371093 36.695313-21.203125l25.871094-96.515625c3.15625-11.835937-1.308594-24.109375-10.4375-31.316406zm-420.441407-20.894531 38.597657-10.34375c5.324218-1.429688 10.8125 1.742187 12.242187 7.0625l36.195313 135.109375c1.425781 5.320312-1.742188 10.804687-7.0625 12.234375l-9.652344 2.585937-18.09375-67.558593c-1.425782-5.328126-6.902344-8.492188-12.234375-7.066407-5.332031 1.429688-8.496094 6.90625-7.066407 12.238281l18.097657 67.5625-9.648438 2.585938c-5.316406 1.421875-10.808593-1.75-12.238281-7.070312 0-.003907 0-.007813 0-.007813l-36.207031-135.101563c-1.425781-5.316406 1.746093-10.804687 7.070312-12.230468zm7.25 142.859375-28.945312 7.761719c-5.324219 1.421874-10.808594-1.714844-12.242188-7.070313l-25.863281-96.492187c-1.34375-5.046876 1.445312-10.324219 6.433594-12.046876.230468-.082031.472656-.152343.636718-.195312l28.539063-7.652344c2.914063 7.273438-2.40625-9.398437 31.441406 115.695313zm-66.886719-182.964844h20c.871094 15.921875 3.8125 32.121094 8.78125 48.367187l-19.203124 5.152344c-5.539063-18.636718-8.695313-36.292968-9.578126-53.519531zm430.449219-28.546875c-9.445312-96.796875-97.304687-171.273438-194.925781-171.273438-97.675781 0-185.488281 74.519532-194.929688 171.277344-.46875 4.800782-4.769531 8.5625-9.800781 8.5625h-30.8125c5.585938-120.144531 111.164063-219.804687 235.542969-219.804687 124.375 0 229.957031 99.660156 235.539062 219.804687h-30.816406c-5.023437 0-9.328125-3.761718-9.796875-8.566406zm40.59375 28.546875c-.882812 17.226563-4.039062 34.882813-9.574219 53.519531l-19.207031-5.148437c4.96875-16.253907 7.910157-32.449219 8.78125-48.371094zm-88.769531 187.441406s0 0-.003906 0c-1.425782 5.320313-6.917969 8.492188-12.226563 7.074219l-9.65625-2.589844 18.097657-67.558594c1.429687-5.332031-1.734376-10.808593-7.066407-12.238281-5.328125-1.425781-10.808593 1.738281-12.234375 7.066407l-18.097656 67.558593-9.648438-2.589843c-5.320312-1.425782-8.492187-6.914063-7.066406-12.230469l36.199219-135.109375c1.195313-4.457032 5.242187-7.40625 9.65625-7.40625.851563 0 1.722656.113281 2.585937.34375l38.59375 10.339844c5.324219 1.425781 8.5 6.914062 7.074219 12.230468zm88.9375-100.289062-25.867188 96.511719c-1.429687 5.351562-6.925781 8.484374-12.230468 7.066406l-28.953125-7.765625c33.859375-125.140625 28.523437-108.414063 31.4375-115.695313 30.402343 8.15625 28.628906 7.652344 29.253906 7.875 4.910156 1.695313 7.703125 6.976563 6.359375 12.007813zm0 0"/></svg>