<svg id="Capa_1" enable-background="new 0 0 512.099 512.099" height="512" viewBox="0 0 512.099 512.099" width="512" xmlns="http://www.w3.org/2000/svg"><circle id="XMLID_1216_" cx="229.099" cy="229.039" fill="#b0e7f8" r="219"/><circle id="XMLID_1213_" cx="229.099" cy="229.039" fill="#79b2ff" r="76"/><g fill="#fff"><path id="XMLID_1227_" d="m286.811 17.791-1.188.296-36.853 137.537c19.658 5.255 36.164 18.192 46.127 35.4l.019.015 123.316-71.197v-1.189c-27.909-47.824-73.849-85.139-131.421-100.862z"/><path id="XMLID_1225_" d="m163.3 267.053-.019-.015-123.316 71.197.415 1.889c27.853 47.325 73.407 84.26 130.423 99.998l1.772-.131 36.853-137.537c-19.659-5.255-36.165-18.193-46.128-35.401z"/><circle id="XMLID_1203_" cx="229.099" cy="229.039" r="20"/></g><path id="XMLID_1279_" d="m286.353 257.37v142.087c-3.855-.912-7.866-1.419-12-1.419-29.412 0-53.122 24.419-51.959 54.09 1.054 26.91 22.955 48.812 49.865 49.869 27.407 1.076 50.751-18.429 54.094-44.687v-158.344l135.746-36.928v88.548l.013.016c-3.858-.913-7.876-1.41-12.013-1.41-29.391 0-53.087 24.384-51.961 54.026 1.023 26.951 22.984 48.912 49.935 49.936 29.642 1.126 54.026-22.57 54.026-51.961v-188.286c0-17.236-16.383-29.757-33.014-25.233l-163.446 44.463c-11.385 3.098-19.286 13.435-19.286 25.233z" fill="#91d9b9"/><path id="XMLID_233_" d="m229.099 259.038c16.542 0 30-13.458 30-30s-13.458-30-30-30-30 13.458-30 30 13.458 30 30 30zm0-40c5.514 0 10 4.486 10 10s-4.486 10-10 10-10-4.486-10-10 4.486-10 10-10z"/><path id="XMLID_236_" d="m497.901 184.185c-9.023-6.896-20.483-9.141-31.441-6.161l-13.281 3.613c-17.795-83.884-81.433-151.454-164.811-173.795-62.863-16.844-130.174-6.061-184.677 29.585-4.622 3.023-5.918 9.221-2.896 13.843 3.023 4.622 9.22 5.918 13.843 2.896 46.946-30.704 104.3-41.186 158.829-29.35l-31.922 119.134c-4.066-.592-8.219-.912-12.446-.912-47.42 0-86 38.58-86 86 0 12.088 2.519 23.595 7.04 34.041l-106.749 61.632c-23.008-44.612-30.154-97.575-16.17-149.765 5.8-21.644 14.909-42.025 27.075-60.578 3.029-4.618 1.74-10.817-2.879-13.846-4.617-3.028-10.816-1.739-13.846 2.879-13.335 20.336-23.317 42.666-29.668 66.368-15.832 59.084-7.707 120.797 22.877 173.77s79.967 90.865 139.05 106.697c14.104 3.779 28.524 6.191 42.984 7.24 3.596 29.78 28.636 53.321 59.054 54.514.849.033 1.694.05 2.539.05 14.789 0 29.017-5.078 40.306-14.437 11.962-9.916 19.619-23.777 21.561-39.03.053-.418.08-.84.08-1.263v-25.942c19.304-10.241 36.85-23.102 52.249-38.059-.424 3.376-.59 6.811-.458 10.288 1.222 32.17 27.378 58.327 59.548 59.549 17.032.652 33.152-5.492 45.402-17.286 12.254-11.798 19.003-27.662 19.003-44.668v-188.285c.002-11.356-5.173-21.825-14.196-28.722zm-268.243 222.884c-8.25 8.58-13.716 19.059-16.035 30.412-9.684-.732-19.346-2.144-28.892-4.224l31.921-119.132c4.066.592 8.219.912 12.447.912 16.962 0 33.356-5.012 47.254-14.152v87.186c-.667-.022-1.334-.033-2-.033-17.021 0-32.894 6.759-44.695 19.031zm84.881-187.716c-.964-8.559-3.184-16.74-6.48-24.355l106.819-61.672c8.629 16.7 15.071 34.687 18.97 53.57zm-21.752-189.365c46.849 14.993 86.181 45.85 112.074 86.028l-106.819 61.672c-9.449-12.653-22.304-22.608-37.183-28.544zm-63.688 133.05c35.287 0 64.193 27.837 65.916 62.704-11.297 6.262-18.662 18.297-18.662 31.628v17.741c-12.395 12.706-29.417 19.927-47.254 19.927-36.393 0-66-29.607-66-66s29.607-66 66-66zm-175.709 178.993 106.766-61.641c9.449 12.653 22.304 22.608 37.182 28.544l-31.928 119.159c-47.782-15.259-86.573-46.45-112.02-86.062zm282.963 66.38v-101.801l95.248-25.911c-.207.812-.408 1.626-.624 2.433-14.102 52.63-48.19 97.495-94.624 125.279zm115.746-127.348v58.162c-.667-.022-1.333-.033-2-.033-7.898 0-15.541 1.473-22.653 4.259 9.898-17.149 17.629-35.657 22.85-55.143.642-2.397 1.235-4.818 1.803-7.245zm40 120.129c0 11.521-4.572 22.268-12.875 30.261-8.297 7.988-19.225 12.146-30.772 11.708-21.783-.828-39.495-18.54-40.322-40.323-.438-11.546 3.719-22.474 11.707-30.771 7.994-8.303 18.741-12.875 30.262-12.875 3.243 0 6.51.384 9.709 1.141 4.137.979 8.439-.774 10.727-4.36 1.099-1.723 1.615-3.691 1.563-5.642v-88.293c0-3.116-1.452-6.053-3.928-7.945s-5.691-2.523-8.697-1.704l-135.746 36.928c-4.354 1.185-7.375 5.138-7.375 9.649v157.675c-2.99 21.063-21.662 36.228-43.702 35.363-21.727-.853-39.413-18.541-40.265-40.268-.453-11.556 3.698-22.497 11.688-30.806 7.995-8.314 18.748-12.893 30.279-12.893 3.207 0 6.47.387 9.699 1.15 2.974.704 6.108.008 8.505-1.889s3.796-4.786 3.796-7.843v-142.085c0-7.268 4.898-13.676 11.911-15.583l139.667-37.995c.017-.005.034-.009.05-.014l23.729-6.455c4.894-1.333 10.015-.329 14.046 2.752s6.343 7.758 6.343 12.832v188.285z"/><path id="XMLID_868_" d="m68.587 196.382c.867.232 1.738.343 2.595.343 4.415 0 8.456-2.947 9.653-7.414 12.155-45.361 43.84-82.169 86.93-100.987 5.062-2.21 7.373-8.105 5.162-13.166-2.209-5.061-8.103-7.372-13.166-5.162-48.698 21.266-84.506 62.868-98.245 114.139-1.429 5.334 1.737 10.818 7.071 12.247z"/><path id="XMLID_961_" d="m74.291 84.232c2.63 0 5.21-1.07 7.07-2.93s2.93-4.44 2.93-7.07-1.07-5.21-2.93-7.07-4.44-2.93-7.07-2.93-5.21 1.07-7.07 2.93-2.93 4.44-2.93 7.07 1.07 5.21 2.93 7.07 4.44 2.93 7.07 2.93z"/></svg>